<svg width="2184" height="792" viewBox="0 0 2184 792" fill="none" xmlns="http://www.w3.org/2000/svg">
<rect width="2184" height="792" fill="#FFFCFC"/>
<g id="Button">
<g id="Rectangle 1" filter="url(#filter0_bd_0_1)">
<rect x="100" y="30" width="1984" height="592" rx="100" fill="#204068"/>
</g>
<path id="BOOK NOW" d="M526.078 268.219C526.078 252.281 517.828 241.219 501.328 235.031C492.703 231.844 482.578 230.25 470.953 230.25H383.484V237.844H405.984V391.406H383.484V399H474.609C499.734 399 517.922 391.406 529.172 376.219C534.984 368.344 537.891 359.625 537.891 350.062C537.891 331.312 528.422 318.469 509.484 311.531C504.422 309.656 498.891 308.25 492.891 307.312C508.641 302.062 518.953 293.062 523.828 280.312C525.328 276.188 526.078 272.156 526.078 268.219ZM458.016 237.844C479.203 238.219 489.891 249.094 490.078 270.469C490.078 285.844 484.547 295.969 473.484 300.844C469.359 302.719 464.672 303.656 459.422 303.656H440.578V237.844H458.016ZM465.891 311.531C481.641 311.531 492.141 318.562 497.391 332.625C499.266 337.5 500.203 342.938 500.203 348.938C500.203 368.25 493.828 381.188 481.078 387.75C476.016 390.188 470.203 391.406 463.641 391.406H440.578V311.531H465.891ZM646.734 227.438C622.547 227.438 602.016 235.125 585.141 250.5C567.328 266.812 558.422 287.906 558.422 313.781C558.422 343.594 569.016 366.75 590.203 383.25C606.141 395.625 624.703 401.812 645.891 401.812C669.891 401.812 690.234 394.031 706.922 378.469C724.547 361.969 733.359 340.781 733.359 314.906C733.359 284.156 722.484 260.719 700.734 244.594C685.359 233.156 667.359 227.438 646.734 227.438ZM646.734 393.656C623.484 393.656 608.578 381.375 602.016 356.812C599.016 345.375 597.516 331.406 597.516 314.906C597.516 264.844 611.859 238.5 640.547 235.875C642.422 235.688 644.203 235.594 645.891 235.594C671.016 235.594 686.297 250.875 691.734 281.438C693.422 290.812 694.266 301.594 694.266 313.781C694.266 359.906 682.641 386.062 659.391 392.25C655.453 393.188 651.234 393.656 646.734 393.656ZM844.734 227.438C820.547 227.438 800.016 235.125 783.141 250.5C765.328 266.812 756.422 287.906 756.422 313.781C756.422 343.594 767.016 366.75 788.203 383.25C804.141 395.625 822.703 401.812 843.891 401.812C867.891 401.812 888.234 394.031 904.922 378.469C922.547 361.969 931.359 340.781 931.359 314.906C931.359 284.156 920.484 260.719 898.734 244.594C883.359 233.156 865.359 227.438 844.734 227.438ZM844.734 393.656C821.484 393.656 806.578 381.375 800.016 356.812C797.016 345.375 795.516 331.406 795.516 314.906C795.516 264.844 809.859 238.5 838.547 235.875C840.422 235.688 842.203 235.594 843.891 235.594C869.016 235.594 884.297 250.875 889.734 281.438C891.422 290.812 892.266 301.594 892.266 313.781C892.266 359.906 880.641 386.062 857.391 392.25C853.453 393.188 849.234 393.656 844.734 393.656ZM1029.8 399C1028.67 394.312 1026.14 391.781 1022.2 391.406H1007.3V324.469L1018.27 314.625L1075.92 399.281L1125.14 399C1124.02 394.312 1121.48 391.781 1117.55 391.406H1113.33L1043.02 291.844L1088.3 250.5C1095.98 243.188 1101.8 239.156 1105.73 238.406C1107.23 238.031 1108.64 237.844 1109.95 237.844C1114.64 236.344 1117.17 233.812 1117.55 230.25H1065.8V237.844H1088.3L1007.3 311.531V237.844H1029.8V230.25H950.203V237.844H972.703V391.406H950.203V399H1029.8ZM1308.23 237.844H1331.3V352.031L1229.48 230.25H1184.77V237.844H1207.27V391.406H1184.77V399H1242.7C1241.58 394.312 1239.05 391.781 1235.11 391.406H1218.8V270.188L1327.92 400.406L1342.83 397.594V237.844H1365.33V230.25H1308.23V237.844ZM1467.14 227.438C1442.95 227.438 1422.42 235.125 1405.55 250.5C1387.73 266.812 1378.83 287.906 1378.83 313.781C1378.83 343.594 1389.42 366.75 1410.61 383.25C1426.55 395.625 1445.11 401.812 1466.3 401.812C1490.3 401.812 1510.64 394.031 1527.33 378.469C1544.95 361.969 1553.77 340.781 1553.77 314.906C1553.77 284.156 1542.89 260.719 1521.14 244.594C1505.77 233.156 1487.77 227.438 1467.14 227.438ZM1467.14 393.656C1443.89 393.656 1428.98 381.375 1422.42 356.812C1419.42 345.375 1417.92 331.406 1417.92 314.906C1417.92 264.844 1432.27 238.5 1460.95 235.875C1462.83 235.688 1464.61 235.594 1466.3 235.594C1491.42 235.594 1506.7 250.875 1512.14 281.438C1513.83 290.812 1514.67 301.594 1514.67 313.781C1514.67 359.906 1503.05 386.062 1479.8 392.25C1475.86 393.188 1471.64 393.656 1467.14 393.656ZM1742.48 399L1796.77 237.844H1810.83V230.25H1764.7V237.844H1787.2L1746.14 361.875L1701.98 237.562L1724.48 237.844V230.25H1664.86L1685.39 285.094L1657.27 363.562L1611.98 237.844H1634.48V230.25H1563.05V237.844H1577.95L1631.11 378.75C1635.23 390 1638.98 396.469 1642.36 398.156C1644.05 399.094 1646.2 399.562 1648.83 399.562H1653.33L1690.17 298.031L1720.55 378.75C1724.67 389.625 1728.14 395.906 1730.95 397.594C1732.45 398.531 1734.7 399 1737.7 399H1742.48Z" fill="white"/>
</g>
<defs>
<filter id="filter0_bd_0_1" x="0" y="-50" width="2184" height="842" filterUnits="userSpaceOnUse" color-interpolation-filters="sRGB">
<feFlood flood-opacity="0" result="BackgroundImageFix"/>
<feGaussianBlur in="BackgroundImage" stdDeviation="40"/>
<feComposite in2="SourceAlpha" operator="in" result="effect1_backgroundBlur_0_1"/>
<feColorMatrix in="SourceAlpha" type="matrix" values="0 0 0 0 0 0 0 0 0 0 0 0 0 0 0 0 0 0 127 0" result="hardAlpha"/>
<feOffset dy="70"/>
<feGaussianBlur stdDeviation="50"/>
<feComposite in2="hardAlpha" operator="out"/>
<feColorMatrix type="matrix" values="0 0 0 0 0.12549 0 0 0 0 0.25098 0 0 0 0 0.407843 0 0 0 0.75 0"/>
<feBlend mode="normal" in2="effect1_backgroundBlur_0_1" result="effect2_dropShadow_0_1"/>
<feBlend mode="normal" in="SourceGraphic" in2="effect2_dropShadow_0_1" result="shape"/>
</filter>
</defs>
</svg>
