<svg fill="none" height="100" viewBox="0 0 100 100" width="100" xmlns="http://www.w3.org/2000/svg" xmlns:xlink="http://www.w3.org/1999/xlink"><clipPath id="a"><path d="m0 0h100v100h-100z"/></clipPath><g clip-path="url(#a)" fill="#fff"><path d="m88.673 69.4121c.2649-2.0928.3735-4.3105.4198-6.4501.2475-7.9962-.5516-17.0853-3.0526-24.8464-.3126-.8901-.6877-1.7021-1.1252-2.436.9835-1.3902 1.7327-2.9678 2.2632-4.5921.7022-1.9992 1.1076-4.1077 1.0914-6.1692-.0475-2.3426-.8602-4.5288-2.3288-6.215-.1562-.1249-.3124-.2498-.4686-.3747-.2032-.5466-.5469-1.0775-1.0936-1.5146-.703-.562-1.5152-.8273-2.3741-.8739-.5779-.0779-1.0777-.0934-1.6399-.0307-1.6866.1879-3.2013.6412-4.6067 1.4381-2.0143 1.0782-3.7943 2.3437-5.4806 3.8122-.7807.6562-1.5457 1.4529-2.3107 2.2496-2.6541 2.9993-4.871 5.4519-6.7758 7.5139-14.243-.1208-28.502-1.0225-42.6986-2.6426-2.1709-.3273-4.4354-.2173-6.5748.3768-1.7959.4846-3.31046 1.5783-4.49696 3.0623-.99914 1.2497-1.68588 2.7491-2.15395 4.2954-.51486 1.7649-.87351 3.6547-1.02917 5.4507-1.07465 10.1517-.79058 20.3653.82091 30.36.34429 2.4518 1.57868 4.591 3.4532 6.0898 2.17127 1.6079 4.70157 2.6067 7.43467 2.8714 2.5302.3585 5.1071.4983 7.5902.4351 8.9644-.0026 17.8661-.5674 26.7835-.9917 8.3552-.3616 16.6478-1.2854 24.8626-.9911 1.796.1557 3.6389.0927 5.3879-.1733.9839-.1096 1.874-.4222 2.7484-.8754 1.015-.4688 1.7957-1.125 2.5607-1.9217.0625-.0781.1874-.2343.2498-.3124 1.4831-2.0151 2.3102-4.1705 2.5438-6.5444zm-3.3863-44.4461c-.0151 1.7804-.3113 3.5921-.9042 5.2946-.5149 1.7649-1.3422 3.28-2.4662 4.6859-.8743 1.0935-1.7642 2.0464-2.7947 3.015-1.0304.9685-2.1858 2.0933-3.3255 3.3587-.1249.1562-.1873.2343-.3122.3905-.6245.781-1.0928 1.687-1.3424 2.6397s-.2181 1.8742-.046 2.7799c.1094.3436.2188.6871.3283 1.0307.1094.3435.2812.609.375.812-.1405.0156-.2654.1718-.406.1875-.3435.1094-.6246.1407-.9057.1721-.2187-.0468-.3749-.1717-.5311-.2966-.3124-.2498-.5781-.7183-.6875-1.0618-.4377-1.3742-.5943-2.7797-.2511-4.1698.1093-.2967.1404-.6559.3277-.8903.1249-.1562.1717-.3748.1404-.6559.4371-.5468.9367-1.1716 1.4363-1.7964 2.17-2.8743 4.4648-5.9047 6.3694-8.6071 1.5455-2.0931 3.0129-4.2488 4.3865-6.6074.2966-.5311.4526-1.0465.6711-1.64-.0155.4998.0315.9214-.0621 1.3587zm-22.9813 25.5411c-.1249.1562-.3123.3905-.5621.7029-1.7485 2.187-3.6532 4.249-5.636 6.2486-1.6082 1.531-3.2944 2.9995-5.1525 4.2026-.4843-.5152-.9686-1.0305-1.5935-1.53-.9372-.7494-2.0775-1.405-3.2021-1.9201 2.5751-6.2633 6.0561-12.0583 10.24-17.2914.1873-.2343.3747-.4686.562-.7029.2498-.3124.5621-.703.8118-1.0154.1406-.0156.1406-.0156.2811-.0313.1406-.0156.2968.1092.5155.156 1.64.6711 3.2332 1.5608 4.6391 2.6849 1.1716.9367 2.2964 2.092 3.2181 3.3412-2.1856 2.7336-3.7468 4.6863-4.1214 5.1549zm-13.8802 12.7166c-.3436.1094-.6715.3594-1.015.4688-.609.2813-1.2961.5001-1.9208.6408-.1405.0157-.4216.047-.5622.0627l-.0781-.0625-.0781-.0624c-.0313-.2811-.125-.4841-.0158-.7809.0622-.7184.2026-1.3744.343-2.0303.0468-.2187.1092-.2968.156-.5155.8278.4059 1.5932.8898 2.2962 1.4518.3124.2498.6248.4996.8748.8275zm25.3663-41.1748c1.0461-.828 2.1703-1.5936 3.3883-2.1562 1.0775-.5469 2.2487-.8908 3.4355-1.0942.4217-.047.7028-.0783 1.062-.0471.2811-.0314.5779.0779.8122.2652l.0781.0625c.0781.0624.1562.1249.0938.203.0937.203.0469.4216.1407.6246.0315.9214-.0776 1.8585-.3272 2.8112-.0935.4373-.2652.8122-.4993 1.2652-1.3269 2.14-2.6538 4.2799-4.2149 6.2325-2.9037 3.9521-6.5568 8.8414-9.601 12.8091-.9842-1.171-2.0309-2.264-3.2025-3.2007-1.5621-1.2489-3.2334-2.2011-5.0297-2.997 2.3262-2.7494 5.558-6.3111 10.2417-11.5286 1.0773-1.1873 2.3107-2.2496 3.6223-3.2495zm10.0259 52.3153c-.4371.5467-1.0305.9686-1.6395 1.2499-1.015.4688-2.0613.6565-3.1232.7037-1.2026.0628-2.4832.0632-3.7014-.0146-8.4959-.263-16.8509.7389-25.1436 1.0224-8.9174.4243-17.8192.9891-26.643.976-2.3426.0476-4.779-.1079-7.1529-.3415-2.2333-.2492-4.3107-1.0139-6.0914-2.3096-1.32779-1.0616-2.14035-2.6075-2.46879-4.2784-1.51772-9.7917-1.77048-19.7243-.74261-29.6572.1713-1.6555.48317-3.3266.87313-4.9354.35885-1.2495.87389-2.374 1.62325-3.3113.81182-1.0154 1.87362-1.7028 3.10722-2.1249 1.7959-.4846 3.6387-.5476 5.3723-.3139 13.6345 1.6827 27.175 2.5222 40.6372 2.6588-1.7017 1.9683-3.0288 3.4679-4.0279 4.7176-.1874.2343-.4371.5468-.6245.7811-4.5586 5.7016-8.2581 12.0902-10.9892 18.869-.5618 1.3432-.9674 2.8114-1.2325 4.2639-.1404.6559-.1245 1.4368-.0462 2.1396.0313.2811.1251.4841.2188.687-.1249.1563-.2498.3125-.3747.4687-.2967-.1093-.6403.0002-.9057.172-.6716-.2809-1.3587-.062-1.7959.4847-.4371.5467-.7337 1.0778-1.1708 1.6245-.0781-.0624-.0781-.0624-.0938-.203-.1562-.1248-.2499-.3278-.4062-.4527-.3905-.3123-.7653-.484-1.2651-.4994-.4373-.0936-.859-.0466-1.265.1409-.3435.1094-.7495.2969-.9993.6094-.1873.2343-.4528.4061-.5777.5624-.4371.5467-1.0148 1.1091-1.4519 1.6558 0 0 0 0-.0625.0781-.0781-.0624-.1718-.2654-.2499-.3279-.0314-.2811-.1408-.6246-.1721-.9057.0155-.4998-.1096-.9839-.2347-1.468-.2188-.6871-.7188-1.3429-1.2655-1.78-.3124-.2498-.6092-.359-.9059-.4683-.3749-.1716-.7966-.1247-1.2182-.0777-.4217.047-.8277.2345-1.1556.4845-.2654.1718-.4528.4062-.5777.5624-1.0772 1.1872-2.2169 2.4525-3.2161 3.7022l-.0167-3.9824c-.0313-.2811-.0002-.6403-.1096-.9839-.1251-.4841-.3907-.9525-.7813-1.2648-.0781-.0624-.1562-.1248-.2343-.1873-.3749-.1717-.6716-.2809-1.0308-.312-.4217.0469-.8433.0939-1.1712.3439-.2655.1719-.5309.3437-.7183.578-.1249.1562-.3122.3906-.4371.5468-1.0616 1.3278-1.7483 2.8272-2.0602 4.4984-.1247.7965.4534 1.5147 1.3123 1.5613.7185.0623 1.3118-.3596 1.5146-1.0936.1247-.7965.39-1.6087.8114-2.296.0004 1.2806.0008 2.5612.0012 3.8419.0313.2811.0626.5622.0939.8433.1251.4841.3126.8901.7031 1.2023.3125.2498.6873.4215 1.1871.4369.4997.0155.9838-.1096 1.3117-.3595.2655-.1719.5309-.3438.7807-.6562 1.3895-1.5777 2.779-3.1555 4.1685-4.7333l.0624-.0781c.0781.0625.1719.2655.1876.406.1094.3436.1407.6247.172.9058-.0155.4997.1096.9838.2347 1.468.2188.6871.6407 1.2804 1.2655 1.78.3124.2498.6092.359.9841.5307.4373.0935.8746.1871 1.2962.1401.4217-.0469.7496-.2969 1.0775-.5469.2654-.1718.3903-.328.5777-.5624.4371-.5467 1.0148-1.1091 1.4519-1.6558.0624-.0781.1873-.2343.2498-.3124.0781.0624.0156.1405.0937.203.0938.203.1095.3435.2032.5465.1719.2654.3438.5309.5781.7182.2343.1874.6092.3591.9684.3902.4373.0936.9214-.0315 1.3274-.219.2654-.1719.5309-.3438.6401-.6405.0625-.0781.1249-.1562.1874-.2344l.921-1.3121c.3749.1717.7965.1247 1.1401.0153.2654-.1719.5309-.3437.7182-.5781.4217-.0469.7652-.1563 1.015-.4688.2498-.3124.562-.7029.8899-.9529.0781.0625.2187.0468.2968.1093.7184.0622 1.4212-.0161 2.1083-.2349.6871-.2189 1.3117-.3596 1.9832-.719 3.5134-1.6721 6.7455-3.9531 9.4934-6.7494 2.1233-2.0153 4.0749-4.296 5.8858-6.5611.2498-.3124.4371-.5467.562-.7029.3747-.4686 2.1232-2.6556 4.3557-5.6079.0469.4217.0782.7028.1877 1.0463.1407.6247.3595 1.3118.6408 1.9208s.7656 1.1242 1.2499 1.6394c.5467.4372 1.2184.7181 1.8743.8584.7966.1247 1.4993.0465 2.2489-.2505.3435-.1094.7495-.2969 1.015-.4688.2654-.1719.5933-.4218.8431-.7343.3747-.4686.5307-.984.5305-1.6243-.0626-.5622-.2034-1.1869-.4065-1.7334-.1719-.2655-.2032-.5466-.3127-.8901-.125-.4841-.1252-1.1245.0308-1.6399s.4526-1.0465.8273-1.5151c.0624-.0781.1249-.1562.1873-.2343 1.0773-1.1872 2.1077-2.1558 3.2007-3.2025.6401-.6405 1.2178-1.2029 1.8579-1.8434.1094.3436.2813.609.3907.9526 2.4384 7.1989 3.1438 16.0849 2.943 23.8625.0162 2.0614-.1862 4.0761-.3887 6.0908-.2181 1.8742-.811 3.5767-1.9194 5.1231.0313.2811-.0312.3592-.0936.4373z"/><path d="m37.6219 44.9062c-.0307-.7804-.6833-1.4083-1.4637-1.3776-8.3835.2402-16.8645.2791-25.303.0986-.7987-.1095-1.50582.4821-1.53606 1.3418-.10952.7988.48209 1.5059 1.34176 1.5361l.1403-.0183c8.4384.1805 16.9988.2025 25.4432-.1169.7804-.0307 1.4082-.6833 1.3775-1.4637z"/><path d="m39.2076 54.8483c-.07-.7779-.6964-1.4543-1.4743-1.3843l-20.8139.5608c-.7778.07-1.4543.6965-1.3843 1.4744s.6965 1.4543 1.4743 1.3843l20.8961-.504c.7779-.07 1.3721-.7533 1.3021-1.5312z"/><path d="m64.1415 60.2717 11.5251-.112c.7807-.0232 1.4147-.6697 1.3915-1.4504s-.6697-1.4147-1.4504-1.3915l-11.525.112c-.7807.0232-1.4148.6697-1.3916 1.4503-.0555.719.6697 1.4148 1.4504 1.3916z"/><path d="m81.5831 65.7808-18.4698.4968c-.7806.028-1.4106.6784-1.3826 1.4589.0281.7805.6785 1.4106 1.459 1.3826l18.4086-.4177c.7805-.028 1.4105-.6785 1.3825-1.459.0332-.8596-.6784-1.4106-1.3977-1.4616z"/></g></svg>