<svg height="100" width="100" xmlns="http://www.w3.org/2000/svg"><g fill="none"><path d="m-1-1h582v402h-582z"/><path d="m62.299999 16.9c.200001 3.300001.299999 7.1.400002 10.700001v2.299999c.099998.200001.200001.4.299999.6.099998.299999.200001.6.299999.9.600002 1.300001 1.600002 2.300001 2.799999 3.1.400002.200001.800003.400002 1.200005.400002.199997 0 .399994 0 .599998-.100002.299995-.200001.5-.399998.599998-.700001.099998-.099998.199997-.299999.199997-.399998-.099998-.100002-.399994-.200001-.799995-.400002-.300003-.200001-.599998-.399998-.900002-.599998-.699997-.600002-1.300003-1.400002-1.699997-2.200001-.400002-.9-.600006-1.9-.600006-2.9 0-.200001 0-.300001 0-.5.100006-1.700001.300003-3.300001.5-4.700001.200005-1.299999.300003-2.699999.300003-4.1 0-1.799999-.300003-3.599999-1-5.199999-.5-1.8-1.400002-3.400001-2.5-4.8-.299999-.3-.599998-.6-.900002-.9.200001.5.400002 1.1.5 1.7.400002 2.5.600002 5.2.700001 7.799999z"/><path d="m50.099998 36.200001c-.199997 0-.299999.099998-.5.200001 0 .099998-.099998.199997-.199997.199997v1.300003.899998c0 6.700001.899998 13.400002 2.799999 19.900002 1.200001-.299999 2.399998-.5 3.700001-.5.699997 0 1.399998.099998 2.199997.200001.600002-2.100002 1.100002-4.300003 1.400002-6.5.400002-2.800003.5-5.600002.5-8.400002 0-.299999 0-.599998 0-.900002 0-.599998 0-3.199997 0-6.599998-1.5-.400002-3-.599998-4.599998-.599998-1.800003 0-3.600002.299999-5.300003.799999z"/><path d="m53.400002 61.900002c.299999.599998.599998 1.299999 1 1.799999.099998.200001.299999.399998.5.600002h.099998.099998c.200001-.100006.300003-.200005.400002-.400002.400002-.5.799999-1.100002 1.099998-1.700001.200001-.299999.300003-.700001.5-1-.399998 0-.699997-.100002-1.099998-.100002-.900002 0-1.799999.100002-2.700001.300003 0 .199997 0 .299999.100002.5z"/><path d="m50.400002 18c-.400002 7-.700001 11.799999-.800003 15.299999 1.900002-.5 3.800003-.799999 5.800003-.799999 1.5 0 3 .200001 4.5.5-.100002-5-.200001-11.1-.5-16-.100002-2.5-.300003-5-.600002-7.5-.099998-.4-.200001-.8-.399998-1.3-.300003-.9-.800003-1.7-1.5-2.4-.100002-.2-.300003-.3-.5-.4-.100002 0-.100002-.1-.200001-.1h-.100002c-.299999 0-.599998.1-.799999.3-.299999.2-.599998.4-.799999.7-.900002.9-1.5 1.9-2 3-.5 1.2-1 2.5-1.299999 3.8-.400002 1.7-.700001 3.299999-.799999 4.9z"/><path d="m86.400002 37.299999c-4.700005-6.199999-10.800003-12.599998-17.200005-16.799999-.299995-.200001-.599998-.4-.899994-.5-.100006.9-.200005 1.799999-.300003 2.6-.199997 1.5-.400002 2.9-.5 4.5v.299999c0 .6.099998 1.200001.300003 1.700001.199997.5.599998.9 1 1.299999.199997.200001.5.300001.799995.5.5.300001 1 .6 1.400002 1.1.400002.400002.599998 1 .599998 1.599998 0 .400002-.099998.700001-.199997 1.100002-.099998.399998-.300003.700001-.5 1-.400002.599998-.900002 1.200001-1.599998 1.599998-.600006.400002-1.300003.5-2 .5-.700005 0-1.400002-.200001-2-.5-.600006-.299999-1.200005-.599998-1.700005-1.099998-.299999-.200001-.599998-.5-.799999-.700001 0 3.700001.100002 6.5.100002 7.099998v.900002c0 2.900002-.200001 5.900002-.5 8.799999-.400002 3.900002-1.5 7.700001-3.200001 11.200001-.299999.599998-.700001 1.199997-1.100002 1.800003-.399998.599998-.899998 1.099998-1.5 1.5-.099998 0-.199997.099998-.299999.099998 0 .400002 0 .900002-.099998 1.299995 0 .400002-.200001.700005-.5 1 0 .300003-.100002.600006-.200001.900002-.200001.400002-.5.599998-.900002.700005l.100002 1.599998v.299995c0 .300003 0 .600006-.100002.900002-.199997.400002-.5.800003-.899998 1-.299999.200005-.600002.300003-1 .300003-.299999 0-.600002-.099998-.900002-.200005-.200001-.099998-.399998-.199997-.5-.299995-.099998 0-.099998-.099998-.200001-.099998v.399994c0 .700005-.099998 1.5-.099998 2.200005 0 .299995 0 .5-.099998.799995-.100002.400002-.300003.800003-.5 1.100006-.300003.299995-.600002.599998-1.100002.699997-.299999.099998-.700001.199997-1.099998.199997-.700001 0-1.400002-.199997-2.100002-.599998-.399998-.299995-.799999-.599998-1.099998-1-.200001-.199997-.5-.400002-.700001-.599998-.099998-.099998-.299999-.099998-.399998-.199997v.099998c-.100002 2.099998-.200001 4.199997-.300003 6.299995 0 .300003-.099998.700005-.199997 1-.200001.5-.400002.800003-.800003 1.100006-.299999.199997-.699997.399994-1.199997.399994-.5 0-.900002-.199997-1.300003-.5-.199997-.199997-.399998-.399994-.599998-.599998-.799999-1-1.599998-2-2.400002-3 .100002.800003.400002 1.599998.800003 2.300003.299999.599998 0 1.400002-.5 1.799995-.700001.400002-1.600002.200005-2-.399994-.800003-1.5-1.200001-3.100006-1.200001-4.800003 0-.199997 0-.400002 0-.699997 0-.300003.099998-.600006.200001-.900002.099998-.400002.399998-.800003.699997-1 .300003-.200005.600002-.400002 1-.400002h.300003c.5 0 1 .199997 1.399998.5.200001.199997.5.400002.700001.699997l2.5 3.100006c.099998-1.600006.200001-3.300003.200001-4.900002 0-.300003 0-.599998.099998-.800003.100002-.400002.299999-.799995.600002-1.099998.299999-.300003.599998-.5 1-.699997.299999-.100006.699997-.200005 1-.200005.799999 0 1.5.200005 2.099998.599998.400002.300003.799999.600006 1.099998 1 .200001.200005.400002.400002.700001.600006.100002.099998.200001.099998.400002.099998 0 0 0 0 0-.099998 0-.700005.099998-1.5.099998-2.200005 0-.299995 0-.599998.100002-.799995.099998-.400002.199997-.800003.399998-1.100006.200001-.399994.5-.699997.900002-.899994.399998-.200005.899998-.400002 1.299999-.400002.200001 0 .400002 0 .599998.099998.100002 0 .100002 0 .200001.099998 0-.699997-.099998-1.299995-.099998-2 0-.699997.399998-1.299995 1.099998-1.5.100002-.299995.299999-.5.600002-.699997 0-.200005 0-.400002 0-.599998-.200001-.100006-.400002-.300003-.600002-.400002-.5-.5-1-1.099998-1.299999-1.700005-.700001-1.299995-1.299999-2.699997-1.700001-4.099998-2.200001-7-3.200001-14.299999-3.200001-21.599998 0-.299999 0-.599998 0-1 0-1.599998.100002-3.599998.200001-6.200001-10.700001 8.200001-21.799999 16-33.299999 23.200001-1.6.900002-2.9 2.099998-4 3.599998-.7 1-1.1 2.300003-1.1 3.600002s.3 2.499996.8 3.600002c.6 1.5 1.400001 3 2.400001 4.399994 5.4 8.300003 11.799999 16 19.1 22.700005 1.199999 1.199997 2.899998 1.799995 4.599998 1.799995 2.200001-.099998 4.299999-.799995 6.200001-2 2.099998-1.199997 4-2.599998 5.799999-4.199997 6.900002-5.5 13.400002-11.5 20.200001-17.400002 6.199997-5.400002 12.199997-11.399998 19-16.5 1-.699997 2-1.5 2.900002-2.299999.799995-.700001 1.5-1.599998 2-2.5.299995-.599998.5-1.299999.5-2 0-.099998 0-.200001 0-.299999-.099998-1.799999-.700005-3.599998-1.700005-5.200001-1.299995-1.700001-2.5-3.399998-3.799995-5zm-63.200001 30.600002c-.700001.400002-1.6.199997-2-.400002-.400002-.699997-.200001-1.599998.4-2 6.799999-5 13.499998-10.200001 19.999998-15.5.600002-.5 1.5-.400002 2 .200001.5.599998.400002 1.5-.199997 2-6.600002 5.399998-13.300001 10.599998-20.100002 15.600002 0 .099998 0 .099998-.099998.099998zm5.599998 8.5c-.599998.5-1.5.299995-2-.300003s-.299999-1.5.300001-2l16.9-12.299999c.599998-.5 1.5-.299999 2 .299999.5.600002.299999 1.5-.299999 2zm36.700001-30 9-7.200001c.599998-.5 1.5-.400002 2 .200001.5.599998.400002 1.5-.199997 2l-9 7.199997c-.600006.5-1.5.400002-2-.199997-.5-.600002-.5-1.5.199997-2zm15.800003 1.599998-14.300003 11.700001c-.599998.5-1.5.399998-2-.200001-.5-.599998-.400002-1.5.199997-2l14.300003-11.700001c.599998-.5 1.5-.399998 2 .200001.5.5.400002 1.400002-.199997 2z"/></g><path d="m92.253517 40.900002c-1.099998-1.800003-2.400002-3.600002-3.700005-5.300003-4.799995-6.399998-11.099998-12.999998-17.899994-17.499998-.800003-.5-1.600006-.9-2.400002-1.200001-.099998-1.7-.5-3.4-1.099998-5-.700005-2-1.700005-3.9-3-5.5-1.5-1.8-3.5-3-5.700001-3.4-.199997 0-.399998 0-.599998 0-.5-.3-1.099998-.5-1.799999-.5-.900002 0-1.700001.3-2.400002.8-.5.3-.899998.6-1.299999 1-1.200001 1.2-2.099998 2.5-2.700001 4-.899998 2.099999-1.5 4.2-1.899998 6.4-.200001 1-.300003 2.099999-.400002 3.2-.200001 4-.400002 7.300001-.599998 10.1-11.200001 8.799999-22.900003 17-35.000004 24.599998-1.9 1.100002-3.599999 2.600002-4.9 4.400002-1.1 1.5-1.6 3.299999-1.6 5.200001 0 1.599998.4 3.200001 1 4.700001.7 1.699997 1.6 3.400002 2.6 4.900002 5.5 8.599998 12.1 16.399994 19.6 23.199997 1.799999 1.699997 4.100002 2.599998 6.5 2.599998 2.700001-.099998 5.300003-.900002 7.600002-2.400002 2.200001-1.299995 4.299999-2.799995 6.200001-4.399994 7-5.600006 13.599998-11.600006 20.299992-17.5 6.300003-5.5 12.200005-11.400002 18.800003-16.300003 1.5-1 2.900002-2.200001 4.099998-3.5.700005-.700001 1.200005-1.5 1.599998-2.400002.5-1 .700005-2 .800003-3.099998 0-.099998 0-.299999 0-.400002-.099998-2.5-.800003-4.699997-2.099998-6.699997zm-30.399998-32.600001c1.099998 1.4 2 3 2.599995 4.7.700005 1.7 1 3.4 1 5.200001 0 1.4-.099998 2.699999-.299995 4.099998-.200005 1.400002-.400002 3-.5 4.700001v.5c0 1 .199997 2 .599998 2.9.400002.9 1 1.6 1.699997 2.199999.300003.200001.599998.400002.900002.600002.300003.200001.599998.299999.800003.399998-.100006.100002-.100006.300003-.200005.400002-.199997.299999-.400002.5-.599998.700001-.199997.099998-.400002.099998-.599998.099998-.400002 0-.900002-.200001-1.200005-.399998-1.199997-.800003-2.199993-1.800003-2.799992-3.100002-.100002-.299999-.300003-.599998-.300003-.9 0-.199999-.099998-.4-.299999-.6 0-.699999 0-1.5 0-2.299999-.099998-3.6-.200001-7.4-.399998-10.700001-.100002-2.599999-.300003-5.199999-.700001-7.9-.100002-.599999-.299999-1.099999-.5-1.7.299999.4.599998.7.799999 1.1zm-2 34.299998v.900002c0 2.799999-.200001 5.599998-.5 8.400002-.299999 2.199997-.700001 4.399998-1.400002 6.5-.699997-.100002-1.399998-.200001-2.199997-.200001-1.200001 0-2.5.200001-3.700001.5-1.900002-6.5-2.799999-13.200001-2.799999-19.900002 0-.299999 0-.599998 0-.899998 0-.400002 0-.900002 0-1.300003.099998-.099998.099998-.099998.199997-.199997.100002-.100002.300003-.100002.5-.200001 1.700001-.5 3.5-.799999 5.300003-.799999 1.5 0 3.099998.199997 4.599998.599998v6.599998zm-2.900002 18.600002c-.199997.299999-.299999.700001-.5 1-.299999.599998-.699997 1.200001-1.099998 1.700001-.099998.099998-.299999.299995-.400002.400002h-.099998-.099998c-.200001-.200005-.400002-.300003-.5-.600002-.400002-.600002-.700001-1.200001-1-1.799999-.100002-.200001-.100002-.300003-.200001-.5.899998-.200001 1.799999-.300003 2.700001-.300003.399998 0 .799999 0 1.199997.100002zm-5.899998-48.000001c.299999-1.3.700001-2.599999 1.299999-3.8.5-1.099999 1.200001-2.099999 2-3 .299999-.3.5-.5.799999-.7.200001-.2.5-.3.799999-.3h.100002c.099998 0 .200001 0 .200001.1.199997.1.299999.3.5.4.599998.7 1.099998 1.5 1.5 2.4.199997.4.299999.8.399998 1.3.299999 2.5.600002 5 .600002 7.5.199997 4.9.399998 11 .5 15.999998-1.5-.299999-3-.5-4.5-.5-2 0-3.900002.300003-5.800003.800003.100002-3.600002.400002-8.400002.800003-15.400002.099998-1.6.399998-3.2.799999-4.8zm40.499992 34.599999c0 .700001-.199997 1.400002-.5 2-.5 1-1.199997 1.799999-2 2.5-.899994.799999-1.899994 1.600002-2.899994 2.299999-6.800003 5.100002-12.700005 11.099998-19 16.5-6.700001 5.900002-13.299999 11.900002-20.200001 17.400002-1.799999 1.5-3.799999 2.900002-5.799999 4.199997-1.899998 1.200005-4 1.900002-6.200001 2-1.699997 0-3.300001-.699997-4.6-1.799995-7.299999-6.700005-13.700001-14.300003-19.1-22.700005-.9-1.399994-1.7-2.899994-2.4-4.399994-.5-1.200005-.8-2.400002-.8-3.600002 0-1.299999.400001-2.5 1.1-3.600002 1.099999-1.5 2.5-2.699997 4-3.599998 11.7-7.200001 22.8-15 33.400002-23.299999-.100002 2.599998-.200001 4.599998-.200001 6.200001v1c0 7.299999 1.099998 14.599998 3.200001 21.599998.399998 1.400002 1 2.799999 1.700001 4.099998.299999.599998.799999 1.200005 1.299999 1.700005.200001.199997.399998.299995.599998.399994v.600006c-.299999.099998-.5.399994-.599998.699997-.700001.199997-1.100002.800003-1.100002 1.5s.100002 1.300003.100002 2c-.100002 0-.100002 0-.200001-.099998-.200001 0-.400002-.099998-.599998-.099998-.5 0-.900002.099998-1.300003.399994-.399998.200005-.699997.5-.899998.900002-.200001.300003-.400002.700005-.400002 1.099998 0 .300003-.099998.600006-.099998.800003 0 .699997-.100002 1.5-.100002 2.199997v.100006c-.099998 0-.299999-.100006-.399998-.100006-.200001-.199997-.5-.399994-.700001-.599998-.299999-.400002-.700001-.699997-1.099998-1-.600002-.400002-1.400002-.599998-2.100002-.599998-.399998 0-.700001.099998-1 .199997-.399998.100006-.700001.400002-1 .700005-.299999.299995-.5.699997-.599998 1.099998-.100002.300003-.100002.599998-.100002.800003-.099998 1.599998-.199997 3.299995-.199997 4.899994l-2.5-3.099998c-.200001-.199997-.400002-.5-.700001-.699997-.400002-.300003-.900002-.5-1.400002-.5-.099998 0-.200001 0-.299999 0-.400002.099998-.700001.199997-1 .400002-.299999.299995-.599998.599998-.700001 1-.099998.299995-.200001.599998-.200001.899994v.700005c0 1.699997.400002 3.299995 1.200001 4.799995.400002.700005 1.299999.900002 2 .400002.600002-.400002.799999-1.099998.5-1.799995-.399998-.700005-.700001-1.5-.799999-2.300003.799999 1 1.599998 2 2.400002 3 .199997.199997.399998.400002.599998.599998.400002.300003.799999.5 1.299999.5.400002 0 .799999-.099998 1.200001-.400002.400002-.299995.700001-.699997.799999-1.099998.100002-.299995.200001-.599998.200001-1 .099998-2.099998.200001-4.199997.299999-6.299995v-.100006c.100002 0 .299999.100006.400002.200005.299999.199997.5.400002.700001.599998.299999.400002.699997.699997 1.099998 1 .599998.400002 1.299999.599998 2.099998.599998.400002 0 .700001-.099998 1.100002-.199997.399998-.200005.799999-.400002 1.099998-.700005.299999-.299995.400002-.699997.5-1.099998.100002-.299995.100002-.5.100002-.799995 0-.700005.099998-1.5.099998-2.200005 0-.099998 0-.299995 0-.400002.099998 0 .099998.100006.200001.100006.200001.099998.299999.199997.5.299995.299999.099998.599998.200005.899998.200005.300003 0 .700001-.100006 1-.300003.400002-.199997.700001-.599998.900002-1 .099998-.300003.200001-.599998.099998-.900002 0-.099998 0-.199997 0-.299995l-.099998-1.600006c.400002-.099998.700001-.399994.900002-.699997.099998-.300003.199997-.599998.199997-.900002.300003-.299995.5-.599998.5-1s0-.900002.100002-1.299995c.099998 0 .200001-.100006.299999-.100006.599998-.399994 1.099998-.899994 1.5-1.5.400002-.599998.799999-1.099998 1.099998-1.799995 1.700001-3.5 2.800003-7.300003 3.200001-11.200001.400002-2.900002.5-5.900002.5-8.799999 0-.400002 0-.700001 0-.900002 0-.599998 0-3.400002-.099998-7.099998.299999.299999.5.5.799999.699997.5.400002 1.099995.800003 1.699993 1.100002.600006.299999 1.300003.399998 2 .5.700005 0 1.400002-.200001 2-.5.700005-.400002 1.200005-.900002 1.600006-1.600002.199997-.299999.399994-.699997.5-1 .099998-.299999.199997-.699997.199997-1.099998 0-.599998-.199997-1.099998-.599998-1.6-.400002-.4-.900002-.799999-1.400002-1.1-.300003-.099998-.5-.299999-.800003-.5-.399994-.299999-.799995-.799999-1-1.299999-.199997-.5-.299995-1.1-.299995-1.700001 0-.099998 0-.199999 0-.299999.099998-1.6.299995-3 .5-4.5.099998-.9.199997-1.700001.299995-2.6.300003.200001.600006.300001.900002.5 6.400002 4.1 12.5 10.6 17.200005 16.800001 1.299995 1.599998 2.399994 3.299999 3.5 5 1 1.599998 1.599998 3.299999 1.699997 5.200001.199997.199997.199997.299999.199997.399998z" transform="matrix(.78104986 .62446867 -.62446867 .78104986 42.159144 -20.142281)"/><path d="m34.618099 36.284184c-.5-.600002-1.400002-.700001-2-.200001-6.500002 5.299999-13.200001 10.5-20 15.5-.700001.400002-.900002 1.300003-.400002 2 .400002.699997 1.300001.900002 2 .400002 0 0 .1-.099998.1-.099998 6.800001-5.000004 13.599998-10.200005 20.1-15.600002.599998-.5.700001-1.400002.200001-2z" transform="matrix(.79279518 .60948814 -.60948814 .79279518 32.291615 -4.959064)"/><path d="m36.918098 48.184181c-.5-.599998-1.400002-.799999-2-.299999l-16.799999 12.299999c-.6.5-.800001 1.400002-.300001 2s1.4.800003 2 .300003l16.9-12.300003c.600002-.5.700001-1.399998.200001-2z" transform="matrix(.82248269 .56879013 -.56879013 .82248269 36.249792 -5.781009)"/><path d="m66.274628 63.494713 9-7.200001c.599998-.5.699997-1.400002.199997-2s-1.400002-.700001-2-.200001l-9 7.200001c-.599995.5-.699997 1.400002-.199997 2 .399994.599998 1.399994.700001 2 .200001z" transform="matrix(.78690164 .61707845 -.61707845 .78690164 51.17112 -30.58907)"/><path d="m78.621109 60.494713-14.300003 11.699997c-.600002.5-.700001 1.400002-.199997 2 .5.599998 1.400002.699997 2 .199997l14.300003-11.599995c.599998-.5.699997-1.400002.199997-2-.5-.700001-1.400002-.700001-2-.299999z" transform="matrix(.79070249 .61220059 -.61220059 .79070249 56.452048 -30.184408)"/></svg>