<svg viewBox="0 0 128 128" xmlns="http://www.w3.org/2000/svg"><path d="m54.76 104.79c-30.2 0-54.76-18.3-54.76-40.79s24.56-40.79 54.76-40.79c23.72 0 44.63 11.25 52 28a2 2 0 1 1 -3.66 1.62c-6.74-15.33-26.18-25.62-48.34-25.62-27.99 0-50.76 16.5-50.76 36.79s22.77 36.79 50.76 36.79c16.16 0 31-5.41 40.7-14.84a2 2 0 1 1 2.79 2.87c-10.45 10.18-26.25 15.97-43.49 15.97z"/><path d="m126 86.16a2 2 0 0 1 -1.7-.94c-6.72-10.78-17.92-28.45-19.37-29.94l-.45-.45c-1.71-1.72-3.33-3.35-5.07-3.35-2.66 0-10.38.68-10.46.69a2 2 0 0 1 -.35-4c.32 0 8-.7 10.81-.7 3.41 0 5.8 2.41 7.91 4.54l.44.44c2.14 2.13 17 25.91 19.94 30.65a2 2 0 0 1 -1.7 3.06z"/><path d="m109.81 94.25h-.16a17.22 17.22 0 0 1 -6.65-2.12 19.17 19.17 0 0 1 -6.69-6.9 22.25 22.25 0 0 1 -1.86-4.23c-.61-1.68-1.31-3.59-2.15-4.34s-4-3.28-7.38-6l-5.13-4.15c-5.07-4.11-7.58-6.21-8.39-7-3-3-3-6.75 0-9.77 1.26-1.26 4.09-3 8.86-.33l21.27 11.79-1.94 3.5-21.27-11.86c-2.85-1.58-3.78-.64-4.09-.33-1.82 1.82-1 3.15 0 4.11s6.33 5.32 8.08 6.74l5.12 4.14c3.73 3 6.67 5.39 7.53 6.15 1.6 1.42 2.44 3.73 3.25 6a19.64 19.64 0 0 0 1.5 3.48 15.37 15.37 0 0 0 5.29 5.55 13.3 13.3 0 0 0 5 1.58 2 2 0 0 1 -.15 4z"/><path d="m90.45 80.62a6.48 6.48 0 0 1 -3.86-.91c-.35-.28-1.49-1.08-2.7-1.92a74.33 74.33 0 0 1 -6.94-5.16c-2.07-2.07-2.43-4.8-.92-7 1.9-2.72 4.41-2.94 5.59-2.64l-1 3.88h.11c-.07 0-.71 0-1.46 1-.14.2-.56.8.47 1.83.78.78 4.3 3.24 6.4 4.71 1.45 1 2.34 1.63 2.8 2a16.86 16.86 0 0 0 5.2-.26 2 2 0 0 1 2.51 1.27 2 2 0 0 1 -1.24 2.58 25.36 25.36 0 0 1 -4.96.62z"/><path d="m91.31 87.55c-2.51 0-10.49-4.43-11.28-5a5.21 5.21 0 0 1 -1.87-6.64 5.44 5.44 0 0 1 4.84-3.23 2 2 0 0 1 0 4 1.43 1.43 0 0 0 -1.18.89 1.25 1.25 0 0 0 .44 1.69c1.41.94 7.81 4.14 9.13 4.29a25 25 0 0 0 5.27-2.07 2 2 0 1 1 1.77 3.59c-1.52.75-5.23 2.48-7.12 2.48z"/><path d="m81.21 67.26a2 2 0 0 1 -.34 0l-14.8-2.57a4.78 4.78 0 0 1 -3.89-5.52l2.82-16.44a4.78 4.78 0 0 1 5.52-3.89l16.48 2.85a4.78 4.78 0 0 1 3.89 5.52l-1.49 8.61a2 2 0 1 1 -3.94-.68l1.49-8.62a.78.78 0 0 0 -.63-.9l-16.4-2.85a.76.76 0 0 0 -.58.13.77.77 0 0 0 -.32.5l-2.85 16.4a.79.79 0 0 0 .63.9l14.8 2.57a2 2 0 0 1 -.34 4z"/><path d="m23.66 72.46a2 2 0 0 1 -1.66-3.15 9.69 9.69 0 0 0 0-11.15 2 2 0 0 1 3.27-2.3 13.69 13.69 0 0 1 0 15.76 2 2 0 0 1 -1.61.84z"/><path d="m31.42 76.44a2 2 0 0 1 -1.7-3.05 18.38 18.38 0 0 0 0-19.32 2 2 0 1 1 3.4-2.07 22.38 22.38 0 0 1 0 23.54 2 2 0 0 1 -1.7.9z"/><path d="m39.48 80.6a2 2 0 0 1 -1.72-3 27.45 27.45 0 0 0 0-27.7 2 2 0 1 1 3.45-2 31.45 31.45 0 0 1 0 31.75 2 2 0 0 1 -1.73.95z"/><path d="m47.88 84.91a2 2 0 0 1 -1.74-3 36.89 36.89 0 0 0 0-36.39 2 2 0 1 1 3.48-2 40.89 40.89 0 0 1 0 40.35 2 2 0 0 1 -1.74 1.04z"/></svg>