<svg fill="none" height="128" viewBox="0 0 128 128" width="128" xmlns="http://www.w3.org/2000/svg" xmlns:xlink="http://www.w3.org/1999/xlink"><clipPath id="a"><path d="m0 0h128v128h-128z"/></clipPath><g clip-path="url(#a)" fill="#fffefe"><path d="m54.76 104.79c-30.2 0-54.76-18.3-54.76-40.79s24.56-40.79 54.76-40.79c23.72 0 44.63 11.25 52 28 .215.4853.228 1.0362.037 1.5312-.095.2452-.237.4693-.418.6595-.182.1903-.399.3429-.639.4493s-.499.1644-.762.1707-.524-.0392-.769-.1339c-.495-.1913-.894-.5715-1.109-1.0568-6.74-15.33-26.18-25.62-48.34-25.62-27.99 0-50.76 16.5-50.76 36.79s22.77 36.79 50.76 36.79c16.16 0 31-5.41 40.7-14.84.3806-.37.8926-.5736 1.4233-.5661s1.0367.2255 1.4067.6061.5736.8926.5661 1.4233-.2255 1.0367-.6061 1.4067c-10.45 10.18-26.25 15.97-43.49 15.97z"/><path d="m126 86.16c-.34.0007-.674-.0853-.972-.2497-.297-.1645-.548-.4021-.728-.6903-6.72-10.78-17.92-28.45-19.37-29.94l-.45-.45c-1.71-1.72-3.33-3.35-5.07-3.35-2.66 0-10.38.68-10.46.69-.2626.023-.5272-.006-.7787-.0853-.2514-.0792-.4848-.2073-.6868-.3767-.2019-.1695-.3686-.3771-.4903-.611-.1217-.2338-.1962-.4894-.2192-.752s.006-.5272.0853-.7787c.0792-.2514.2073-.4848.3767-.6868.1695-.2019.3771-.3685.611-.4903.2338-.1217.4894-.1962.752-.2192.32 0 8-.7 10.81-.7 3.41 0 5.8 2.41 7.91 4.54l.44.44c2.14 2.13 17 25.91 19.94 30.65.189.303.294.6513.303 1.0085.01.3572-.077.7104-.251 1.0228-.173.3124-.427.5725-.735.7535-.309.1809-.66.2759-1.017.2752z"/><path d="m109.81 94.25h-.16c-2.338-.2453-4.601-.9668-6.65-2.12-2.78-1.6946-5.0821-4.0692-6.69-6.9-.7651-1.3416-1.3885-2.7593-1.86-4.23-.61-1.68-1.31-3.59-2.15-4.34s-4-3.28-7.38-6l-5.13-4.15c-5.07-4.11-7.58-6.21-8.39-7-3-3-3-6.75 0-9.77 1.26-1.26 4.09-3 8.86-.33l21.27 11.79-1.94 3.5-21.27-11.86c-2.85-1.58-3.78-.64-4.09-.33-1.82 1.82-1 3.15 0 4.11s6.33 5.32 8.08 6.74l5.12 4.14c3.73 3 6.67 5.39 7.53 6.15 1.6 1.42 2.44 3.73 3.25 6 .3867 1.2056.889 2.3711 1.5 3.48 1.266 2.2672 3.086 4.1766 5.29 5.55 1.545.8533 3.245 1.3904 5 1.58.53.0199 1.031.2497 1.392.6388.361.3892.553.9058.533 1.4362s-.25 1.0312-.639 1.3922c-.389.3611-.906.5527-1.436.5328z"/><path d="m90.45 80.62c-1.3502.1075-2.7001-.2107-3.86-.91-.35-.28-1.49-1.08-2.7-1.92-2.4115-1.5839-4.7288-3.3068-6.94-5.16-2.07-2.07-2.43-4.8-.92-7 1.9-2.72 4.41-2.94 5.59-2.64l-1 3.88h.11c-.07 0-.71 0-1.46 1-.14.2-.56.8.47 1.83.78.78 4.3 3.24 6.4 4.71 1.45 1 2.34 1.63 2.8 2 1.7363.1831 3.4906.0954 5.2-.26.5013-.1614 1.0461-.1186 1.516.1192.4699.2377.8271.6513.994 1.1508.0913.2506.1316.5169.1185.7833s-.0794.5275-.195.7679c-.1155.2404-.278.4553-.4778.632-.1998.1766-.433.3116-.6857.3968-1.6289.3695-3.2903.5772-4.96.62z"/><path d="m91.31 87.55c-2.51 0-10.49-4.43-11.28-5-1.0676-.6885-1.8469-1.7434-2.1913-2.9662s-.2301-2.5293.3213-3.6738c.4182-.9414 1.095-1.7447 1.9518-2.3165.8569-.5718 1.8584-.8886 2.8882-.9135.5304 0 1.0391.2107 1.4142.5858s.5858.8838.5858 1.4142-.2107 1.0391-.5858 1.4142-.8838.5858-1.4142.5858c-.2591.0268-.5059.1239-.7139.2807-.208.1569-.3691.3675-.4661.6093-.1617.2834-.2063.6188-.1241.9346.0823.3158.2847.5869.5641.7554 1.41.94 7.81 4.14 9.13 4.29 1.8294-.4882 3.5974-1.1827 5.27-2.07.4761-.2347 1.0259-.2707 1.5285-.1.2488.0845.4786.2171.6762.3904.1976.1734.3591.3839.4753.6196s.1849.492.202.7543c.0172.2622-.0174.5253-.1019.7742-.0846.2488-.2172.4786-.3905.6762s-.3839.3591-.6196.4753c-1.52.75-5.23 2.48-7.12 2.48z"/><path d="m81.21 67.26c-.1131.0097-.2269.0097-.34 0l-14.8-2.57c-1.2472-.2174-2.3573-.9207-3.0866-1.9555-.7293-1.0349-1.0182-2.3168-.8034-3.5645l2.82-16.44c.2174-1.2472.9207-2.3573 1.9555-3.0866 1.0349-.7292 2.3168-1.0182 3.5645-.8034l16.48 2.85c1.2472.2174 2.3573.9207 3.0866 1.9555.7292 1.0349 1.0182 2.3168.8034 3.5645l-1.49 8.61c-.0377.265-.1282.5197-.2661.749s-.3205.4287-.5368.5862c-.2164.1575-.4622.27-.7228.3308s-.5308.0687-.7945.0232c-.2637-.0456-.5156-.1435-.7408-.2882-.2252-.1446-.419-.333-.5701-.5539-.151-.2209-.2562-.4699-.3093-.7322-.053-.2623-.0529-.5326.0004-.7949l1.49-8.62c.0349-.2028-.0117-.4112-.1297-.5797-.118-.1686-.2978-.2837-.5003-.3203l-16.4-2.85c-.1005-.0184-.2036-.0164-.3032.0059-.0997.0224-.1938.0646-.2768.1241-.0838.058-.1552.1321-.2101.2179-.055.0859-.0923.1817-.1099.2821l-2.85 16.4c-.0323.2024.0154.4095.1329.5774.1176.168.2958.2836.4971.3226l14.8 2.57c.5304.0451 1.0212.299 1.3644.706.3432.4069.5107.9336.4656 1.464s-.299 1.0212-.706 1.3644c-.4069.3432-.9336.5107-1.464.4656z"/><path d="m23.66 72.46c-.3682.0044-.7304-.093-1.0468-.2813-.3164-.1884-.5747-.4604-.7463-.7861-.1717-.3258-.2501-.6926-.2266-1.0601.0235-.3674.148-.7213.3597-1.0225 1.1482-1.6323 1.7644-3.5793 1.7644-5.575s-.6162-3.9427-1.7644-5.575c-.2846-.4341-.3893-.9619-.2919-1.4718.0975-.5099.3893-.9619.8139-1.2606.4246-.2986.9487-.4205 1.4615-.3398s.9741.3576 1.2865.7722c1.6238 2.3068 2.4953 5.059 2.4953 7.88s-.8715 5.5732-2.4953 7.88c-.183.2571-.4243.4673-.7042.6133-.2798.146-.5902.2237-.9058.2267z"/><path d="m31.42 76.44c-.3558-.0004-.7051-.0957-1.0118-.2761s-.5597-.4394-.733-.7502c-.1732-.3108-.2604-.6622-.2525-1.0179.0079-.3558.1105-.703.2973-1.0058 1.7934-2.9029 2.7432-6.2478 2.7432-9.66s-.9498-6.7571-2.7432-9.66c-.168-.2231-.2874-.4788-.3506-.7509-.0631-.272-.0686-.5542-.0161-.8285.0525-.2742.1619-.5344.3211-.7639.1592-.2294.3646-.423.6031-.5682.2386-.1452.5049-.2389.7818-.2749.2769-.0361.5583-.0138.826.0655.2678.0792.516.2137.7286.3947.2127.181.3851.4045.5061.6562 2.1867 3.5364 3.345 7.6121 3.345 11.77s-1.1583 8.2336-3.345 11.77c-.1849.2808-.4376.5105-.7347.6678s-.6291.2372-.9653.2322z"/><path d="m39.48 80.6c-.3501-.0021-.6934-.0961-.9958-.2724-.3023-.1764-.5531-.4291-.7272-.7328s-.2655-.6477-.265-.9978c.0006-.3501.093-.6938.268-.997 2.4559-4.2025 3.7502-8.9825 3.7502-13.85s-1.2943-9.6475-3.7502-13.85c-.1565-.2271-.2644-.4841-.3168-.7549-.0525-.2707-.0483-.5494.0121-.8185.0605-.2691.1759-.5228.3391-.7451.1632-.2224.3706-.4085.6092-.5469.2386-.1383.5033-.2258.7773-.2569.2741-.0311.5516-.0052.8151.076.2636.0813.5075.2162.7164.3962.2089.1801.3783.4014.4976.6501 2.8163 4.8165 4.3007 10.2955 4.3007 15.875s-1.4844 11.0585-4.3007 15.875c-.1816.2944-.4364.5368-.7397.7033-.3032.1665-.6444.2515-.9903.2467z"/><path d="m47.88 84.91c-.3517.0014-.6976-.09-1.0028-.265-.3051-.1749-.5587-.4273-.7352-.7315-.1765-.3043-.2696-.6498-.27-1.0015-.0003-.3518.0921-.6974.268-1.002 3.1457-5.5481 4.7993-11.8171 4.7993-18.195s-1.6536-12.6468-4.7993-18.195c-.1313-.2285-.2163-.4806-.2502-.742-.0339-.2613-.016-.5268.0527-.7813.1388-.5138.476-.9515.9375-1.2167s1.0094-.3362 1.5233-.1975c.5138.1388.9515.476 1.2167.9375 3.4894 6.1515 5.3237 13.1028 5.3237 20.175s-1.8343 14.0235-5.3237 20.175c-.1711.3127-.4226.5739-.7285.7568-.3059.1828-.6551.2806-1.0115.2832z"/></g></svg>