<svg fill="none" height="32" viewBox="0 0 40 32" width="40" xmlns="http://www.w3.org/2000/svg" xmlns:xlink="http://www.w3.org/1999/xlink"><filter id="a" color-interpolation-filters="sRGB" filterUnits="userSpaceOnUse" height="34" width="40.9" x="0" y="0"><feFlood flood-opacity="0" result="BackgroundImageFix"/><feColorMatrix in="SourceAlpha" result="hardAlpha" type="matrix" values="0 0 0 0 0 0 0 0 0 0 0 0 0 0 0 0 0 0 127 0"/><feOffset dy="4"/><feGaussianBlur stdDeviation="2"/><feComposite in2="hardAlpha" operator="out"/><feColorMatrix type="matrix" values="0 0 0 0 0 0 0 0 0 0 0 0 0 0 0 0 0 0 0.08 0"/><feBlend in2="BackgroundImageFix" mode="normal" result="effect1_dropShadow_5_102"/><feBlend in="SourceGraphic" in2="effect1_dropShadow_5_102" mode="normal" result="shape"/></filter><mask id="b" height="23" maskUnits="userSpaceOnUse" width="32" x="4" y="2"><path clip-rule="evenodd" d="m7.76113 1.99995h24.43967c1.5572 0 2.8196 1.34308 2.8196 2.99985v16.0001c0 1.6568-1.2624 3.0002-2.8196 3.0002h-24.43967c-1.55798 0-2.82039-1.3434-2.82039-3.0002v-16.0001c0-1.65677 1.26241-2.99985 2.82039-2.99985z" fill="#fff" fill-rule="evenodd"/></mask><g clip-rule="evenodd" fill-rule="evenodd" filter="url(#a)"><path d="m7.76113 1.99995h24.43967c1.5572 0 2.8196 1.34308 2.8196 2.99985v16.0001c0 1.6568-1.2624 3.0002-2.8196 3.0002h-24.43967c-1.55798 0-2.82039-1.3434-2.82039-3.0002v-16.0001c0-1.65677 1.26241-2.99985 2.82039-2.99985z" fill="#f5f2f0"/><g mask="url(#b)"><path d="m35.0211 15.0001s-8.1338 6.219-23.0314 9.0028h23.0314z" fill="#f57e30"/><path d="m23.9868 8.14829 1.0849 3.15831 1.1-3.15831h.8606l-1.7585 4.82211h-.4271l-1.7276-4.82211zm-9.9406-.07764c.3904 0 .7522.1348 1.0649.39968l.1309.12147-.4153.62821c-.2068-.26783-.4025-.38077-.6403-.38077-.3423 0-.5911.22509-.5911.52116 0 .2541.1394.3886.6165.59213.9026.38157 1.1705.71957 1.1705 1.46657 0 .9102-.5786 1.5439-1.4043 1.5439-.5535 0-.9686-.231-1.3159-.747l-.0931-.1479.5127-.5705c.1831.4082.4882.627.867.627.3542 0 .6165-.2824.6165-.6631 0-.1977-.0792-.3671-.2385-.4867-.0793-.0568-.2377-.1411-.5484-.2678-.7457-.3098-1.0017-.6415-1.0017-1.28935 0-.76938.5492-1.347 1.2696-1.347zm3.7539-.02863c.2846 0 .5312.05882.8069.19644l.1694.09218v1.07916c-.3297-.37292-.6165-.52899-.9954-.52899-.7449 0-1.3297.71213-1.3297 1.61479 0 .9521.5674 1.6215 1.367 1.6215.3198 0 .5776-.1168.8536-.4005l.1045-.1143v1.0795c-.3606.1965-.6538.2741-.9954.2741-1.2085 0-2.1483-1.0717-2.1483-2.4536 0-1.367.9644-2.46028 2.1674-2.46028zm-8.87484.10627c1.28774 0 2.18564.96662 2.18564 2.35401 0 .6921-.275 1.3611-.7394 1.805-.3473.3329-.73713.5028-1.25249.5365l-.19931.0062h-1.15939v-4.70171zm3.34504 0v4.70171h-.7941v-4.70171zm17.3724 0v.79644h-1.4582v1.04387h1.4051v.7964h-1.4051v1.269h1.4582v.796h-2.2514v-4.70171zm.5262 0h1.1776c.9153 0 1.4399.50782 1.4399 1.38818 0 .66853-.2836 1.12343-.8031 1.29763l-.1241.0352 1.2814 1.9807h-.9763l-1.0992-1.8889h-.103v1.8889h-.7932v-4.70171h1.1776zm-21.40216.79644h-.21316v3.10927h.21316c.51274 0 .83687-.1133 1.08649-.3737.27417-.2824.43977-.7333.43977-1.1847 0-.4505-.1656-.88816-.43977-1.1705-.26231-.2741-.57375-.38037-1.08649-.38037zm22.43946-.05569h-.2441v1.42386h.2314c.5072 0 .7758-.2545.7758-.72703 0-.45762-.2686-.69683-.7631-.69683z" fill="#333"/><path d="m23.3576 10.5023c0 1.3807-.9683 2.4995-2.1642 2.4995-1.1958 0-2.1642-1.1188-2.1642-2.4995 0-1.38072.9684-2.50028 2.1642-2.50028 1.1959 0 2.1642 1.11956 2.1642 2.50028z" fill="#f57e30"/></g></g></svg>