<svg width="355" height="194" viewBox="0 0 355 194" fill="none" xmlns="http://www.w3.org/2000/svg">
<rect width="355" height="194" rx="26" fill="white"/>
<path d="M63 116.137L56 75.1372L71 73.6372L75 103.137C81.9047 93.4021 84.0379 87.4444 82 75.1372L95 73.6372C100.597 86.6485 93.8821 97.0815 80.5 116.137H63Z" fill="#3D98CF"/>
<path d="M134.5 78.6372C139.604 90.1215 131.611 98.243 114.5 98.6372C114.5 98.6372 114.489 101.567 115 103.637C115.511 105.707 123.087 108.13 133 103.637L131.5 114.137C125 117.137 115.5 117.637 112 116.637C104.949 114.623 103.002 111.949 101 107.137C99.7085 102.875 99.6887 99.3494 101 92.1374C102 86.6375 103.5 83.6374 108 78.6372C116.514 69.1766 132.5 74.1374 134.5 78.6372Z" fill="#3D98CF"/>
<path d="M145 74.1374H157V77.6374C169.427 71.6226 180 71.7747 180.5 79.1374C181 86.5 175.5 116.137 175.5 116.137H161.5C161.5 116.137 166.5 90 166 87.1374C165.5 84.2747 161.004 84.6104 157 87.1374L152.5 116.137H138.5L145 74.1374Z" fill="#3D98CF"/>
<path d="M183.5 116.137L190 74.1374H203V77.6374C214.071 71.5662 218.768 71.8605 225 77.6374C236.678 71.618 249 72.2747 249 79.1374C249 86 243.5 116.137 243.5 116.137H229.5C229.5 116.137 234 88 233.5 86.1374C233 84.2747 229.199 84.5878 226 86.1374L221 116.137H206.5C206.5 116.137 211.5 88 211 86.1374C210.5 84.2747 206.77 84.5239 203 86.1374L198 116.137H183.5Z" fill="#3D98CF"/>
<path d="M254 95.6374C255 82.1374 261.273 74.6617 275.5 73.1374C289.5 71.6373 296 82.6374 293.5 95.6374C290 109.637 283.828 116.908 272 117.137C258.147 117.702 253 109.137 254 95.6374Z" fill="#3D98CF"/>
<path d="M268 94.6374C268.5 89.1373 272 83.6374 275.5 83.6374C279 83.6374 279.871 90.8726 279 95.6373C278.084 100.646 275.5 106.637 272 106.637C268.5 106.637 267.5 100.137 268 94.6374Z" fill="white"/>
<path d="M125 84.6373C125.662 86.7539 121.492 90.5408 115 91.1373C115.462 87.1362 117 83.6373 120 82.6373C123 81.6374 124.338 82.5208 125 84.6373Z" fill="white"/>
</svg>
