<svg width="55" height="56" viewBox="0 0 55 56" fill="none" xmlns="http://www.w3.org/2000/svg">
<g filter="url(#filter0_d_4_12)">
<rect x="4" y="2" width="47" height="48" rx="3" fill="black"/>
</g>
<path fill-rule="evenodd" clip-rule="evenodd" d="M38.9217 21.9834L40.7176 32.1057H40.7491L42.5438 21.9834H44.0926L41.4157 35.084C40.805 38.0845 40.1058 39.0727 38.6199 39.0727C38.5295 39.0727 38.2697 39.059 38.1241 39.0308L38.0407 39.0068V36.9526C38.1351 36.974 38.3682 36.9962 38.4882 36.9962C39.1057 36.9962 39.4744 36.5807 39.7111 35.521L39.7725 35.2158L39.9112 34.4577L37.3286 21.9834H38.9217ZM18.1172 19.8445C18.4983 19.8907 19.5972 20.0772 20.3023 21.7969L20.2371 21.8683C19.9702 22.1639 18.9999 23.3448 19.0122 25.5401C19.0262 28.5149 20.5913 29.5031 20.6053 29.5262C20.5913 29.5964 20.3582 30.9328 19.7884 32.3043C19.2872 33.5132 18.7733 34.699 17.9552 34.7221C17.1662 34.7452 16.9052 33.9435 15.9962 33.9435C15.0942 33.9435 14.7982 34.699 14.0512 34.7452C13.2622 34.7914 12.6632 33.467 12.1621 32.2581C11.14 29.8171 10.358 25.3775 11.415 22.3787C11.9301 20.8789 12.8671 19.9377 13.8752 19.9147C14.6502 19.8907 15.3622 20.7625 15.8342 20.7625C16.2992 20.7625 17.1383 19.7513 18.1172 19.8445ZM33.8593 21.8192C35.5246 21.8192 36.6324 23.2707 36.7297 25.5532L36.7366 25.8849V34.4132H35.3265V32.3582H35.2951C34.8918 33.6988 34.0038 34.545 33.047 34.545C31.6299 34.545 30.6405 33.0725 30.6405 30.8523C30.6405 28.7701 31.5002 27.5263 33.0949 27.2425L33.3675 27.2042L35.2694 27.0065V26.0611C35.2694 24.6657 34.7473 23.9068 33.815 23.9068C33.1061 23.9068 32.5739 24.4973 32.4073 25.4178L32.3734 25.6547H30.9994C31.0437 23.4345 32.2406 21.8192 33.8593 21.8192ZM27.0324 17.2803C28.9343 17.2803 30.2629 19.5656 30.2629 22.9066C30.2629 26.114 29.0149 28.3697 27.2107 28.545L26.9823 28.556H24.8718V34.4132H23.3487V17.2803H27.0324ZM35.2694 28.7972L33.5761 28.9846C32.6251 29.083 32.1275 29.7102 32.1275 30.7865C32.1275 31.8311 32.6438 32.5122 33.4561 32.5122C34.4241 32.5122 35.1708 31.5075 35.2604 30.0601L35.2694 29.7649V28.7972ZM26.6292 19.5219H24.8718V26.3246H26.6234C27.9519 26.3246 28.7071 25.0832 28.7071 22.9177C28.7071 20.7531 27.9519 19.5219 26.6292 19.5219ZM18.1242 15.0909C18.1953 16.2528 17.9202 17.3924 17.5042 18.2411C17.0812 19.0659 16.4052 19.717 15.7282 19.6238C15.6442 18.5081 15.9752 17.3222 16.3621 16.5899C16.7851 15.742 17.5252 15.1371 18.1242 15.0909Z" fill="#FCFCFC"/>
<defs>
<filter id="filter0_d_4_12" x="0" y="0" width="55" height="56" filterUnits="userSpaceOnUse" color-interpolation-filters="sRGB">
<feFlood flood-opacity="0" result="BackgroundImageFix"/>
<feColorMatrix in="SourceAlpha" type="matrix" values="0 0 0 0 0 0 0 0 0 0 0 0 0 0 0 0 0 0 127 0" result="hardAlpha"/>
<feOffset dy="2"/>
<feGaussianBlur stdDeviation="2"/>
<feComposite in2="hardAlpha" operator="out"/>
<feColorMatrix type="matrix" values="0 0 0 0 0 0 0 0 0 0 0 0 0 0 0 0 0 0 0.56 0"/>
<feBlend mode="normal" in2="BackgroundImageFix" result="effect1_dropShadow_4_12"/>
<feBlend mode="normal" in="SourceGraphic" in2="effect1_dropShadow_4_12" result="shape"/>
</filter>
</defs>
</svg>
