<svg width="64" height="54" viewBox="0 0 64 54" fill="none" xmlns="http://www.w3.org/2000/svg">
<g filter="url(#filter0_d_1_2)">
<path fill-rule="evenodd" clip-rule="evenodd" d="M9.57202 2.08016H54.1427C56.9826 2.08016 59.2848 4.87375 59.2848 8.31984V41.5999C59.2848 45.0461 56.9826 47.8405 54.1427 47.8405H9.57202C6.73066 47.8405 4.42846 45.0461 4.42846 41.5999V8.31984C4.42846 4.87375 6.73066 2.08016 9.57202 2.08016Z" fill="#121212"/>
<path fill-rule="evenodd" clip-rule="evenodd" d="M46.0162 21.1313L48.2433 30.7812H48.2823L50.508 21.1313H52.4287L49.109 33.6205C48.3517 36.4809 47.4846 37.423 45.6419 37.423C45.5298 37.423 45.2077 37.41 45.0271 37.383L44.9236 37.3602V35.4019C45.0407 35.4223 45.3298 35.4435 45.4786 35.4435C46.2443 35.4435 46.7016 35.0473 46.9951 34.037L47.0713 33.7461L47.2432 33.0234L44.0406 21.1313H46.0162ZM20.2161 19.0921C20.6886 19.1362 22.0515 19.314 22.9259 20.9534L22.845 21.0215C22.514 21.3033 21.3107 22.429 21.326 24.5219C21.3434 27.3579 23.2843 28.3 23.3016 28.322C23.2843 28.3889 22.9952 29.6629 22.2885 30.9704C21.6671 32.1229 21.0297 33.2534 20.0152 33.2755C19.0368 33.2975 18.7131 32.5332 17.5858 32.5332C16.4672 32.5332 16.1001 33.2534 15.1737 33.2975C14.1953 33.3415 13.4524 32.0789 12.831 30.9264C11.5635 28.5993 10.5938 24.3669 11.9046 21.5081C12.5434 20.0782 13.7053 19.181 14.9555 19.159C15.9165 19.1362 16.7996 19.9673 17.3849 19.9673C17.9615 19.9673 19.0021 19.0032 20.2161 19.0921ZM39.7381 20.9746C41.8033 20.9746 43.1771 22.3585 43.2978 24.5344L43.3064 24.8506V32.981H41.5577V31.0218H41.5187C41.0186 32.2999 39.9174 33.1066 38.7309 33.1066C36.9734 33.1066 35.7465 31.7029 35.7465 29.5863C35.7465 27.6012 36.8127 26.4154 38.7903 26.1449L39.1283 26.1083L41.4869 25.9199V25.0186C41.4869 23.6883 40.8394 22.9648 39.6832 22.9648C38.8041 22.9648 38.1442 23.5278 37.9376 24.4054L37.8955 24.6312H36.1916C36.2465 22.5146 37.7307 20.9746 39.7381 20.9746ZM31.2721 16.6476C33.6306 16.6476 35.2782 18.8262 35.2782 22.0113C35.2782 25.069 33.7305 27.2195 31.4931 27.3866L31.2099 27.3971H28.5926V32.981H26.7037V16.6476H31.2721ZM41.4869 27.6271L39.387 27.8057C38.2077 27.8995 37.5906 28.4974 37.5906 29.5235C37.5906 30.5194 38.2308 31.1686 39.2382 31.1686C40.4386 31.1686 41.3647 30.2109 41.4757 28.831L41.4869 28.5496V27.6271ZM30.772 18.7846H28.5926V25.2699H30.7648C32.4124 25.2699 33.3488 24.0864 33.3488 22.0219C33.3488 19.9583 32.4124 18.7846 30.772 18.7846ZM20.2248 14.5604C20.3129 15.668 19.9718 16.7545 19.4559 17.5636C18.9313 18.3499 18.093 18.9706 17.2534 18.8817C17.1493 17.8181 17.5598 16.6876 18.0396 15.9894C18.5642 15.1811 19.4819 14.6044 20.2248 14.5604Z" fill="#FCFCFC"/>
</g>
<defs>
<filter id="filter0_d_1_2" x="-3" y="-2" width="68" height="60" filterUnits="userSpaceOnUse" color-interpolation-filters="sRGB">
<feFlood flood-opacity="0" result="BackgroundImageFix"/>
<feColorMatrix in="SourceAlpha" type="matrix" values="0 0 0 0 0 0 0 0 0 0 0 0 0 0 0 0 0 0 127 0" result="hardAlpha"/>
<feOffset dy="2"/>
<feGaussianBlur stdDeviation="2"/>
<feComposite in2="hardAlpha" operator="out"/>
<feColorMatrix type="matrix" values="0 0 0 0 0 0 0 0 0 0 0 0 0 0 0 0 0 0 0.38 0"/>
<feBlend mode="normal" in2="BackgroundImageFix" result="effect1_dropShadow_1_2"/>
<feBlend mode="normal" in="SourceGraphic" in2="effect1_dropShadow_1_2" result="shape"/>
</filter>
</defs>
</svg>
