<?xml version="1.0" encoding="UTF-8"?>
<svg width="32px" height="22px" viewBox="0 0 32 22" version="1.1" xmlns="http://www.w3.org/2000/svg" xmlns:xlink="http://www.w3.org/1999/xlink">
    <!-- Generator: Sketch 57.1 (83088) - https://sketch.com -->
    <title>Apple Pay</title>
    <desc>Created with Sketch.</desc>
    <g id="Credit-Cards" stroke="none" stroke-width="1" fill="none" fill-rule="evenodd">
        <g transform="translate(-229.000000, -244.000000)" id="Apple-Pay">
            <g transform="translate(227.000000, 243.000000)">
                <path d="M5.000345,1.000075 L30.99992,1.000075 C32.65654,1.000075 33.99949,2.34315 33.99949,3.999925 L33.99949,19.999975 C33.99949,21.656775 32.65654,23.00025 30.99992,23.00025 L5.000345,23.00025 C3.342885,23.00025 1.999935,21.656775 1.999935,19.999975 L1.999935,3.999925 C1.999935,2.34315 3.342885,1.000075 5.000345,1.000075 Z" id="Card" fill="#121212"></path>
                <path d="M26.259468,10.159259 L27.558612,14.798647 L27.581376,14.798647 L28.87968,10.159259 L30.000072,10.159259 L28.063592,16.163686 C27.621836,17.538917 27.116016,17.991837 26.041124,17.991837 C25.975716,17.991837 25.7878069,17.9855637 25.6824588,17.9726178 L25.622132,17.961651 L25.622132,17.020126 C25.690424,17.029928 25.85904,17.04012 25.945868,17.04012 C26.392545,17.04012 26.6592816,16.8496668 26.830513,16.3639512 L26.874908,16.224084 L26.975232,15.876646 L25.107016,10.159259 L26.259468,10.159259 Z M11.209384,9.178903 C11.485044,9.20008 12.280048,9.285568 12.790096,10.073771 L12.7428958,10.1064747 C12.5498226,10.2419777 11.8479125,10.7831925 11.856856,11.789381 C11.866964,13.152847 12.999172,13.605767 13.00928,13.616349 C12.999172,13.648511 12.830556,14.261032 12.418312,14.889634 C12.055796,15.44372 11.684012,15.987224 11.092204,15.997819 C10.521452,16.008401 10.33262,15.640969 9.67504,15.640969 C9.022528,15.640969 8.808384,15.987224 8.267984,16.008401 C7.697232,16.029578 7.263904,15.422543 6.901416,14.868457 C6.162048,13.749677 5.596364,11.714878 6.361016,10.340427 C6.73364,9.653 7.411436,9.221647 8.140696,9.211065 C8.701312,9.20008 9.216428,9.599674 9.55786,9.599674 C9.894224,9.599674 10.501208,9.136172 11.209384,9.178903 Z M22.597264,10.083963 C23.8019424,10.083963 24.6033463,10.7492634 24.6737122,11.7954008 L24.678756,11.947409 L24.678756,15.856249 L23.65866,15.856249 L23.65866,14.914334 L23.635924,14.914334 C23.34422,15.528818 22.701816,15.916647 22.009684,15.916647 C20.98452,15.916647 20.268784,15.241765 20.268784,14.224164 C20.268784,13.2697888 20.8907312,12.6997324 22.0443235,12.5696823 L22.241496,12.552091 L23.61736,12.461507 L23.61736,12.028191 C23.61736,11.388617 23.239668,11.040789 22.565232,11.040789 C22.0524185,11.040789 21.667436,11.3114315 21.5469359,11.7333617 L21.5224,11.841927 L20.528428,11.841927 C20.56046,10.824326 21.426276,10.083963 22.597264,10.083963 Z M17.658708,8.003664 C19.034544,8.003664 19.995616,9.051074 19.995616,10.58237 C19.995616,12.0524266 19.0928093,13.0862743 17.787652,13.1666301 L17.622448,13.171671 L16.095692,13.171671 L16.095692,15.856249 L14.993836,15.856249 L14.993836,8.003664 L17.658708,8.003664 Z M23.61736,13.282249 L22.392416,13.368127 C21.704484,13.413224 21.344516,13.700667 21.344516,14.193978 C21.344516,14.672781 21.71798,14.984924 22.305588,14.984924 C23.005833,14.984924 23.5460432,14.524465 23.6108342,13.8610663 L23.61736,13.725757 L23.61736,13.282249 Z M17.367004,9.031067 L16.095692,9.031067 L16.095692,12.148974 L17.362776,12.148974 C18.323876,12.148974 18.870156,11.579977 18.870156,10.587466 C18.870156,9.595358 18.323876,9.031067 17.367004,9.031067 Z M11.214452,7.000181 C11.26586,7.532713 11.066892,8.05504 10.765948,8.444039 C10.459908,8.822066 9.970944,9.120481 9.48114,9.077737 C9.420436,8.566382 9.659864,8.022878 9.939752,7.687218 C10.245764,7.298609 10.781124,7.021358 11.214452,7.000181 Z" id="Logo" fill="#FCFCFC"></path>
            </g>
        </g>
    </g>
</svg>