<svg width="156" height="128" xmlns="http://www.w3.org/2000/svg" xmlns:xlink="http://www.w3.org/1999/xlink">
 <g>
  <title>background</title>
  <rect fill="none" id="canvas_background" height="402" width="582" y="-1" x="-1"/>
 </g>
 <g>
  <title>Layer 1</title>
  <defs>
   <path id="SVGID_2_" d="m14,30c0,-3.299999 2.700001,-6 6,-6l116,0c3.300003,0 6,2.700001 6,6l0,68c0,3.300003 -2.699997,6 -6,6l-116,0c-3.299999,0 -6,-2.699997 -6,-6l0,-68z"/>
  </defs>
  <clipPath id="SVGID_3_">
   <use id="svg_5" xlink:href="#SVGID_2_"/>
  </clipPath>
  <defs>
   <path id="SVGID_4_" d="m55.299999,91.800003l0,-3.800003c0,-1.400002 -0.799999,-2.300003 -2.299999,-2.400002c-0.799999,0 -1.5,0.200005 -2.099998,1.099998c-0.400002,-0.699997 -1.100002,-1.099998 -2,-1.099998c-0.600002,0 -1.300003,0.200005 -1.800003,0.900002l0,-0.699997l-1.199997,0l0,6l1.199997,0l0,-3.400002c0,-1 0.600002,-1.599998 1.5,-1.599998s1.300003,0.599998 1.300003,1.599998l0,3.400002l1.199997,0l0,-3.400002c0,-1 0.600002,-1.599998 1.5,-1.599998s1.400002,0.599998 1.400002,1.599998l0,3.400002l1.299999,0zm19.399998,-6l-2.199997,0l0,-1.800003l-1.199997,0l0,1.800003l-1.300003,0l0,1.099998l1.300003,0l0,2.799995c0,1.400002 0.5,2.200005 2,2.200005c0.599998,0 1.199997,-0.200005 1.599998,-0.5l-0.400002,-1.099998c-0.400002,0.199997 -0.800003,0.299995 -1.099998,0.299995c-0.599998,0 -0.900002,-0.400002 -0.900002,-1l0,-2.799995l2.199997,0l0,-1zm11.100006,-0.100006c-0.700005,0 -1.300003,0.300003 -1.600006,0.900002l0,-0.699997l-1.199997,0l0,6l1.199997,0l0,-3.400002c0,-1 0.5,-1.599998 1.300003,-1.599998c0.300003,0 0.5,0 0.800003,0.199997l0.399994,-1.099998c-0.299995,-0.300003 -0.699997,-0.300003 -0.899994,-0.300003zm-16.800003,0.600006c-0.599998,-0.400002 -1.5,-0.600006 -2.400002,-0.600006c-1.5,0 -2.400002,0.700005 -2.400002,1.900002c0,1 0.700005,1.599998 2,1.700005l0.600006,0.099998c0.699997,0.099998 1.099998,0.299995 1.099998,0.699997c0,0.5 -0.5,0.800003 -1.400002,0.800003s-1.5,-0.300003 -2,-0.599998l-0.599998,0.899994c0.900002,0.600006 1.900002,0.800003 2.599998,0.800003c1.699997,0 2.699997,-0.800003 2.699997,-1.900002c0,-1 -0.699997,-1.599998 -2,-1.799995l-0.599998,-0.100006c-0.599998,-0.099998 -1.099998,-0.199997 -1.099998,-0.599998s0.5,-0.699997 1.199997,-0.699997c0.800003,0 1.5,0.299995 1.900002,0.5l0.400002,-1.099998zm18.099998,2.5c0,1.799995 1.200005,3.099998 3.099998,3.099998c0.900002,0 1.5,-0.200005 2.100006,-0.700005l-0.600006,-0.899994c-0.5,0.299995 -1,0.5 -1.599998,0.5c-1,0 -1.799995,-0.800003 -1.799995,-2s0.799995,-2 1.799995,-2c0.599998,0 1.099998,0.199997 1.599998,0.5l0.600006,-0.900002c-0.600006,-0.5 -1.200005,-0.700005 -2.100006,-0.700005c-1.899994,0 -3.099998,1.300003 -3.099998,3.100006zm-8.400002,-3.100006c-1.699997,0 -2.899994,1.300003 -2.899994,3.100006c0,1.899994 1.199997,3.099998 3,3.099998c0.899994,0 1.699997,-0.200005 2.399994,-0.800003l-0.599998,-0.900002c-0.5,0.400002 -1.099998,0.600006 -1.699997,0.600006c-0.800003,0 -1.700005,-0.5 -1.800003,-1.5l4.5,0c0,-0.200005 0,-0.300003 0,-0.5c-0.099998,-1.900002 -1.199997,-3.100006 -2.900002,-3.100006zm0,1.100006c0.900002,0 1.5,0.599998 1.600006,1.5l-3.200005,0c0.099998,-0.900002 0.700005,-1.5 1.599998,-1.5zm-16.099998,2l0,-3l-1.199997,0l0,0.699997c-0.400002,-0.5 -1.100002,-0.900002 -1.900002,-0.900002c-1.700001,0 -2.900002,1.300003 -2.900002,3.099998c0,1.800003 1.300003,3.100006 2.900002,3.100006c0.799999,0 1.5,-0.300003 1.900002,-0.900002l0,0.699997l1.199997,0l0,-2.799995zm-4.899998,0c0,-1.100006 0.700001,-2 1.899998,-2c1.100002,0 1.800003,0.899994 1.800003,2c0,1.199997 -0.700001,2 -1.800003,2c-1.099998,0 -1.899998,-0.900002 -1.899998,-2zm46.100002,-3.100006c-0.700005,0 -1.300003,0.300003 -1.600006,0.900002l0,-0.699997l-1.199997,0l0,6l1.199997,0l0,-3.400002c0,-1 0.5,-1.599998 1.300003,-1.599998c0.300003,0 0.5,0 0.800003,0.199997l0.399994,-1.099998c-0.299995,-0.300003 -0.699997,-0.300003 -0.899994,-0.300003zm9.599998,5.200005c0.099998,0 0.199997,0 0.199997,0c0.099998,0 0.099998,0.099998 0.200005,0.099998c0.099998,0.099998 0.099998,0.099998 0.099998,0.199997s0,0.100006 0,0.200005s0,0.199997 0,0.199997c0,0.099998 -0.099998,0.099998 -0.099998,0.200005c-0.100006,0.099998 -0.100006,0.099998 -0.200005,0.099998s-0.199997,0 -0.199997,0c-0.099998,0 -0.200005,0 -0.200005,0c-0.099998,0 -0.099998,-0.099998 -0.199997,-0.099998c-0.099998,-0.100006 -0.099998,-0.100006 -0.099998,-0.200005s0,-0.099998 0,-0.199997s0,-0.200005 0,-0.200005c0,-0.099998 0.099998,-0.099998 0.099998,-0.199997c0.099998,-0.099998 0.099998,-0.099998 0.199997,-0.099998c0,0 0.100006,0 0.200005,0zm0,1.099998c0.099998,0 0.099998,0 0.199997,0s0.099998,-0.099998 0.099998,-0.099998l0.100006,-0.099998c0,-0.100006 0,-0.100006 0,-0.200005s0,-0.099998 0,-0.199997s-0.100006,-0.099998 -0.100006,-0.099998l-0.099998,-0.100006c-0.099998,0 -0.099998,0 -0.199997,0s-0.099998,0 -0.200005,0s-0.099998,0.100006 -0.099998,0.100006l-0.099998,0.099998c0,0.099998 0,0.099998 0,0.199997s0,0.099998 0,0.200005s0.099998,0.099998 0.099998,0.099998l0.099998,0.099998c0.100006,0 0.100006,0 0.200005,0zm0,-0.800003c0.099998,0 0.099998,0 0.199997,0l0.099998,0.100006l0,0.099998c0,0 -0.099998,0 -0.099998,0.099998l0.200005,0.199997l-0.100006,0l-0.199997,-0.199997l-0.099998,0l0,0.199997l-0.099998,0l0,-0.599998l0.099998,0l0,0.099998zm-0.099998,0.100006l0,0l0,0l0.199997,0.099998c0,0 0,0 0,-0.099998c0,0 0,0 0,-0.100006c0,0 0,0 -0.199997,0.100006l0,0l0,0zm-14.100006,-2.5l0,-3l-1.199997,0l0,0.699997c-0.400002,-0.5 -1.099998,-0.900002 -1.900002,-0.900002c-1.699997,0 -2.900002,1.300003 -2.900002,3.099998c0,1.800003 1.300003,3.100006 2.900002,3.100006c0.800003,0 1.5,-0.300003 1.900002,-0.900002l0,0.699997l1.199997,0l0,-2.799995zm-4.799995,0c0,-1.100006 0.699997,-2 1.900002,-2c1.099998,0 1.799995,0.899994 1.799995,2c0,1.199997 -0.699997,2 -1.799995,2c-1.200005,0 -1.900002,-0.900002 -1.900002,-2zm16.799995,0l0,-5.400002l-1.199997,0l0,3.099998c-0.400002,-0.5 -1.099998,-0.900002 -1.900002,-0.900002c-1.699997,0 -2.900002,1.300003 -2.900002,3.099998c0,1.800003 1.300003,3.100006 2.900002,3.100006c0.800003,0 1.5,-0.300003 1.900002,-0.900002l0,0.699997l1.199997,0l0,-2.799995zm-4.799995,0c0,-1.100006 0.699997,-2 1.900002,-2c1.099998,0 1.799995,0.899994 1.799995,2c0,1.199997 -0.699997,2 -1.799995,2c-1.200005,0 -1.900002,-0.900002 -1.900002,-2z"/>
  </defs>
  <clipPath id="SVGID_5_">
   <use id="svg_9" xlink:href="#SVGID_4_"/>
  </clipPath>
  <defs>
   <rect y="40.5" x="67.6" width="21.6" id="SVGID_6_" height="35.3"/>
  </defs>
  <clipPath id="SVGID_7_">
   <use id="svg_13" xlink:href="#SVGID_6_"/>
  </clipPath>
  <rect fill="#ff5f00" clip-path="url(#SVGID_7_)" id="svg_14" y="35.5" x="62.6" width="31.6" height="45.3" class="st2"/>
  <defs>
   <path id="SVGID_8_" d="m69.900002,58.099998c0,-7.199997 3.400002,-13.5 8.599998,-17.599998c-3.800003,-3 -8.599998,-4.799999 -13.900002,-4.799999c-12.399998,0 -22.399998,10 -22.399998,22.399998s10,22.400002 22.399998,22.400002c5.200005,0 10,-1.800003 13.900002,-4.800003c-5.300003,-4.099998 -8.599998,-10.5 -8.599998,-17.599998"/>
  </defs>
  <clipPath id="SVGID_9_">
   <use id="svg_17" xlink:href="#SVGID_8_"/>
  </clipPath>
  <rect fill="#eb001b" clip-path="url(#SVGID_9_)" id="svg_18" y="30.7" x="37.1" width="46.3" height="54.9" class="st3"/>
  <defs>
   <path id="SVGID_10_" d="m112.599998,72l0,-0.699997l0.300003,0l0,-0.100006l-0.700005,0l0,0.100006l0.300003,0l0.099998,0.699997l0,0zm1.400002,0l0,-0.900002l-0.199997,0l-0.300003,0.599998l-0.300003,-0.599998l-0.199997,0l0,0.900002l0.199997,0l0,-0.699997l0.200005,0.599998l0.199997,0l0.200005,-0.599998l0,0.699997l0.199997,0z"/>
  </defs>
  <clipPath id="SVGID_11_">
   <use id="svg_21" xlink:href="#SVGID_10_"/>
  </clipPath>
  <rect fill="#f79e1b" clip-path="url(#SVGID_11_)" id="svg_22" y="66.1" x="107.1" width="11.9" height="10.9" class="st4"/>
  <defs>
   <path id="SVGID_12_" d="m114.699997,58.099998c0,12.400002 -10,22.400002 -22.399994,22.400002c-5.200005,0 -10,-1.800003 -13.900002,-4.800003c5.199997,-4.099998 8.599998,-10.5 8.599998,-17.599998c0,-7.199997 -3.400002,-13.5 -8.599998,-17.599998c3.799995,-3 8.599998,-4.799999 13.900002,-4.799999c12.399994,0 22.399994,10 22.399994,22.399998"/>
  </defs>
  <clipPath id="SVGID_13_">
   <use id="svg_25" xlink:href="#SVGID_12_"/>
  </clipPath>
  <rect fill="#f79e1b" clip-path="url(#SVGID_13_)" id="svg_26" y="30.7" x="73.4" width="46.3" height="54.9" class="st5"/>
 </g>
</svg>