<svg width="512" height="512" viewBox="0 0 512 512" fill="none" xmlns="http://www.w3.org/2000/svg">
<path fill-rule="evenodd" clip-rule="evenodd" d="M185.984 36.736C186.758 36.735 187.514 36.969 188.152 37.408L249.112 80.064C251.129 81.474 253.531 82.23 255.992 82.23C258.453 82.23 260.855 81.474 262.872 80.064L323.816 37.416C324.296 37.077 324.848 36.855 325.429 36.766C326.01 36.678 326.604 36.725 327.163 36.905C327.722 37.085 328.232 37.393 328.652 37.803C329.072 38.214 329.391 38.717 329.584 39.272L353.824 109.592C354.625 111.919 356.122 113.943 358.113 115.39C360.104 116.837 362.491 117.637 364.952 117.68L439.312 119.04C439.897 119.052 440.471 119.199 440.99 119.47C441.508 119.741 441.957 120.128 442.3 120.602C442.644 121.076 442.873 121.623 442.969 122.2C443.066 122.777 443.027 123.368 442.856 123.928L421.216 195.08C420.502 197.431 420.526 199.944 421.286 202.28C422.045 204.616 423.504 206.663 425.464 208.144L484.776 252.976L484.784 252.984C485.251 253.335 485.63 253.79 485.891 254.313C486.152 254.835 486.288 255.412 486.288 255.996C486.288 256.58 486.152 257.157 485.891 257.679C485.63 258.202 485.251 258.657 484.784 259.008L425.464 303.84C423.502 305.32 422.044 307.367 421.285 309.704C420.527 312.041 420.505 314.554 421.224 316.904L442.872 388.064C443.038 388.623 443.073 389.213 442.974 389.788C442.875 390.363 442.645 390.907 442.301 391.379C441.958 391.85 441.51 392.236 440.993 392.506C440.476 392.776 439.903 392.923 439.32 392.936L364.96 394.296C362.5 394.342 360.113 395.142 358.123 396.588C356.133 398.035 354.635 400.058 353.832 402.384L329.592 472.696C329.402 473.25 329.086 473.753 328.67 474.165C328.254 474.577 327.748 474.887 327.192 475.072C326.631 475.243 326.039 475.287 325.459 475.199C324.879 475.112 324.326 474.896 323.84 474.568L262.88 431.92C260.863 430.51 258.461 429.754 256 429.754C253.539 429.754 251.137 430.51 249.12 431.92L188.152 474.576C187.673 474.915 187.122 475.137 186.542 475.225C185.963 475.313 185.37 475.265 184.813 475.084C184.255 474.903 183.747 474.594 183.33 474.183C182.912 473.771 182.597 473.267 182.408 472.712L158.168 402.392C156.528 397.632 152.08 394.4 147.04 394.304L72.688 392.944C72.103 392.933 71.529 392.787 71.01 392.516C70.491 392.246 70.042 391.86 69.697 391.387C69.352 390.915 69.121 390.369 69.023 389.792C68.924 389.216 68.96 388.624 69.128 388.064L90.776 316.912C91.49 314.561 91.466 312.048 90.706 309.712C89.947 307.376 88.488 305.329 86.528 303.848L27.208 259.016C26.745 258.661 26.37 258.205 26.112 257.682C25.854 257.159 25.72 256.583 25.72 256C25.72 255.417 25.854 254.841 26.112 254.318C26.37 253.795 26.745 253.339 27.208 252.984L86.528 208.152C88.488 206.671 89.947 204.624 90.706 202.288C91.466 199.952 91.49 197.439 90.776 195.088L69.128 123.936C68.96 123.376 68.924 122.785 69.023 122.208C69.121 121.632 69.351 121.086 69.695 120.613C70.038 120.14 70.486 119.753 71.004 119.481C71.522 119.21 72.096 119.062 72.68 119.048L147.04 117.688C152.08 117.6 156.528 114.368 158.168 109.6L182.416 39.28C182.673 38.538 183.155 37.895 183.794 37.439C184.434 36.983 185.199 36.738 185.984 36.736Z" fill="white"/>
<path d="M326.008 499.256C320.301 499.265 314.732 497.508 310.064 494.224L256 456.4L201.92 494.232C198.389 496.682 194.342 498.288 190.091 498.923C185.841 499.558 181.501 499.207 177.408 497.896C173.325 496.556 169.606 494.293 166.539 491.282C163.473 488.271 161.142 484.594 159.728 480.536L138.224 418.136L72.256 416.936C67.963 416.843 63.749 415.762 59.941 413.779C56.133 411.795 52.833 408.961 50.296 405.496C47.779 402.013 46.099 397.997 45.386 393.76C44.673 389.523 44.946 385.179 46.184 381.064L65.392 317.928L12.752 278.16C5.84 272.944 1.72 264.656 1.72 255.992C1.72 247.328 5.848 239.04 12.76 233.824L65.392 194.048L46.184 130.912C43.664 122.632 45.2 113.496 50.296 106.488C55.392 99.48 63.6 95.2 72.264 95.048L138.232 93.84L159.744 31.456C161.155 27.394 163.485 23.713 166.553 20.7C169.622 17.687 173.345 15.424 177.432 14.088C181.523 12.772 185.862 12.418 190.113 13.053C194.363 13.689 198.409 15.297 201.936 17.752L256 55.592L310.072 17.752C313.605 15.299 317.655 13.693 321.909 13.059C326.163 12.425 330.506 12.78 334.6 14.096C338.682 15.436 342.4 17.699 345.465 20.71C348.53 23.721 350.86 27.398 352.272 31.456L373.776 93.848L439.744 95.056C444.038 95.147 448.253 96.226 452.062 98.208C455.872 100.191 459.174 103.024 461.712 106.488C464.231 109.971 465.912 113.988 466.624 118.228C467.336 122.467 467.059 126.813 465.816 130.928L446.624 194.048L499.24 233.816C506.152 239.032 510.288 247.32 510.288 255.984C510.288 264.648 506.16 272.936 499.24 278.152L446.616 317.928L465.816 381.064C467.058 385.177 467.333 389.521 466.62 393.758C465.907 397.994 464.224 402.009 461.704 405.488C459.17 408.954 455.872 411.79 452.065 413.776C448.258 415.761 444.045 416.843 439.752 416.936L373.776 418.136L352.272 480.528C350.857 484.586 348.526 488.264 345.46 491.276C342.393 494.288 338.675 496.553 334.592 497.896C331.808 498.8 328.928 499.256 326.008 499.256ZM185.984 36.736C185.199 36.738 184.434 36.983 183.794 37.439C183.155 37.895 182.673 38.538 182.416 39.28L158.168 109.6C156.528 114.368 152.08 117.6 147.04 117.688L72.68 119.048C72.096 119.062 71.522 119.21 71.004 119.481C70.486 119.753 70.038 120.14 69.695 120.613C69.351 121.086 69.121 121.632 69.023 122.208C68.924 122.785 68.96 123.376 69.128 123.936L90.776 195.088C91.49 197.439 91.466 199.952 90.706 202.288C89.947 204.624 88.488 206.671 86.528 208.152L27.208 252.984C26.745 253.339 26.37 253.795 26.112 254.318C25.854 254.841 25.72 255.417 25.72 256C25.72 256.583 25.854 257.159 26.112 257.682C26.37 258.205 26.745 258.661 27.208 259.016L86.528 303.848C88.488 305.329 89.947 307.376 90.706 309.712C91.466 312.048 91.49 314.561 90.776 316.912L69.128 388.064C68.96 388.624 68.924 389.216 69.023 389.792C69.121 390.369 69.352 390.915 69.697 391.387C70.042 391.86 70.491 392.246 71.01 392.516C71.529 392.787 72.103 392.933 72.688 392.944L147.04 394.304C152.08 394.4 156.528 397.632 158.168 402.392L182.408 472.712C182.597 473.267 182.912 473.771 183.33 474.183C183.747 474.594 184.255 474.903 184.813 475.084C185.37 475.265 185.963 475.313 186.542 475.225C187.122 475.137 187.673 474.915 188.152 474.576L249.12 431.92C251.137 430.51 253.539 429.754 256 429.754C258.461 429.754 260.863 430.51 262.88 431.92L323.84 474.568C324.326 474.896 324.879 475.112 325.459 475.199C326.039 475.287 326.631 475.243 327.192 475.072C327.748 474.887 328.254 474.577 328.67 474.165C329.086 473.753 329.402 473.25 329.592 472.696L353.832 402.384C354.635 400.058 356.133 398.035 358.123 396.588C360.113 395.142 362.5 394.342 364.96 394.296L439.32 392.936C439.903 392.923 440.476 392.776 440.993 392.506C441.51 392.236 441.958 391.85 442.301 391.379C442.645 390.907 442.875 390.363 442.974 389.788C443.073 389.213 443.038 388.623 442.872 388.064L421.224 316.904C420.505 314.554 420.527 312.041 421.285 309.704C422.044 307.367 423.502 305.32 425.464 303.84L484.784 259.008C485.251 258.657 485.63 258.202 485.891 257.679C486.152 257.157 486.288 256.58 486.288 255.996C486.288 255.412 486.152 254.835 485.891 254.313C485.63 253.79 485.251 253.335 484.784 252.984L484.776 252.976L425.464 208.144C423.504 206.663 422.045 204.616 421.286 202.28C420.526 199.944 420.502 197.431 421.216 195.08L442.856 123.928C443.027 123.368 443.066 122.777 442.969 122.2C442.873 121.623 442.644 121.076 442.3 120.602C441.957 120.128 441.508 119.741 440.99 119.47C440.471 119.199 439.897 119.052 439.312 119.04L364.952 117.68C362.491 117.637 360.104 116.837 358.113 115.39C356.122 113.943 354.625 111.919 353.824 109.592L329.584 39.272C329.391 38.717 329.072 38.214 328.652 37.803C328.232 37.393 327.722 37.085 327.163 36.905C326.604 36.725 326.01 36.678 325.429 36.766C324.848 36.855 324.296 37.077 323.816 37.416L262.872 80.064C260.855 81.474 258.453 82.23 255.992 82.23C253.531 82.23 251.129 81.474 249.112 80.064L188.152 37.408C187.514 36.969 186.758 36.735 185.984 36.736Z" fill="black"/>
<path d="M326.008 499.256C320.301 499.265 314.732 497.508 310.064 494.224L256 456.4L201.92 494.232C198.389 496.682 194.342 498.288 190.091 498.923C185.841 499.558 181.501 499.207 177.408 497.896C173.325 496.556 169.606 494.293 166.539 491.282C163.473 488.271 161.142 484.594 159.728 480.536L138.224 418.136L72.256 416.936C67.963 416.843 63.749 415.762 59.941 413.779C56.133 411.795 52.833 408.961 50.296 405.496C47.779 402.013 46.099 397.997 45.386 393.76C44.673 389.523 44.946 385.179 46.184 381.064L65.392 317.928L12.752 278.16C5.84 272.944 1.72 264.656 1.72 255.992C1.72 247.328 5.848 239.04 12.76 233.824L65.392 194.048L46.184 130.912C43.664 122.632 45.2 113.496 50.296 106.488C55.392 99.48 63.6 95.2 72.264 95.048L138.232 93.84L159.744 31.456C161.155 27.394 163.485 23.713 166.553 20.7C169.622 17.687 173.345 15.424 177.432 14.088C181.523 12.772 185.862 12.418 190.113 13.053C194.363 13.689 198.409 15.297 201.936 17.752L256 55.592L310.072 17.752C313.605 15.299 317.655 13.693 321.909 13.059C326.163 12.425 330.506 12.78 334.6 14.096C338.682 15.436 342.4 17.699 345.465 20.71C348.53 23.721 350.86 27.398 352.272 31.456L373.776 93.848L439.744 95.056C444.038 95.147 448.253 96.226 452.062 98.208C455.872 100.191 459.174 103.024 461.712 106.488C464.231 109.971 465.912 113.988 466.624 118.228C467.336 122.467 467.059 126.813 465.816 130.928L446.624 194.048L499.24 233.816C506.152 239.032 510.288 247.32 510.288 255.984C510.288 264.648 506.16 272.936 499.24 278.152L446.616 317.928L465.816 381.064C467.058 385.177 467.333 389.521 466.62 393.758C465.907 397.994 464.224 402.009 461.704 405.488C459.17 408.954 455.872 411.79 452.065 413.776C448.258 415.761 444.045 416.843 439.752 416.936L373.776 418.136L352.272 480.528C350.857 484.586 348.526 488.264 345.46 491.276C342.393 494.288 338.675 496.553 334.592 497.896C331.808 498.8 328.928 499.256 326.008 499.256ZM185.984 36.736C185.199 36.738 184.434 36.983 183.794 37.439C183.155 37.895 182.673 38.538 182.416 39.28L158.168 109.6C156.528 114.368 152.08 117.6 147.04 117.688L72.68 119.048C72.096 119.062 71.522 119.21 71.004 119.481C70.486 119.753 70.038 120.14 69.695 120.613C69.351 121.086 69.121 121.632 69.023 122.208C68.924 122.785 68.96 123.376 69.128 123.936L90.776 195.088C91.49 197.439 91.466 199.952 90.706 202.288C89.947 204.624 88.488 206.671 86.528 208.152L27.208 252.984C26.745 253.339 26.37 253.795 26.112 254.318C25.854 254.841 25.72 255.417 25.72 256C25.72 256.583 25.854 257.159 26.112 257.682C26.37 258.205 26.745 258.661 27.208 259.016L86.528 303.848C88.488 305.329 89.947 307.376 90.706 309.712C91.466 312.048 91.49 314.561 90.776 316.912L69.128 388.064C68.96 388.624 68.924 389.216 69.023 389.792C69.121 390.369 69.352 390.915 69.697 391.387C70.042 391.86 70.491 392.246 71.01 392.516C71.529 392.787 72.103 392.933 72.688 392.944L147.04 394.304C152.08 394.4 156.528 397.632 158.168 402.392L182.408 472.712C182.597 473.267 182.912 473.771 183.33 474.183C183.747 474.594 184.255 474.903 184.813 475.084C185.37 475.265 185.963 475.313 186.542 475.225C187.122 475.137 187.673 474.915 188.152 474.576L249.12 431.92C251.137 430.51 253.539 429.754 256 429.754C258.461 429.754 260.863 430.51 262.88 431.92L323.84 474.568C324.326 474.896 324.879 475.112 325.459 475.199C326.039 475.287 326.631 475.243 327.192 475.072C327.748 474.887 328.254 474.577 328.67 474.165C329.086 473.753 329.402 473.25 329.592 472.696L353.832 402.384C354.635 400.058 356.133 398.035 358.123 396.588C360.113 395.142 362.5 394.342 364.96 394.296L439.32 392.936C439.903 392.923 440.476 392.776 440.993 392.506C441.51 392.236 441.958 391.85 442.301 391.379C442.645 390.907 442.875 390.363 442.974 389.788C443.073 389.213 443.038 388.623 442.872 388.064L421.224 316.904C420.505 314.554 420.527 312.041 421.285 309.704C422.044 307.367 423.502 305.32 425.464 303.84L484.784 259.008C485.251 258.657 485.63 258.202 485.891 257.679C486.152 257.157 486.288 256.58 486.288 255.996C486.288 255.412 486.152 254.835 485.891 254.313C485.63 253.79 485.251 253.335 484.784 252.984L484.776 252.976L425.464 208.144C423.504 206.663 422.045 204.616 421.286 202.28C420.526 199.944 420.502 197.431 421.216 195.08L442.856 123.928C443.027 123.368 443.066 122.777 442.969 122.2C442.873 121.623 442.644 121.076 442.3 120.602C441.957 120.128 441.508 119.741 440.99 119.47C440.471 119.199 439.897 119.052 439.312 119.04L364.952 117.68C362.491 117.637 360.104 116.837 358.113 115.39C356.122 113.943 354.625 111.919 353.824 109.592L329.584 39.272C329.391 38.717 329.072 38.214 328.652 37.803C328.232 37.393 327.722 37.085 327.163 36.905C326.604 36.725 326.01 36.678 325.429 36.766C324.848 36.855 324.296 37.077 323.816 37.416L262.872 80.064C260.855 81.474 258.453 82.23 255.992 82.23C253.531 82.23 251.129 81.474 249.112 80.064L188.152 37.408C187.514 36.969 186.758 36.735 185.984 36.736Z" fill="black"/>
<path d="M164.432 221.182V291H147.591V236.932H147.182L131.568 246.477V231.886L148.784 221.182H164.432ZM200.628 291V221.182H217.503V277.295H246.548V291H200.628ZM279.761 291.989C274.284 291.989 269.557 290.909 265.58 288.75C261.625 286.568 258.58 283.466 256.443 279.443C254.33 275.398 253.273 270.591 253.273 265.023C253.273 259.614 254.341 254.886 256.477 250.841C258.614 246.773 261.625 243.614 265.511 241.364C269.398 239.091 273.977 237.955 279.25 237.955C282.977 237.955 286.386 238.534 289.477 239.693C292.568 240.852 295.239 242.568 297.489 244.841C299.739 247.114 301.489 249.92 302.739 253.261C303.989 256.58 304.614 260.386 304.614 264.682V268.841H259.102V259.159H289.102C289.08 257.386 288.659 255.807 287.841 254.42C287.023 253.034 285.898 251.955 284.466 251.182C283.057 250.386 281.432 249.989 279.591 249.989C277.727 249.989 276.057 250.409 274.58 251.25C273.102 252.068 271.932 253.193 271.068 254.625C270.205 256.034 269.75 257.636 269.705 259.432V269.284C269.705 271.42 270.125 273.295 270.966 274.909C271.807 276.5 273 277.739 274.545 278.625C276.091 279.511 277.932 279.955 280.068 279.955C281.545 279.955 282.886 279.75 284.091 279.341C285.295 278.932 286.33 278.33 287.193 277.534C288.057 276.739 288.705 275.761 289.136 274.602L304.443 275.045C303.807 278.477 302.409 281.466 300.25 284.011C298.114 286.534 295.307 288.5 291.83 289.909C288.352 291.295 284.33 291.989 279.761 291.989ZM342.889 238.636V250.909H309.207V238.636H342.889ZM316.23 291V235.977C316.23 231.932 316.991 228.58 318.514 225.92C320.037 223.239 322.151 221.239 324.855 219.92C327.56 218.58 330.685 217.909 334.23 217.909C336.548 217.909 338.73 218.091 340.776 218.455C342.844 218.795 344.378 219.102 345.378 219.375L342.719 231.58C342.105 231.375 341.355 231.205 340.469 231.068C339.605 230.932 338.787 230.864 338.014 230.864C336.06 230.864 334.719 231.295 333.991 232.159C333.264 233.023 332.901 234.205 332.901 235.705V291H316.23ZM380.466 238.636V250.909H347.432V238.636H380.466ZM354.352 226.091H371.023V274.534C371.023 275.557 371.182 276.386 371.5 277.023C371.841 277.636 372.33 278.08 372.966 278.352C373.602 278.602 374.364 278.727 375.25 278.727C375.886 278.727 376.557 278.67 377.261 278.557C377.989 278.42 378.534 278.307 378.898 278.216L381.42 290.25C380.625 290.477 379.5 290.761 378.045 291.102C376.614 291.443 374.898 291.659 372.898 291.75C368.989 291.932 365.636 291.477 362.841 290.386C360.068 289.273 357.943 287.545 356.466 285.205C355.011 282.864 354.307 279.92 354.352 276.375V226.091Z" fill="black"/>
</svg>
