<svg width="512" height="512" viewBox="0 0 512 512" fill="none" xmlns="http://www.w3.org/2000/svg">
<path fill-rule="evenodd" clip-rule="evenodd" d="M185.984 36.736C186.758 36.735 187.514 36.969 188.152 37.408L249.112 80.064C251.129 81.474 253.531 82.23 255.992 82.23C258.453 82.23 260.855 81.474 262.872 80.064L323.816 37.416C324.296 37.077 324.848 36.855 325.429 36.766C326.01 36.678 326.604 36.725 327.163 36.905C327.722 37.085 328.232 37.393 328.652 37.803C329.072 38.214 329.391 38.717 329.584 39.272L353.824 109.592C354.625 111.919 356.122 113.943 358.113 115.39C360.104 116.837 362.491 117.637 364.952 117.68L439.312 119.04C439.897 119.052 440.471 119.199 440.99 119.47C441.508 119.741 441.957 120.128 442.3 120.602C442.644 121.076 442.873 121.623 442.969 122.2C443.066 122.777 443.027 123.368 442.856 123.928L421.216 195.08C420.502 197.431 420.526 199.944 421.286 202.28C422.045 204.616 423.504 206.663 425.464 208.144L484.776 252.976L484.784 252.984C485.251 253.335 485.63 253.79 485.891 254.313C486.152 254.835 486.288 255.412 486.288 255.996C486.288 256.58 486.152 257.157 485.891 257.679C485.63 258.202 485.251 258.657 484.784 259.008L425.464 303.84C423.502 305.32 422.044 307.367 421.285 309.704C420.527 312.041 420.505 314.554 421.224 316.904L442.872 388.064C443.038 388.623 443.073 389.213 442.974 389.788C442.875 390.363 442.645 390.907 442.301 391.379C441.958 391.85 441.51 392.236 440.993 392.506C440.476 392.776 439.903 392.923 439.32 392.936L364.96 394.296C362.5 394.342 360.113 395.142 358.123 396.588C356.133 398.035 354.635 400.058 353.832 402.384L329.592 472.696C329.402 473.25 329.086 473.753 328.67 474.165C328.254 474.577 327.748 474.887 327.192 475.072C326.631 475.243 326.039 475.287 325.459 475.199C324.879 475.112 324.326 474.896 323.84 474.568L262.88 431.92C260.863 430.51 258.461 429.754 256 429.754C253.539 429.754 251.137 430.51 249.12 431.92L188.152 474.576C187.673 474.915 187.122 475.137 186.542 475.225C185.963 475.313 185.37 475.265 184.813 475.084C184.255 474.903 183.747 474.594 183.33 474.183C182.912 473.771 182.597 473.267 182.408 472.712L158.168 402.392C156.528 397.632 152.08 394.4 147.04 394.304L72.688 392.944C72.103 392.933 71.529 392.787 71.01 392.516C70.491 392.246 70.042 391.86 69.697 391.387C69.352 390.915 69.121 390.369 69.023 389.792C68.924 389.216 68.96 388.624 69.128 388.064L90.776 316.912C91.49 314.561 91.466 312.048 90.706 309.712C89.947 307.376 88.488 305.329 86.528 303.848L27.208 259.016C26.745 258.661 26.37 258.205 26.112 257.682C25.854 257.159 25.72 256.583 25.72 256C25.72 255.417 25.854 254.841 26.112 254.318C26.37 253.795 26.745 253.339 27.208 252.984L86.528 208.152C88.488 206.671 89.947 204.624 90.706 202.288C91.466 199.952 91.49 197.439 90.776 195.088L69.128 123.936C68.96 123.376 68.924 122.785 69.023 122.208C69.121 121.632 69.351 121.086 69.695 120.613C70.038 120.14 70.486 119.753 71.004 119.481C71.522 119.21 72.096 119.062 72.68 119.048L147.04 117.688C152.08 117.6 156.528 114.368 158.168 109.6L182.416 39.28C182.673 38.538 183.155 37.895 183.794 37.439C184.434 36.983 185.199 36.738 185.984 36.736Z" fill="white"/>
<path d="M326.008 499.256C320.301 499.265 314.732 497.508 310.064 494.224L256 456.4L201.92 494.232C198.389 496.682 194.342 498.288 190.091 498.923C185.841 499.558 181.501 499.207 177.408 497.896C173.325 496.556 169.606 494.293 166.539 491.282C163.473 488.271 161.142 484.594 159.728 480.536L138.224 418.136L72.256 416.936C67.963 416.843 63.749 415.762 59.941 413.779C56.133 411.795 52.833 408.961 50.296 405.496C47.779 402.013 46.099 397.997 45.386 393.76C44.673 389.523 44.946 385.179 46.184 381.064L65.392 317.928L12.752 278.16C5.84 272.944 1.72 264.656 1.72 255.992C1.72 247.328 5.848 239.04 12.76 233.824L65.392 194.048L46.184 130.912C43.664 122.632 45.2 113.496 50.296 106.488C55.392 99.48 63.6 95.2 72.264 95.048L138.232 93.84L159.744 31.456C161.155 27.394 163.485 23.713 166.553 20.7C169.622 17.687 173.345 15.424 177.432 14.088C181.523 12.772 185.862 12.418 190.113 13.053C194.363 13.689 198.409 15.297 201.936 17.752L256 55.592L310.072 17.752C313.605 15.299 317.655 13.693 321.909 13.059C326.163 12.425 330.506 12.78 334.6 14.096C338.682 15.436 342.4 17.699 345.465 20.71C348.53 23.721 350.86 27.398 352.272 31.456L373.776 93.848L439.744 95.056C444.038 95.147 448.253 96.226 452.062 98.208C455.872 100.191 459.174 103.024 461.712 106.488C464.231 109.971 465.912 113.988 466.624 118.228C467.336 122.467 467.059 126.813 465.816 130.928L446.624 194.048L499.24 233.816C506.152 239.032 510.288 247.32 510.288 255.984C510.288 264.648 506.16 272.936 499.24 278.152L446.616 317.928L465.816 381.064C467.058 385.177 467.333 389.521 466.62 393.758C465.907 397.994 464.224 402.009 461.704 405.488C459.17 408.954 455.872 411.79 452.065 413.776C448.258 415.761 444.045 416.843 439.752 416.936L373.776 418.136L352.272 480.528C350.857 484.586 348.526 488.264 345.46 491.276C342.393 494.288 338.675 496.553 334.592 497.896C331.808 498.8 328.928 499.256 326.008 499.256ZM185.984 36.736C185.199 36.738 184.434 36.983 183.794 37.439C183.155 37.895 182.673 38.538 182.416 39.28L158.168 109.6C156.528 114.368 152.08 117.6 147.04 117.688L72.68 119.048C72.096 119.062 71.522 119.21 71.004 119.481C70.486 119.753 70.038 120.14 69.695 120.613C69.351 121.086 69.121 121.632 69.023 122.208C68.924 122.785 68.96 123.376 69.128 123.936L90.776 195.088C91.49 197.439 91.466 199.952 90.706 202.288C89.947 204.624 88.488 206.671 86.528 208.152L27.208 252.984C26.745 253.339 26.37 253.795 26.112 254.318C25.854 254.841 25.72 255.417 25.72 256C25.72 256.583 25.854 257.159 26.112 257.682C26.37 258.205 26.745 258.661 27.208 259.016L86.528 303.848C88.488 305.329 89.947 307.376 90.706 309.712C91.466 312.048 91.49 314.561 90.776 316.912L69.128 388.064C68.96 388.624 68.924 389.216 69.023 389.792C69.121 390.369 69.352 390.915 69.697 391.387C70.042 391.86 70.491 392.246 71.01 392.516C71.529 392.787 72.103 392.933 72.688 392.944L147.04 394.304C152.08 394.4 156.528 397.632 158.168 402.392L182.408 472.712C182.597 473.267 182.912 473.771 183.33 474.183C183.747 474.594 184.255 474.903 184.813 475.084C185.37 475.265 185.963 475.313 186.542 475.225C187.122 475.137 187.673 474.915 188.152 474.576L249.12 431.92C251.137 430.51 253.539 429.754 256 429.754C258.461 429.754 260.863 430.51 262.88 431.92L323.84 474.568C324.326 474.896 324.879 475.112 325.459 475.199C326.039 475.287 326.631 475.243 327.192 475.072C327.748 474.887 328.254 474.577 328.67 474.165C329.086 473.753 329.402 473.25 329.592 472.696L353.832 402.384C354.635 400.058 356.133 398.035 358.123 396.588C360.113 395.142 362.5 394.342 364.96 394.296L439.32 392.936C439.903 392.923 440.476 392.776 440.993 392.506C441.51 392.236 441.958 391.85 442.301 391.379C442.645 390.907 442.875 390.363 442.974 389.788C443.073 389.213 443.038 388.623 442.872 388.064L421.224 316.904C420.505 314.554 420.527 312.041 421.285 309.704C422.044 307.367 423.502 305.32 425.464 303.84L484.784 259.008C485.251 258.657 485.63 258.202 485.891 257.679C486.152 257.157 486.288 256.58 486.288 255.996C486.288 255.412 486.152 254.835 485.891 254.313C485.63 253.79 485.251 253.335 484.784 252.984L484.776 252.976L425.464 208.144C423.504 206.663 422.045 204.616 421.286 202.28C420.526 199.944 420.502 197.431 421.216 195.08L442.856 123.928C443.027 123.368 443.066 122.777 442.969 122.2C442.873 121.623 442.644 121.076 442.3 120.602C441.957 120.128 441.508 119.741 440.99 119.47C440.471 119.199 439.897 119.052 439.312 119.04L364.952 117.68C362.491 117.637 360.104 116.837 358.113 115.39C356.122 113.943 354.625 111.919 353.824 109.592L329.584 39.272C329.391 38.717 329.072 38.214 328.652 37.803C328.232 37.393 327.722 37.085 327.163 36.905C326.604 36.725 326.01 36.678 325.429 36.766C324.848 36.855 324.296 37.077 323.816 37.416L262.872 80.064C260.855 81.474 258.453 82.23 255.992 82.23C253.531 82.23 251.129 81.474 249.112 80.064L188.152 37.408C187.514 36.969 186.758 36.735 185.984 36.736Z" fill="black"/>
<path d="M326.008 499.256C320.301 499.265 314.732 497.508 310.064 494.224L256 456.4L201.92 494.232C198.389 496.682 194.342 498.288 190.091 498.923C185.841 499.558 181.501 499.207 177.408 497.896C173.325 496.556 169.606 494.293 166.539 491.282C163.473 488.271 161.142 484.594 159.728 480.536L138.224 418.136L72.256 416.936C67.963 416.843 63.749 415.762 59.941 413.779C56.133 411.795 52.833 408.961 50.296 405.496C47.779 402.013 46.099 397.997 45.386 393.76C44.673 389.523 44.946 385.179 46.184 381.064L65.392 317.928L12.752 278.16C5.84 272.944 1.72 264.656 1.72 255.992C1.72 247.328 5.848 239.04 12.76 233.824L65.392 194.048L46.184 130.912C43.664 122.632 45.2 113.496 50.296 106.488C55.392 99.48 63.6 95.2 72.264 95.048L138.232 93.84L159.744 31.456C161.155 27.394 163.485 23.713 166.553 20.7C169.622 17.687 173.345 15.424 177.432 14.088C181.523 12.772 185.862 12.418 190.113 13.053C194.363 13.689 198.409 15.297 201.936 17.752L256 55.592L310.072 17.752C313.605 15.299 317.655 13.693 321.909 13.059C326.163 12.425 330.506 12.78 334.6 14.096C338.682 15.436 342.4 17.699 345.465 20.71C348.53 23.721 350.86 27.398 352.272 31.456L373.776 93.848L439.744 95.056C444.038 95.147 448.253 96.226 452.062 98.208C455.872 100.191 459.174 103.024 461.712 106.488C464.231 109.971 465.912 113.988 466.624 118.228C467.336 122.467 467.059 126.813 465.816 130.928L446.624 194.048L499.24 233.816C506.152 239.032 510.288 247.32 510.288 255.984C510.288 264.648 506.16 272.936 499.24 278.152L446.616 317.928L465.816 381.064C467.058 385.177 467.333 389.521 466.62 393.758C465.907 397.994 464.224 402.009 461.704 405.488C459.17 408.954 455.872 411.79 452.065 413.776C448.258 415.761 444.045 416.843 439.752 416.936L373.776 418.136L352.272 480.528C350.857 484.586 348.526 488.264 345.46 491.276C342.393 494.288 338.675 496.553 334.592 497.896C331.808 498.8 328.928 499.256 326.008 499.256ZM185.984 36.736C185.199 36.738 184.434 36.983 183.794 37.439C183.155 37.895 182.673 38.538 182.416 39.28L158.168 109.6C156.528 114.368 152.08 117.6 147.04 117.688L72.68 119.048C72.096 119.062 71.522 119.21 71.004 119.481C70.486 119.753 70.038 120.14 69.695 120.613C69.351 121.086 69.121 121.632 69.023 122.208C68.924 122.785 68.96 123.376 69.128 123.936L90.776 195.088C91.49 197.439 91.466 199.952 90.706 202.288C89.947 204.624 88.488 206.671 86.528 208.152L27.208 252.984C26.745 253.339 26.37 253.795 26.112 254.318C25.854 254.841 25.72 255.417 25.72 256C25.72 256.583 25.854 257.159 26.112 257.682C26.37 258.205 26.745 258.661 27.208 259.016L86.528 303.848C88.488 305.329 89.947 307.376 90.706 309.712C91.466 312.048 91.49 314.561 90.776 316.912L69.128 388.064C68.96 388.624 68.924 389.216 69.023 389.792C69.121 390.369 69.352 390.915 69.697 391.387C70.042 391.86 70.491 392.246 71.01 392.516C71.529 392.787 72.103 392.933 72.688 392.944L147.04 394.304C152.08 394.4 156.528 397.632 158.168 402.392L182.408 472.712C182.597 473.267 182.912 473.771 183.33 474.183C183.747 474.594 184.255 474.903 184.813 475.084C185.37 475.265 185.963 475.313 186.542 475.225C187.122 475.137 187.673 474.915 188.152 474.576L249.12 431.92C251.137 430.51 253.539 429.754 256 429.754C258.461 429.754 260.863 430.51 262.88 431.92L323.84 474.568C324.326 474.896 324.879 475.112 325.459 475.199C326.039 475.287 326.631 475.243 327.192 475.072C327.748 474.887 328.254 474.577 328.67 474.165C329.086 473.753 329.402 473.25 329.592 472.696L353.832 402.384C354.635 400.058 356.133 398.035 358.123 396.588C360.113 395.142 362.5 394.342 364.96 394.296L439.32 392.936C439.903 392.923 440.476 392.776 440.993 392.506C441.51 392.236 441.958 391.85 442.301 391.379C442.645 390.907 442.875 390.363 442.974 389.788C443.073 389.213 443.038 388.623 442.872 388.064L421.224 316.904C420.505 314.554 420.527 312.041 421.285 309.704C422.044 307.367 423.502 305.32 425.464 303.84L484.784 259.008C485.251 258.657 485.63 258.202 485.891 257.679C486.152 257.157 486.288 256.58 486.288 255.996C486.288 255.412 486.152 254.835 485.891 254.313C485.63 253.79 485.251 253.335 484.784 252.984L484.776 252.976L425.464 208.144C423.504 206.663 422.045 204.616 421.286 202.28C420.526 199.944 420.502 197.431 421.216 195.08L442.856 123.928C443.027 123.368 443.066 122.777 442.969 122.2C442.873 121.623 442.644 121.076 442.3 120.602C441.957 120.128 441.508 119.741 440.99 119.47C440.471 119.199 439.897 119.052 439.312 119.04L364.952 117.68C362.491 117.637 360.104 116.837 358.113 115.39C356.122 113.943 354.625 111.919 353.824 109.592L329.584 39.272C329.391 38.717 329.072 38.214 328.652 37.803C328.232 37.393 327.722 37.085 327.163 36.905C326.604 36.725 326.01 36.678 325.429 36.766C324.848 36.855 324.296 37.077 323.816 37.416L262.872 80.064C260.855 81.474 258.453 82.23 255.992 82.23C253.531 82.23 251.129 81.474 249.112 80.064L188.152 37.408C187.514 36.969 186.758 36.735 185.984 36.736Z" fill="black"/>
<path d="M97.9592 294.593L88.4531 265.564L100.572 261.644C102.748 260.941 104.67 260.659 106.337 260.799C108.014 260.935 109.403 261.437 110.503 262.304C111.612 263.168 112.405 264.328 112.882 265.783C113.244 266.888 113.335 267.951 113.157 268.97C112.975 269.98 112.57 270.9 111.942 271.73C111.314 272.56 110.502 273.262 109.508 273.834L109.6 274.118C110.792 273.795 111.979 273.761 113.161 274.016C114.353 274.268 115.42 274.811 116.363 275.645C117.302 276.47 118.001 277.582 118.459 278.98C118.97 280.539 119.029 282.062 118.636 283.547C118.241 285.023 117.407 286.359 116.135 287.554C114.86 288.74 113.148 289.68 111.001 290.375L97.9592 294.593ZM103.132 286.665L107.474 285.261C108.997 284.768 110.024 284.117 110.554 283.308C111.094 282.496 111.195 281.575 110.858 280.545C110.613 279.799 110.228 279.213 109.701 278.788C109.172 278.353 108.538 278.093 107.798 278.008C107.056 277.914 106.235 278.012 105.337 278.303L100.867 279.748L103.132 286.665ZM99.3859 275.227L103.274 273.969C104.041 273.721 104.68 273.374 105.192 272.926C105.705 272.478 106.048 271.959 106.221 271.37C106.404 270.778 106.384 270.142 106.161 269.462C105.842 268.488 105.246 267.835 104.373 267.5C103.5 267.166 102.477 267.189 101.304 267.568L97.3018 268.863L99.3859 275.227ZM130.783 283.976L123.233 286.418L123.533 254.218L132.885 251.193L152.197 277.05L144.647 279.492L130.71 259.985L130.483 260.058L130.783 283.976ZM126.034 272.878L141.814 267.773L143.56 273.103L127.779 278.207L126.034 272.878ZM174.279 249.435L167.183 251.73C166.851 251.033 166.442 250.439 165.956 249.948C165.471 249.457 164.919 249.082 164.301 248.822C163.682 248.562 163.006 248.431 162.273 248.428C161.546 248.412 160.785 248.533 159.99 248.79C158.58 249.246 157.478 249.984 156.682 251.004C155.895 252.021 155.441 253.271 155.32 254.752C155.208 256.231 155.455 257.896 156.061 259.748C156.692 261.676 157.496 263.203 158.472 264.329C159.454 265.443 160.555 266.169 161.774 266.506C163 266.831 164.303 266.77 165.685 266.323C166.46 266.072 167.133 265.745 167.702 265.341C168.28 264.935 168.748 264.464 169.107 263.93C169.472 263.384 169.721 262.786 169.854 262.137C169.993 261.475 170.009 260.775 169.903 260.036L177.013 257.784C177.311 259.108 177.352 260.496 177.136 261.945C176.929 263.391 176.455 264.804 175.714 266.182C174.97 267.552 173.921 268.79 172.567 269.896C171.223 271 169.553 271.875 167.557 272.52C164.927 273.371 162.383 273.556 159.924 273.077C157.471 272.585 155.281 271.423 153.352 269.591C151.423 267.759 149.938 265.25 148.895 262.066C147.849 258.872 147.573 255.968 148.066 253.352C148.559 250.737 149.658 248.516 151.361 246.69C153.065 244.864 155.208 243.533 157.791 242.698C159.551 242.129 161.258 241.848 162.914 241.856C164.567 241.854 166.114 242.138 167.555 242.706C168.994 243.265 170.289 244.105 171.441 245.227C172.593 246.349 173.539 247.751 174.279 249.435ZM184.36 266.646L174.854 237.618L181.879 235.346L185.899 247.62L186.282 247.496L191.869 232.114L200.143 229.438L194.082 245.726L209.833 258.407L201.432 261.124L190.458 252.055L188.809 256.507L191.385 264.374L184.36 266.646ZM218.523 223.493L228.029 252.521L221.005 254.793L211.499 225.765L218.523 223.493ZM247.668 214.066L257.174 243.094L251.214 245.022L234.162 232.009L233.977 232.069L239.464 248.823L232.439 251.095L222.933 222.066L228.978 220.111L245.893 233.137L246.135 233.059L240.658 216.333L247.668 214.066ZM279.23 213.482C278.795 212.473 278.109 211.801 277.173 211.467C276.243 211.119 275.092 211.168 273.72 211.611C272.812 211.905 272.094 212.268 271.566 212.7C271.038 213.132 270.691 213.605 270.524 214.119C270.354 214.623 270.351 215.141 270.515 215.673C270.639 216.114 270.849 216.469 271.147 216.739C271.454 217.005 271.833 217.207 272.286 217.342C272.745 217.466 273.27 217.536 273.862 217.554C274.453 217.571 275.103 217.544 275.812 217.471L278.495 217.231C280.036 217.077 281.439 217.083 282.707 217.248C283.984 217.409 285.114 217.728 286.097 218.205C287.089 218.678 287.932 219.32 288.626 220.13C289.32 220.94 289.862 221.925 290.252 223.084C290.843 224.92 290.895 226.643 290.407 228.254C289.92 229.864 288.93 231.297 287.437 232.553C285.953 233.806 284.001 234.825 281.579 235.608C279.147 236.395 276.909 236.716 274.864 236.573C272.819 236.43 271.052 235.779 269.563 234.62C268.074 233.46 266.945 231.751 266.173 229.493L272.9 227.317C273.263 228.234 273.769 228.933 274.418 229.413C275.067 229.892 275.832 230.167 276.713 230.238C277.603 230.305 278.564 230.172 279.595 229.838C280.541 229.532 281.304 229.145 281.882 228.675C282.47 228.203 282.87 227.682 283.081 227.112C283.292 226.542 283.306 225.963 283.124 225.374C282.935 224.829 282.611 224.416 282.153 224.136C281.692 223.846 281.07 223.671 280.287 223.611C279.51 223.538 278.551 223.551 277.411 223.648L274.142 223.921C271.437 224.159 269.15 223.869 267.282 223.052C265.41 222.226 264.119 220.71 263.407 218.506C262.81 216.713 262.777 214.984 263.309 213.317C263.841 211.651 264.844 210.161 266.318 208.848C267.793 207.535 269.632 206.523 271.836 205.81C274.088 205.081 276.167 204.832 278.073 205.062C279.986 205.279 281.625 205.925 282.992 206.998C284.358 208.071 285.346 209.507 285.956 211.306L279.23 213.482ZM287.966 207.333L286.1 201.635L310.665 193.689L312.531 199.387L303.718 202.238L311.358 225.568L304.433 227.808L296.793 204.478L287.966 207.333ZM344.953 198.65C345.999 201.844 346.27 204.75 345.767 207.369C345.265 209.987 344.152 212.213 342.429 214.045C340.716 215.874 338.559 217.209 335.957 218.051C333.346 218.895 330.805 219.075 328.333 218.589C325.862 218.103 323.649 216.953 321.695 215.139C319.747 213.314 318.252 210.808 317.209 207.624C316.163 204.43 315.887 201.525 316.38 198.91C316.883 196.292 317.991 194.068 319.704 192.239C321.418 190.41 323.58 189.073 326.191 188.228C328.793 187.387 331.328 187.204 333.796 187.681C336.274 188.154 338.491 189.302 340.448 191.125C342.405 192.948 343.907 195.456 344.953 198.65ZM337.772 200.973C337.153 199.083 336.361 197.573 335.394 196.444C334.437 195.311 333.348 194.571 332.125 194.225C330.912 193.875 329.606 193.927 328.205 194.38C326.815 194.83 325.728 195.552 324.945 196.548C324.162 197.543 323.714 198.78 323.602 200.258C323.499 201.733 323.757 203.416 324.376 205.306C324.995 207.196 325.783 208.707 326.739 209.84C327.706 210.969 328.8 211.707 330.023 212.054C331.245 212.401 332.552 212.349 333.942 211.899C335.343 211.446 336.43 210.724 337.203 209.731C337.986 208.736 338.429 207.501 338.532 206.025C338.644 204.547 338.391 202.863 337.772 200.973ZM374.126 184.794L367.03 187.089C366.697 186.392 366.288 185.798 365.803 185.307C365.318 184.816 364.766 184.44 364.148 184.181C363.529 183.921 362.853 183.79 362.119 183.786C361.392 183.771 360.632 183.891 359.837 184.149C358.427 184.604 357.325 185.343 356.529 186.363C355.742 187.38 355.288 188.63 355.167 190.111C355.054 191.589 355.301 193.255 355.908 195.107C356.539 197.034 357.343 198.562 358.318 199.688C359.301 200.802 360.401 201.528 361.621 201.865C362.847 202.189 364.15 202.128 365.531 201.682C366.307 201.431 366.979 201.103 367.548 200.7C368.127 200.293 368.595 199.823 368.954 199.289C369.319 198.743 369.568 198.145 369.701 197.496C369.84 196.834 369.856 196.134 369.75 195.395L376.86 193.142C377.157 194.467 377.198 195.854 376.982 197.304C376.776 198.75 376.302 200.162 375.561 201.541C374.817 202.911 373.768 204.149 372.414 205.255C371.07 206.359 369.4 207.233 367.404 207.879C364.774 208.73 362.229 208.915 359.771 208.436C357.318 207.943 355.128 206.781 353.199 204.949C351.27 203.117 349.784 200.609 348.742 197.425C347.696 194.231 347.419 191.326 347.913 188.711C348.406 186.096 349.504 183.875 351.208 182.049C352.912 180.223 355.055 178.892 357.638 178.057C359.398 177.487 361.105 177.207 362.761 177.215C364.414 177.213 365.961 177.496 367.402 178.065C368.841 178.624 370.136 179.464 371.288 180.586C372.44 181.707 373.386 183.11 374.126 184.794ZM384.207 202.005L374.701 172.976L381.726 170.704L385.745 182.979L386.128 182.855L391.716 167.473L399.989 164.797L393.929 181.084L409.68 193.766L401.279 196.483L390.305 187.414L388.656 191.866L391.232 199.733L384.207 202.005Z" fill="black"/>
<path d="M233.565 289.935C233.13 288.926 232.444 288.254 231.508 287.919C230.578 287.572 229.428 287.621 228.056 288.064C227.148 288.358 226.429 288.721 225.901 289.153C225.373 289.585 225.026 290.058 224.859 290.572C224.69 291.076 224.687 291.594 224.851 292.127C224.974 292.567 225.184 292.923 225.482 293.192C225.789 293.459 226.169 293.66 226.621 293.795C227.08 293.919 227.605 293.989 228.197 294.007C228.789 294.024 229.439 293.997 230.148 293.924L232.831 293.683C234.371 293.53 235.775 293.536 237.043 293.7C238.32 293.862 239.449 294.181 240.432 294.657C241.424 295.131 242.267 295.772 242.961 296.582C243.656 297.392 244.198 298.377 244.588 299.536C245.179 301.372 245.231 303.096 244.743 304.706C244.256 306.316 243.266 307.75 241.773 309.006C240.289 310.259 238.337 311.277 235.915 312.061C233.484 312.847 231.245 313.169 229.2 313.026C227.155 312.883 225.388 312.232 223.899 311.073C222.41 309.914 221.281 308.205 220.509 305.946L227.236 303.77C227.599 304.687 228.105 305.386 228.754 305.866C229.403 306.345 230.168 306.62 231.049 306.691C231.939 306.758 232.9 306.625 233.931 306.291C234.877 305.985 235.64 305.597 236.218 305.128C236.806 304.656 237.206 304.135 237.417 303.565C237.628 302.995 237.642 302.415 237.46 301.827C237.271 301.282 236.947 300.869 236.489 300.589C236.028 300.299 235.406 300.124 234.622 300.064C233.845 299.991 232.887 300.004 231.747 300.101L228.478 300.374C225.772 300.612 223.486 300.322 221.617 299.506C219.746 298.679 218.454 297.164 217.743 294.959C217.145 293.167 217.112 291.437 217.644 289.771C218.176 288.104 219.179 286.615 220.654 285.302C222.128 283.989 223.967 282.976 226.171 282.263C228.423 281.534 230.502 281.285 232.408 281.515C234.321 281.732 235.96 282.377 237.327 283.451C238.693 284.524 239.681 285.96 240.291 287.759L233.565 289.935ZM273.57 283.42C274.616 286.614 274.888 289.52 274.385 292.138C273.883 294.757 272.77 296.982 271.048 298.815C269.334 300.644 267.177 301.979 264.575 302.821C261.964 303.665 259.423 303.845 256.952 303.359C254.48 302.873 252.267 301.723 250.313 299.91C248.366 298.084 246.87 295.579 245.827 292.395C244.781 289.201 244.505 286.296 244.998 283.681C245.501 281.062 246.609 278.839 248.322 277.009C250.035 275.18 252.197 273.843 254.808 272.999C257.41 272.157 259.945 271.975 262.413 272.451C264.891 272.924 267.108 274.072 269.065 275.895C271.023 277.718 272.524 280.226 273.57 283.42ZM266.39 285.743C265.771 283.853 264.978 282.343 264.012 281.214C263.055 280.081 261.965 279.342 260.743 278.995C259.53 278.646 258.223 278.697 256.823 279.15C255.432 279.6 254.345 280.323 253.562 281.318C252.779 282.313 252.331 283.55 252.219 285.029C252.117 286.504 252.375 288.187 252.994 290.076C253.613 291.966 254.401 293.478 255.357 294.61C256.324 295.74 257.418 296.478 258.641 296.824C259.863 297.171 261.17 297.119 262.561 296.669C263.961 296.216 265.048 295.494 265.821 294.501C266.604 293.506 267.047 292.271 267.15 290.795C267.262 289.317 267.009 287.633 266.39 285.743ZM305.102 273.22C306.148 276.414 306.42 279.32 305.917 281.938C305.415 284.557 304.302 286.782 302.579 288.614C300.866 290.443 298.709 291.779 296.107 292.62C293.496 293.465 290.955 293.644 288.483 293.158C286.012 292.673 283.799 291.523 281.845 289.71C279.897 287.884 278.402 285.379 277.359 282.194C276.313 279 276.037 276.096 276.53 273.48C277.032 270.862 278.14 268.638 279.853 266.809C281.567 264.98 283.729 263.643 286.34 262.798C288.942 261.957 291.477 261.774 293.945 262.251C296.423 262.724 298.64 263.872 300.597 265.695C302.554 267.517 304.056 270.026 305.102 273.22ZM297.922 275.543C297.303 273.653 296.51 272.143 295.544 271.013C294.587 269.881 293.497 269.141 292.274 268.795C291.061 268.445 289.755 268.497 288.355 268.95C286.964 269.4 285.877 270.122 285.094 271.118C284.311 272.113 283.863 273.35 283.751 274.828C283.648 276.304 283.907 277.986 284.525 279.876C285.144 281.766 285.932 283.277 286.889 284.41C287.856 285.539 288.95 286.277 290.173 286.624C291.395 286.97 292.702 286.919 294.092 286.469C295.493 286.016 296.579 285.293 297.353 284.301C298.136 283.306 298.579 282.07 298.682 280.595C298.794 279.117 298.54 277.432 297.922 275.543ZM329.184 249.377L338.691 278.406L332.731 280.334L315.679 267.321L315.494 267.381L320.981 284.135L313.957 286.407L304.45 257.379L310.495 255.423L327.41 268.448L327.652 268.37L322.174 251.645L329.184 249.377Z" fill="black"/>
</svg>
