<svg width="24" height="24" viewBox="0 0 24 24" fill="none" xmlns="http://www.w3.org/2000/svg" data-reactroot="">
<path stroke-linejoin="round" stroke-linecap="round" stroke-miterlimit="10" stroke-width="2.5" stroke="#faf9fc" fill="none" d="M7.78 12H2V6H7.78C9.56 6 11 7.34 11 9C11 10.66 9.56 12 7.78 12Z"></path>
<path stroke-linejoin="round" stroke-linecap="round" stroke-miterlimit="10" stroke-width="2.5" stroke="#faf9fc" fill="none" d="M8.43 18H2V12H8.43C10.4 12 12 13.34 12 15C12 16.66 10.4 18 8.43 18Z"></path>
<path stroke-linejoin="round" stroke-linecap="round" stroke-miterlimit="10" stroke-width="2.5" stroke="#faf9fc" d="M15 14C14.97 14.16 14.96 14.33 14.96 14.5C14.96 16.43 16.59 18 18.55 18C19.48 18 20.33 17.64 20.97 17.06"></path>
<path stroke-linejoin="round" stroke-linecap="round" stroke-miterlimit="10" stroke-width="2.5" stroke="#faf9fc" d="M15.5 8H21.5"></path>
<path stroke-linejoin="round" stroke-linecap="round" stroke-miterlimit="10" stroke-width="2.5" stroke="#faf9fc" fill="none" d="M18.53 11C20.22 11 21.64 12.45 22 14H15C15.24 12.31 16.73 11 18.53 11Z"></path>
</svg>
