<svg width="24" height="24" viewBox="0 0 24 24" fill="none" xmlns="http://www.w3.org/2000/svg" data-reactroot="">
<path stroke-linejoin="round" stroke-linecap="round" stroke-miterlimit="10" stroke-width="1.5" stroke="#fbfafe" fill="none" d="M22 12C22 12.63 21.94 13.24 21.83 13.83C21.16 17.44 18.57 20.35 15.15 21.48C14.17 21.82 13.11 22 12 22C11.26 22 10.54 21.92 9.85 21.76C5.36 20.79 2 16.79 2 12C2 11.81 2 11.63 2.01 11.45C2.18 8.35 3.76 5.62 6.13 3.9C7.79 2.7 9.81 2 12 2C13.14 2 14.25 2.19 15.27 2.55C19.19 3.9 22 7.62 22 12Z"></path>
<path stroke-linejoin="round" stroke-linecap="round" stroke-miterlimit="10" stroke-width="1.5" stroke="#fbfafe" d="M15.27 2.55C15.14 4.99 14.13 7.2 12.54 8.87C10.73 10.8 8.15002 12 5.29002 12C4.15002 12 3.04002 11.81 2.02002 11.45"></path>
<path stroke-linejoin="round" stroke-linecap="round" stroke-miterlimit="10" stroke-width="1.5" stroke="#fbfafe" d="M8.58997 21.4C9.34997 18.28 11.6 15.46 14.39 14.02C15.9 13.22 17.63 12.78 19.46 12.78C20.27 12.78 21.18 12.9 21.94 13.07"></path>
<path stroke-linejoin="round" stroke-linecap="round" stroke-miterlimit="10" stroke-width="1.5" stroke="#fbfafe" d="M6.13 3.89999C8.69 4.75999 10.93 6.51999 12.55 8.85999C13.74 10.55 14.61 12.54 15.07 14.72C15.31 15.87 15.44 17.08 15.44 18.31C15.44 19.39 15.34 20.45 15.15 21.48"></path>
</svg>
