<svg height="659" viewBox="0 0 670.605 659" width="670.605" xmlns="http://www.w3.org/2000/svg" xmlns:xlink="http://www.w3.org/1999/xlink"><filter id="a" filterUnits="userSpaceOnUse" height="340.931" width="487.016" x="57.985" y="213"><feOffset dx="5" dy="12"/><feGaussianBlur result="blur" stdDeviation="10"/><feFlood flood-opacity=".071"/><feComposite in2="blur" operator="in"/><feComposite in="SourceGraphic"/></filter><path d="m260.223 14.289c30.807 25.4 57.989 38.093 112.354 43.534 5.437.544 19.22 1.576 25.37 3.628 16.31 5.442 10.874 14.512 43.492 25.4s47.117 36.274 38.061 85.249 18.122 56.232 9.061 114.278-29 34.465-32.619 96.139 3.624 116.092-83.36 99.766-59.8 45.349-135.913 21.767-59.8 30.837-108.73 0-39.868-38.093-90.609-65.3 7.249-92.51-14.5-143.3-38.056-90.7 0-107.022 99.67-50.79 125.04-123.348 81.546-76.187 112.353-50.791z" fill="#1cebbc" opacity=".05" transform="matrix(.41353353 .91048889 -.91048889 .41353353 467.797 0)"/><g filter="url(#a)" transform="translate(.003 -.003)"><g fill="#fff" transform="translate(82.98 231)"><path d="m418.37149048 280.43127441h-409.72746086c-4.49063111 0-8.14399976-3.65341186-8.14399976-8.14407348v-263.6431427c0-4.49063158 3.65336865-8.14405263 8.14399976-8.14405263h409.72746086c4.4906311 0 8.14407348 3.65342105 8.14407348 8.14405263v263.6431427c0 4.49066162-3.65344238 8.14407348-8.14407348 8.14407348z"/><path d="m8.64404297 1c-4.21496582 0-7.64407349 3.42910767-7.64407349 7.64407349v263.64315796c0 4.2149353 3.42910767 7.64404296 7.64407349 7.64404296h409.72744751c4.21490478 0 7.64401245-3.42910766 7.64401245-7.64404296v-263.64315796c0-4.21496582-3.42910767-7.64407349-7.64401245-7.64407349zm0-1h409.72744751c4.7739563 0 8.64401245 3.87005615 8.64401245 8.64407349v263.64315796c0 4.77398681-3.87005615 8.64404296-8.64401245 8.64404296h-409.72744751c-4.77401734 0-8.64407349-3.87005615-8.64407349-8.64404296v-263.64315796c0-4.77401734 3.87005615-8.64407349 8.64407349-8.64407349z" fill="#fff"/></g></g><rect fill="#f8f9fb" height="90.279" rx="8" width="95.789" x="116.023" y="272.419"/><circle cx="196.13" cy="347.016" fill="#f4b3af" r="10.596"/><g fill="#d6dde7"><rect height="2.543" rx="1.272" width="55.1" x="121.109" y="289.966"/><rect height="2.543" rx="1.272" width="33.908" x="121.109" y="300.764"/><rect height="2.543" rx="1.272" width="16.954" x="121.109" y="311.563"/></g><rect fill="#f8f9fb" height="90.279" rx="8" width="95.789" x="116.023" y="383.419"/><circle cx="196.13" cy="458.016" fill="#64ecf5" r="10.596"/><rect fill="#d6dde7" height="2.543" rx="1.272" width="55.1" x="121.109" y="400.966"/><rect fill="#d6dde7" height="2.543" rx="1.272" width="33.908" x="121.109" y="411.764"/><rect fill="#d6dde7" height="2.543" rx="1.272" width="16.954" x="121.109" y="422.563"/><rect fill="#f8f9fb" height="90.279" rx="8" width="95.789" x="232.023" y="272.419"/><circle cx="312.13" cy="347.016" fill="#8667f7" r="10.596"/><rect fill="#d6dde7" height="2.543" rx="1.272" width="55.1" x="237.109" y="289.966"/><rect fill="#d6dde7" height="2.543" rx="1.272" width="33.908" x="237.109" y="300.764"/><rect fill="#d6dde7" height="2.543" rx="1.272" width="16.954" x="237.109" y="311.563"/><rect fill="#f8f9fb" height="90.279" rx="8" width="95.789" x="232.023" y="383.419"/><circle cx="312.13" cy="458.016" fill="#50b7ff" r="10.596"/><rect fill="#d6dde7" height="2.543" rx="1.272" width="55.1" x="237.109" y="400.966"/><rect fill="#d6dde7" height="2.543" rx="1.272" width="33.908" x="237.109" y="411.764"/><rect fill="#d6dde7" height="2.543" rx="1.272" width="16.954" x="237.109" y="422.563"/><rect fill="none" height="90.279" rx="8" stroke="#8667f7" width="95.789" x="347.023" y="331.419"/><circle cx="395.13" cy="377.016" fill="#8667f7" r="10.596"/><g transform="translate(96.256 196.64)"><rect fill="#fff" height="50.697" rx="4" width="50.697"/><rect fill="none" height="49.792" rx="3.5" stroke="#5f45ea" width="49.792" x=".453" y=".453"/><path d="m13 11h-6a1 1 0 0 0 0 2h6a1 1 0 0 0 0-2zm4-4h-10a1 1 0 0 0 0 2h10a1 1 0 0 0 0-2zm2-5h-14a3 3 0 0 0 -3 3v10a3 3 0 0 0 3 3h11.59l3.7 3.71a1 1 0 0 0 .71.29.84.84 0 0 0 .38-.08 1 1 0 0 0 .62-.92v-16a3 3 0 0 0 -3-3zm1 16.59-2.29-2.3a1 1 0 0 0 -.71-.29h-12a1 1 0 0 1 -1-1v-10a1 1 0 0 1 1-1h14a1 1 0 0 1 1 1z" fill="#8667f7" transform="translate(13.744 13.36)"/></g><rect fill="#fff" height="50.697" rx="4" width="50.697" x="391.387" y="525.269"/><rect fill="none" height="49.792" rx="3.5" stroke="#8667f7" width="49.792" x="391.84" y="525.722"/><rect fill="none" height="49.792" rx="3.5" stroke="#ff8b8d" width="49.792" x="433.485" y="408.936"/><rect fill="#fff" height="50.697" rx="4" width="50.697" x="361.512" y="223.8"/><rect fill="none" height="49.792" rx="3.5" stroke="#ff8b8d" width="49.792" x="361.965" y="224.253"/><rect fill="#fff" height="50.697" rx="4" stroke="#5e91ff" width="50.697" x="232.052" y="186.682"/><rect fill="#fff" height="49.792" rx="3.5" stroke="#5e91ff" width="49.792" x="232.505" y="187.135"/><g transform="translate(330.731 124.215)"><rect fill="#fff" height="50.697" rx="4" width="50.697"/><rect fill="none" height="49.792" rx="3.5" stroke="#5f45ea" width="49.792" x=".453" y=".453"/><path d="m9.88 14.12-.15-.12-.18-.1-.18-.05a1 1 0 0 0 -.9.27.83.83 0 0 0 -.22.33.94.94 0 0 0 0 .76 1.07 1.07 0 0 0 .54.54 1 1 0 0 0 .38.08 1.09 1.09 0 0 0 .39-.08.87.87 0 0 0 .32-.22.929.929 0 0 0 .29-.7.84.84 0 0 0 -.08-.38.93.93 0 0 0 -.21-.33zm-6.37-5.36a1 1 0 0 0 .71-.3l4.24-4.24a1 1 0 0 0 -1.41-1.41l-4.24 4.24a1.005 1.005 0 0 0 .7 1.71zm17.68 6.78a1 1 0 0 0 -1.41 0l-4.24 4.24a1 1 0 1 0 1.41 1.41l4.24-4.19a1 1 0 0 0 0-1.46zm.17-5.66a3 3 0 0 0 -.87-2.12l-4.25-4.25a3.08 3.08 0 0 0 -4.24 0l-8.49 8.49a3 3 0 0 0 0 4.24l4.25 4.25a3 3 0 0 0 4.24 0l8.49-8.49a3 3 0 0 0 .87-2.12zm-2.29.71-8.48 8.48a1 1 0 0 1 -1.42 0l-4.24-4.24a1 1 0 0 1 0-1.42l8.48-8.48a1 1 0 0 1 1.42 0l4.24 4.24a1 1 0 0 1 0 1.42z" fill="#8667f7" transform="translate(14.749 16.266)"/></g><rect fill="none" height="50.697" rx="4" width="50.697" x="158.722" y="97.961"/><rect fill="none" height="49.792" rx="3.5" stroke="#64ecf5" width="49.792" x="159.175" y="98.414"/><rect fill="#fff" height="50.697" rx="4" width="50.697" x="526.279" y="444.696"/><rect fill="none" height="49.792" rx="3.5" stroke="#1ee4bd" width="49.792" x="526.732" y="445.149"/><rect fill="#fff" height="50.697" rx="4" width="50.697" x="55.517" y="235.569"/><rect fill="#fff" height="49.792" rx="3.5" stroke="#50b7ff" width="49.792" x="55.97" y="236.022"/><rect fill="#fff" height="50.697" rx="4" width="50.697" x="41.937" y="428.4"/><rect fill="none" height="49.792" rx="3.5" stroke="#ff8b8d" width="49.792" x="42.39" y="428.853"/><text fill="#fff" font-family="SegoeUI, Segoe UI" font-size="15" transform="translate(395 382)"><tspan x="-5.131" y="0">+</tspan></text><path d="m14 18a1 1 0 0 0 1-1v-2a1 1 0 0 0 -2 0v2a1 1 0 0 0 1 1zm-4 0a1 1 0 0 0 1-1v-2a1 1 0 0 0 -2 0v2a1 1 0 0 0 1 1zm9-12h-1.38l-1.73-3.45a1 1 0 1 0 -1.78.9l1.27 2.55h-6.76l1.27-2.55a1 1 0 0 0 -1.78-.9l-1.73 3.45h-1.38a3 3 0 0 0 -.92 5.84l.74 7.46a3 3 0 0 0 3 2.7h8.38a3 3 0 0 0 3-2.7l.74-7.46a3 3 0 0 0 -.94-5.84zm-1.81 13.1a1 1 0 0 1 -1 .9h-8.38a1 1 0 0 1 -1-.9l-.71-7.1h11.8zm1.81-9.1h-14a1 1 0 0 1 0-2h14a1 1 0 0 1 0 2z" fill="#64ecf5" transform="translate(171.955 113.066)"/><path d="m2.5 8.86 9 5.2a1 1 0 0 0 1 0l9-5.2a1 1 0 0 0 0-1.73l-9-5.19a1 1 0 0 0 -1 0l-9 5.19a1 1 0 0 0 0 1.73zm9.5-4.86 7 4-7 4-7-4zm8.5 7.17-8.5 4.83-8.5-4.87a1 1 0 1 0 -1 1.73l9 5.2a1 1 0 0 0 1 0l9-5.2a1 1 0 1 0 -1-1.73zm0 4-8.5 4.83-8.5-4.87a1 1 0 1 0 -1 1.73l9 5.2a1 1 0 0 0 1 0l9-5.2a1 1 0 1 0 -1-1.73z" fill="#50b7ff" transform="translate(68.001 251.194)"/><path d="m5 18h4.24a1 1 0 0 0 .71-.29l6.92-6.93 2.84-2.78a1 1 0 0 0 0-1.42l-4.24-4.29a1 1 0 0 0 -1.42 0l-2.82 2.83-6.94 6.93a1 1 0 0 0 -.29.71v4.24a1 1 0 0 0 1 1zm9.76-13.59 2.83 2.83-1.42 1.42-2.83-2.83zm-8.76 8.76 5.93-5.93 2.83 2.83-5.93 5.93h-2.83zm15 6.83h-18a1 1 0 0 0 0 2h18a1 1 0 0 0 0-2z" fill="#5e91ff" transform="translate(245 201.006)"/><g fill="#f4b3af"><path d="m20.16 5a6.29 6.29 0 0 0 -8.16-.59 6.27 6.27 0 0 0 -8.16 9.48l6 6.05a3 3 0 0 0 4.24 0l6-6.05a6.27 6.27 0 0 0 .08-8.89zm-1.41 7.46-6 6a1 1 0 0 1 -1.42 0l-6-6a4.243 4.243 0 1 1 6-6 1 1 0 0 0 1.42 0 4.27 4.27 0 0 1 6 6z" transform="translate(376.012 238.829)"/><path d="m21.3 10.08a3 3 0 0 0 -2.3-1.08h-4.56l.56-1.43a4.13 4.13 0 0 0 -3.89-5.57 1 1 0 0 0 -.91.59l-2.85 6.41h-2.35a3 3 0 0 0 -3 3v7a3 3 0 0 0 3 3h12.73a3 3 0 0 0 2.95-2.46l1.27-7a3 3 0 0 0 -.65-2.46zm-14.3 9.92h-2a1 1 0 0 1 -1-1v-7a1 1 0 0 1 1-1h2zm13-7.82-1.27 7a1 1 0 0 1 -1 .82h-8.73v-9.79l2.72-6.12a2.11 2.11 0 0 1 1.38 2.78l-.53 1.43a2 2 0 0 0 1.87 2.7h4.56a1.02 1.02 0 0 1 1 1.18z" transform="translate(445 420)"/><path d="m18 13.18v-3.18a6 6 0 0 0 -5-5.91v-1.09a1 1 0 0 0 -2 0v1.09a6 6 0 0 0 -5 5.91v3.18a3 3 0 0 0 -2 2.82v2a1 1 0 0 0 1 1h3.14a4 4 0 0 0 7.72 0h3.14a1 1 0 0 0 1-1v-2a3 3 0 0 0 -2-2.82zm-10-3.18a4 4 0 0 1 8 0v3h-8zm4 10a2 2 0 0 1 -1.72-1h3.44a2 2 0 0 1 -1.72 1zm6-3h-12v-1a1 1 0 0 1 1-1h10a1 1 0 0 1 1 1z" transform="translate(55 443)"/></g><path d="m19 3h-14a3 3 0 0 0 -3 3v8a3 3 0 0 0 3 3h6v2h-4a1 1 0 0 0 0 2h10a1 1 0 0 0 0-2h-4v-2h6a3 3 0 0 0 3-3v-8a3 3 0 0 0 -3-3zm1 11a1 1 0 0 1 -1 1h-14a1 1 0 0 1 -1-1v-8a1 1 0 0 1 1-1h14a1 1 0 0 1 1 1z" fill="#8667f7" transform="translate(405 540)"/><path d="m20 8.18v-5.18a1 1 0 0 0 -2 0v5.18a3 3 0 0 0 0 5.64v7.18a1 1 0 0 0 2 0v-7.18a3 3 0 0 0 0-5.64zm-1 3.82a1 1 0 1 1 1-1 1 1 0 0 1 -1 1zm-6 2.18v-11.18a1 1 0 0 0 -2 0v11.18a3 3 0 0 0 0 5.64v1.18a1 1 0 0 0 2 0v-1.18a3 3 0 0 0 0-5.64zm-1 3.82a1 1 0 1 1 1-1 1 1 0 0 1 -1 1zm-6-11.82v-3.18a1 1 0 0 0 -2 0v3.18a3 3 0 0 0 0 5.64v9.18a1 1 0 0 0 2 0v-9.18a3 3 0 0 0 0-5.64zm-1 3.82a1 1 0 1 1 1-1 1 1 0 0 1 -1 1z" fill="#64ecf5" transform="translate(540.976 460)"/></svg>