<svg width="86.99999999999999" height="56.00000000000001" xmlns="http://www.w3.org/2000/svg">

 <g>
  <title>background</title>
  <rect fill="none" id="canvas_background" height="402" width="582" y="-1" x="-1"/>
 </g>
 <g>
  <title>Layer 1</title>
  <path id="svg_2" fill="#F1F2F2" d="m6.024,26.301001l2.052999,0l0.85,2.264999l7.997,0l0,-1.698999l0.708,1.698999l4.176001,0l0.708,-1.77l0,1.77l19.816,0l0,-3.681l0.355,0c0.280998,0 0.352001,0.07 0.352001,0.496l0,3.184999l10.261997,0l0,-0.85c0.850002,0.425001 2.125999,0.85 3.821003,0.85l4.319,0l0.919998,-2.264999l2.052002,0l0.919998,2.264999l8.280998,0l0,-2.124001l1.273003,2.124001l6.651001,0l0,-13.874l-6.582001,0l0,1.63l-0.988998,-1.63l-6.724007,0l0,1.63l-0.849998,-1.63l-9.126999,0c-1.558998,0 -2.900997,0.214 -3.966999,0.78l0,-0.78l-6.296001,0l0,0.78c-0.709,-0.566 -1.628998,-0.78 -2.690998,-0.78l-23,0l-1.557001,3.54l-1.627998,-3.54l-7.219001,0l0,1.63l-0.85,-1.63l-6.157,0l-2.901,6.585l0,7.288l4.104,0l0.92,-2.264zm47.775,-8.493c0.708,-0.779001 1.98,-1.132 3.609001,-1.132l2.263,0l0,2.122999l-2.263,0c-0.850002,0 -1.347,0.141001 -1.84,0.564001c-0.428001,0.425999 -0.639,1.205 -0.639,2.265999c0,1.064001 0.210999,1.841 0.639,2.336c0.351997,0.354 0.989998,0.494999 1.628998,0.494999l1.061001,0l3.395,-7.783998l3.540001,0l3.962997,9.342999l0,-9.342999l3.681,0l4.178001,6.864l0,-6.864l2.403999,0l0,9.907999l-3.394997,0l-4.460999,-7.431999l0,7.431999l-4.812004,0l-0.919998,-2.192999l-4.957001,0l-0.917,2.192999l-2.760002,0c-1.135998,0 -2.619999,-0.282999 -3.469997,-1.132999c-0.778,-0.848 -1.202,-1.981001 -1.202,-3.752001c0,-1.484999 0.211998,-2.83 1.273998,-3.890999zm-4.882999,-1.132l2.403,0l0,9.907999l-2.403,0l0,-9.907999zm-10.900002,0l5.451,0c1.200001,0 2.051003,0 2.829002,0.425999c0.778999,0.495001 1.271999,1.131001 1.271999,2.262001c0,1.559 -1.062,2.336 -1.699001,2.621c0.498001,0.210999 0.920002,0.564999 1.136002,0.849998c0.353001,0.494001 0.421997,0.92 0.421997,1.77l0,1.98l-2.406998,0l0,-1.272999c0,-0.566 0.074001,-1.416 -0.353001,-1.911001c-0.354,-0.353998 -0.918999,-0.424999 -1.769001,-0.424999l-2.548,0l0,3.608999l-2.334,0l0,-9.908998zm-9.626999,0l7.927002,0l0,2.052999l-5.520002,0l0,1.77l5.448999,0l0,2.052l-5.448999,0l0,1.980999l5.520002,0l0,2.052999l-7.927002,0l0,-9.908998zm-24.771,9.907999l-2.548,0l4.246,-9.907999l3.539,0l4.034,9.342999l0,-9.342999l3.823,0l3.113001,6.723999l2.900999,-6.723999l3.893,0l0,9.907999l-2.406,0l0,-7.785l-3.467999,7.785l-2.053001,0l-3.467999,-7.785l0,7.785l-4.813,0l-0.92,-2.192999l-4.952,0l-0.921,2.192999z"/>
  <polygon id="svg_3" points="22.304,35.783 22.304,37.624 27.541,37.624 27.541,39.605 22.304,39.605 22.304,41.587    28.178,41.587 30.867,38.686 28.249,35.783  " fill="#F1F2F2"/>
  <polygon id="svg_4" points="63.352,18.373 61.724,22.268 64.981,22.268  " fill="#F1F2F2"/>
  <polygon id="svg_5" points="5.388,22.268 8.643,22.268 7.016,18.373  " fill="#F1F2F2"/>
  <polygon id="svg_6" points="37.59,42.793 37.59,34.794 33.91,38.686  " fill="#F1F2F2"/>
  <path id="svg_7" fill="#F1F2F2" d="m44.457001,20.709c0.279999,-0.140999 0.420998,-0.494999 0.420998,-0.92c0,-0.425999 -0.140999,-0.706999 -0.420998,-0.92c-0.284,-0.140999 -0.778999,-0.140999 -1.205002,-0.140999l-2.902,0l0,2.192999l2.902,0c0.496002,0.001001 0.851002,0.001001 1.205002,-0.212z"/>
  <path id="svg_8" fill="#F1F2F2" d="m54.577,35.994999c-0.285999,-0.211998 -0.708,-0.211998 -1.132,-0.211998l-2.904999,0l0,2.264l2.904999,-0.07c0.424,0 0.775002,0 1.132,-0.141003c0.281002,-0.211998 0.493,-0.563 0.493,-0.990997c0,-0.422001 -0.211998,-0.708 -0.493,-0.850002z"/>
  <path id="svg_9" fill="#F1F2F2" d="m43.039001,35.783001l-3.113003,0l0,2.549999l3.113003,0c0.849998,0 1.417999,-0.497002 1.417999,-1.347s-0.568001,-1.202999 -1.417999,-1.202999z"/>
  <path id="svg_10" fill="#0078A9" d="m73.263,37.624001l-1.276001,0c-0.353996,0 -0.635002,-0.069 -0.920998,-0.140999c-0.282005,-0.141003 -0.492004,-0.356003 -0.492004,-0.709003c0,-0.351997 0.069,-0.566998 0.352005,-0.778999c0.211998,-0.140999 0.498001,-0.140999 0.919998,-0.140999l4.389999,0l0,-2.122002l-4.740997,0c-2.550003,0 -3.399002,1.559002 -3.399002,2.972c0,3.113003 2.761002,2.972 4.953003,3.042c0.426994,0 0.709,0.071003 0.849998,0.216003c0.145996,0.141998 0.285995,0.422997 0.285995,0.704998s-0.140999,0.497002 -0.285995,0.638c-0.210999,0.140999 -0.492004,0.211998 -0.920006,0.211998l-4.600998,0l0,2.122002l4.600998,0c2.408005,0 3.751007,-0.990002 3.751007,-3.112999c0,-0.990002 -0.282005,-1.629002 -0.704002,-2.121002c-0.570999,-0.499001 -1.420998,-0.780998 -2.763,-0.780998z"/>
  <path id="svg_11" fill="#0078A9" d="m40.349998,22.975l2.549,0c0.850002,0 1.415001,0.07 1.769001,0.424999c0.427002,0.495001 0.353001,1.345001 0.353001,1.911001l0,1.272999l2.407001,0l0,-1.98c0,-0.85 -0.069,-1.275 -0.422001,-1.77c-0.216,-0.284 -0.638,-0.639 -1.136002,-0.85c0.638,-0.285 1.699001,-1.063 1.699001,-2.620998c0,-1.131001 -0.493,-1.767 -1.271999,-2.262001c-0.778,-0.426001 -1.629002,-0.426001 -2.829002,-0.426001l-5.451,0l0,9.908001l2.334003,0l0,-3.608l-0.001003,0zm0,-4.246l2.902,0c0.426003,0 0.921001,0 1.205002,0.141001c0.279999,0.212999 0.420998,0.493999 0.420998,0.92c0,0.424999 -0.140999,0.778999 -0.420998,0.919998c-0.354,0.213001 -0.709,0.213001 -1.205002,0.213001l-2.902,0l0,-2.194z"/>
  <rect id="svg_12" y="16.676" x="48.916" width="2.403" height="9.908" fill="#0078A9"/>
  <path id="svg_13" fill="#0078A9" d="m57.196999,26.584l2.760002,0l0.917,-2.192999l4.957001,0l0.919998,2.192999l4.812004,0l0,-7.431999l4.460999,7.431999l3.394997,0l0,-9.907999l-2.403999,0l0,6.864l-4.178001,-6.864l-3.681,0l0,9.342999l-3.962997,-9.342999l-3.540001,0l-3.395,7.783998l-1.061001,0c-0.639,0 -1.277,-0.140999 -1.628998,-0.494999c-0.428001,-0.495001 -0.639,-1.271 -0.639,-2.336c0,-1.060999 0.210999,-1.84 0.639,-2.265999c0.493,-0.424002 0.989998,-0.564001 1.84,-0.564001l2.263,0l0,-2.122999l-2.263,0c-1.629002,0 -2.901001,0.352999 -3.609001,1.132c-1.062,1.062 -1.272999,2.406 -1.272999,3.892c0,1.771 0.424,2.903999 1.202,3.751999c0.848999,0.849001 2.334,1.132 3.468998,1.132zm6.155003,-8.211l1.630001,3.895l-3.258003,0l1.628002,-3.895z"/>
  <path id="svg_14" fill="#0078A9" d="m43.039001,33.731998l-7.572002,0l-3.042999,3.254002l-2.902,-3.254002l-9.553999,0l0,9.906002l9.413,0l3.042999,-3.254002l2.901001,3.254002l4.600998,0l0,-3.324001l2.973,0c2.051003,0 4.106003,-0.568001 4.106003,-3.327999c0,-2.689999 -2.127003,-3.254002 -3.966,-3.254002zm-14.861002,7.855003l-5.873999,0l0,-1.981003l5.237,0l0,-1.980999l-5.237,0l0,-1.841l5.945,0l2.618999,2.902l-2.690001,2.901001zm9.412001,1.205997l-3.68,-4.106998l3.68,-3.892002l0,7.999001zm5.449001,-4.459999l-3.113003,0l0,-2.549999l3.113003,0c0.849998,0 1.417999,0.354 1.417999,1.202999s-0.568001,1.347 -1.417999,1.347z"/>
  <polygon id="svg_15" points="36.316,24.531 30.797,24.531 30.797,22.55 36.246,22.55 36.246,20.498 30.797,20.498    30.797,18.729 36.316,18.729 36.316,16.676 28.389,16.676 28.389,26.584 36.316,26.584  " fill="#0078A9"/>
  <path id="svg_16" fill="#0078A9" d="m57.688999,36.423c0,-1.132 -0.422001,-1.771 -1.201,-2.196999c-0.778999,-0.423 -1.698997,-0.493 -2.900997,-0.493l-5.450001,0l0,9.905998l2.403,0l0,-3.605999l2.549,0c0.849998,0 1.348,0.070999 1.700001,0.423c0.426998,0.493999 0.426998,1.343998 0.426998,1.980999l0,1.202l2.334,0l0,-1.910999c0,-0.920002 -0.07,-1.343002 -0.353001,-1.84c-0.216,-0.282001 -0.639,-0.633999 -1.206997,-0.850002c0.639999,-0.211998 1.698997,-1.060997 1.698997,-2.614998zm-3.112,1.412998c-0.355999,0.141003 -0.708,0.141003 -1.132,0.141003l-2.904999,0.07l0,-2.264l2.904999,0c0.424,0 0.846001,0 1.132,0.211998c0.281002,0.142002 0.493,0.428001 0.493,0.850002c0,0.426998 -0.211998,0.778999 -0.493,0.990997z"/>
  <polygon id="svg_17" points="59.033,43.639 66.962,43.639 66.962,41.587 61.37,41.587 61.37,39.605 66.822,39.605    66.822,37.624 61.37,37.624 61.37,35.783 66.962,35.783 66.962,33.732 59.033,33.732  " fill="#0078A9"/>
  <path id="svg_18" fill="#0078A9" d="m10.413,26.584l4.813,0l0,-7.785l3.468,7.785l2.052999,0l3.468,-7.785l0,7.785l2.406,0l0,-9.907999l-3.893,0l-2.901001,6.723999l-3.112999,-6.723999l-3.824,0l0,9.342999l-4.034,-9.342999l-3.54,0l-4.246,9.907999l2.548,0l0.92,-2.192999l4.954,0l0.921,2.192999zm-5.025,-4.316l1.628,-3.895l1.627,3.895l-3.255,0z"/>
  <path id="svg_19" fill="none" d="m57.688999,36.423c0,-1.132 -0.422001,-1.771 -1.201,-2.196999c-0.778999,-0.423 -1.698997,-0.493 -2.900997,-0.493l-5.450001,0l0,9.905998l2.403,0l0,-3.605999l2.549,0c0.849998,0 1.348,0.070999 1.700001,0.423c0.426998,0.493999 0.426998,1.343998 0.426998,1.980999l0,1.202l2.334,0l0,-1.910999c0,-0.920002 -0.07,-1.343002 -0.353001,-1.84c-0.216,-0.282001 -0.639,-0.633999 -1.206997,-0.850002c0.639999,-0.211998 1.698997,-1.060997 1.698997,-2.614998z"/>
  <polygon id="svg_20" points="59.033,43.639 66.962,43.639 66.962,41.587 61.37,41.587 61.37,39.605 66.822,39.605 66.822,37.624    61.37,37.624 61.37,35.783 66.962,35.783 66.962,33.732 59.033,33.732  " fill="none"/>
  <path id="svg_21" fill="none" d="m43.039001,33.731998l-7.572002,0l-3.042999,3.254002l-2.902,-3.254002l-9.553999,0l0,9.906002l9.413,0l3.042999,-3.254002l2.901001,3.254002l4.600998,0l0,-3.324001l2.973,0c2.051003,0 4.106003,-0.568001 4.106003,-3.327999c0,-2.689999 -2.127003,-3.254002 -3.966,-3.254002z"/>
  <path id="svg_22" fill="none" d="m77.365997,36.703999c0,3.113003 2.760002,2.972 4.953003,3.042c0.427002,0 0.709,0.071003 0.849998,0.216003c0.140999,0.141998 0.280998,0.422997 0.280998,0.704998s-0.140999,0.497002 -0.280998,0.638s-0.492996,0.211998 -0.919998,0.211998l-4.600998,0l0,2.122002l4.600998,0c1.496002,0 2.580002,-0.383999 3.187996,-1.183998l0,-3.851002c-0.048996,-0.066002 -0.091995,-0.139 -0.145996,-0.200001c-0.563004,-0.498001 -1.413002,-0.779999 -2.755997,-0.779999l-1.277,0c-0.353004,0 -0.634003,-0.069 -0.920006,-0.140999c-0.281998,-0.141003 -0.492996,-0.356003 -0.492996,-0.709003c0,-0.351997 0.140999,-0.566998 0.352997,-0.778999c0.210999,-0.140999 0.497002,-0.140999 0.919998,-0.140999l4.319,0l0,-2.122002l-4.670998,0c-2.479996,0 -3.400002,1.559002 -3.400002,2.972z"/>
  <rect id="svg_23" y="33.732" x="85.437" width="0.069" height="2.122" fill="none"/>
  <path id="svg_24" fill="#0078A9" d="m85.713997,41.976002c0.027,-0.061001 0.050003,-0.125 0.073006,-0.188004c0.046997,-0.126999 0.084999,-0.259998 0.115997,-0.398998c0.014,-0.063999 0.029999,-0.127998 0.041,-0.195c0.033997,-0.210999 0.056,-0.43 0.056,-0.668999c0,-0.229 -0.017998,-0.438 -0.046997,-0.631001c-0.016006,-0.105 -0.042999,-0.197002 -0.066002,-0.294003c-0.017998,-0.073997 -0.033005,-0.151997 -0.056,-0.222c-0.040001,-0.123997 -0.089005,-0.236 -0.141998,-0.345997c-0.012001,-0.025002 -0.023003,-0.053001 -0.036003,-0.077c-0.103996,-0.202003 -0.222,-0.390003 -0.362,-0.552002c-0.563004,-0.498001 -1.413002,-0.779999 -2.755997,-0.779999l-1.277,0c-0.353004,0 -0.634003,-0.069 -0.920006,-0.141003c-0.281998,-0.140999 -0.492996,-0.355999 -0.492996,-0.709c0,-0.351997 0.140999,-0.566998 0.352997,-0.778999c0.210999,-0.140999 0.497002,-0.140999 0.919998,-0.140999l4.389008,0l0,-2.122002l-4.740005,0c-2.478996,0 -3.399002,1.559002 -3.399002,2.972c0,3.113003 2.760002,2.972 4.953003,3.042c0.427002,0 0.709,0.071003 0.849998,0.216c0.140999,0.142002 0.281006,0.423 0.281006,0.705002s-0.141006,0.496998 -0.281006,0.638s-0.492996,0.211998 -0.919998,0.211998l-4.600998,0l0,2.122002l4.600998,0c1.550003,0 2.651001,-0.417 3.245003,-1.276001c0.081001,-0.119999 0.154999,-0.249001 0.217995,-0.385998z"/>
  <path id="svg_25" fill="none" d="m73.263,37.624001l-1.276001,0c-0.353996,0 -0.635002,-0.069 -0.920998,-0.140999c-0.282005,-0.141003 -0.492004,-0.356003 -0.492004,-0.709003c0,-0.351997 0.069,-0.566998 0.352005,-0.778999c0.211998,-0.140999 0.498001,-0.140999 0.919998,-0.140999l4.389999,0l0,-2.122002l-4.740997,0c-2.550003,0 -3.399002,1.559002 -3.399002,2.972c0,3.113003 2.761002,2.972 4.953003,3.042c0.426994,0 0.709,0.071003 0.849998,0.216003c0.145996,0.141998 0.285995,0.422997 0.285995,0.704998s-0.140999,0.497002 -0.285995,0.638c-0.210999,0.140999 -0.492004,0.211998 -0.920006,0.211998l-4.600998,0l0,2.122002l4.600998,0c2.408005,0 3.751007,-0.990002 3.751007,-3.112999c0,-0.990002 -0.282005,-1.629002 -0.704002,-2.121002c-0.570999,-0.499001 -1.420998,-0.780998 -2.763,-0.780998z"/>
  <path id="svg_26" fill="#0078A9" d="m81.046997,31.750999l4.389999,0l0.563004,0l0,-28.385999c0,-0.552 -0.216003,-1.054 -0.563004,-1.456c-0.474998,-0.55 -1.202995,-0.909 -2.029999,-0.909l-79.813998,0c-1.432,0 -2.593,1.059 -2.593,2.365l0,17.912l2.901,-6.585l6.158,0l0.85,1.63l0,-1.63l7.219,0l1.628,3.54l1.556999,-3.54l23.000999,0c1.063,0 1.982002,0.214 2.691002,0.78l0,-0.78l6.295998,0l0,0.78c1.065002,-0.566 2.408001,-0.78 3.967003,-0.78l9.126995,0l0.850006,1.63l0,-1.63l6.723999,0l0.988998,1.63l0,-1.63l6.582001,0l0,13.873l-6.651001,0l-1.273003,-2.124001l0,2.124001l-8.280998,0l-0.919998,-2.265001l-2.052002,0l-0.919998,2.265001l-4.319,0c-1.695,0 -2.972,-0.425001 -3.820999,-0.85l0,0.85l-10.264,0l0,-3.185001c0,-0.425999 -0.07,-0.495998 -0.352001,-0.495998l-0.355,0l0,3.681l-19.816,0l0,-1.77l-0.708,1.77l-4.176001,0l-0.708,-1.699001l0,1.699001l-7.997,0l-0.85,-2.265001l-2.052999,0l-0.92,2.265001l-4.104,0l0,24.069998c0,1.306004 1.161,2.365002 2.593,2.365002l79.813998,0c0.827003,0 1.555,-0.359001 2.028999,-0.909c0.348,-0.403 0.564003,-0.903 0.564003,-1.454998l0,-8.178001c-0.084,0.354 -0.563004,0.528 -0.563004,0.528c-0.919998,0.422001 -2.196999,0.638 -3.469994,0.638l-6.159004,0l0,-0.850002c-0.704002,0.563004 -1.980995,0.850002 -3.183998,0.850002l-19.394001,0l0,-3.188c0,-0.423 -0.070999,-0.423 -0.423,-0.423l-0.355999,0l0,3.610001l-6.366001,0l0,-3.755001c-1.064999,0.497002 -2.266998,0.497002 -3.327,0.497002l-0.709,0l0,3.257999l-7.785,0l-1.84,-2.125999l-2.052999,2.125999l-12.526001,0l0,-13.872002l12.739,0l1.84,2.122002l1.980999,-2.122002l8.563,0c0.990002,0 2.618,0.142 3.327,0.850002l0,-0.850002l7.643002,0c0.779999,0 2.264,0.142 3.258999,0.850002l0,-0.850002l11.535004,0l0,0.850002c0.638,-0.568001 1.840996,-0.850002 2.900002,-0.850002l6.440994,0l0,0.850002c0.710999,-0.498001 1.701004,-0.850002 2.973999,-0.850002z"/>
  <path id="svg_27" fill="#F1F2F2" d="m85.436996,31.750999l-4.389999,0c-1.271996,0 -2.263,0.352001 -2.973,0.850002l0,-0.850002l-6.440994,0c-1.060005,0 -2.263,0.281002 -2.900002,0.850002l0,-0.850002l-11.536003,0l0,0.850002c-0.994999,-0.708002 -2.479,-0.850002 -3.258999,-0.850002l-7.643002,0l0,0.850002c-0.709,-0.708002 -2.336998,-0.850002 -3.327,-0.850002l-8.563,0l-1.980999,2.122002l-1.84,-2.122002l-12.739,0l0,13.873001l12.526001,0l2.052999,-2.125999l1.84,2.125999l7.785,0l0,-3.257999l0.709,0c1.061001,0 2.262001,0 3.327,-0.497002l0,3.755001l6.366001,0l0,-3.610001l0.355999,0c0.352001,0 0.423,0 0.423,0.423l0,3.188l19.394001,0c1.201996,0 2.478996,-0.285999 3.183998,-0.849998l0,0.849998l6.159004,0c1.271996,0 2.549995,-0.216 3.469994,-0.638c0,0 0.479004,-0.174999 0.563004,-0.528l0,-3.932999c0,0.804001 -0.194,1.443001 -0.563004,1.93c-0.606995,0.799999 -1.690994,1.183998 -3.187996,1.183998l-4.600998,0l0,-2.121998l4.600998,0c0.427002,0 0.778999,-0.071003 0.919998,-0.212002s0.280998,-0.355 0.280998,-0.638s-0.140999,-0.563 -0.280998,-0.704998c-0.140999,-0.145 -0.422997,-0.216 -0.849998,-0.216c-2.193001,-0.07 -4.953003,0.070999 -4.953003,-3.042c0,-1.413002 0.920006,-2.972 3.399002,-2.972l4.670998,0l0.069,0l0,2.121998l-0.069,0l-4.319,0c-0.422997,0 -0.709,0 -0.919998,0.140999c-0.211998,0.212002 -0.352997,0.428001 -0.352997,0.779003c0,0.352997 0.210999,0.567997 0.492996,0.709c0.286003,0.070999 0.567001,0.140999 0.920006,0.140999l1.276993,0c1.343002,0 2.192001,0.282001 2.756004,0.779999c0.054001,0.062 0.097,0.134003 0.145996,0.200001c0.340004,0.465 0.564003,1.054001 0.564003,1.920002l0,-8.774002l-0.563004,0zm-42.538998,8.563l-2.973,0l0,3.324001l-4.600998,0l-2.901001,-3.254002l-3.043001,3.254002l-9.412998,0l0,-9.906002l9.553999,0l2.902,3.254002l3.042999,-3.254002l7.571999,0c1.839001,0 3.966003,0.563 3.966003,3.254002c0.000999,2.759998 -2.055,3.327999 -4.106003,3.327999zm14.299,-0.425999c0.282001,0.496998 0.353001,0.919998 0.353001,1.84l0,1.910999l-2.334,0l0,-1.202c0,-0.638 0,-1.487 -0.426998,-1.980999c-0.353001,-0.352001 -0.851002,-0.423 -1.700001,-0.423l-2.549,0l0,3.605999l-2.403,0l0,-9.905998l5.450001,0c1.202,0 2.121998,0.07 2.900997,0.493c0.778999,0.426998 1.201,1.064999 1.201,2.196999c0,1.554001 -1.059998,2.403 -1.698997,2.614998c0.568996,0.216003 0.990997,0.567001 1.206997,0.850002zm9.764999,-4.105l-5.591999,0l0,1.841l5.452,0l0,1.980999l-5.452,0l0,1.980999l5.591999,0l0,2.052002l-7.928997,0l0,-9.906002l7.928997,0l0,2.051003zm6.014999,7.855999l-4.600998,0l0,-2.122002l4.600998,0c0.428001,0 0.709,-0.070999 0.920006,-0.211998c0.145996,-0.140999 0.285995,-0.355 0.285995,-0.638s-0.140999,-0.563 -0.285995,-0.704998c-0.141006,-0.145 -0.423004,-0.216003 -0.850006,-0.216003c-2.191994,-0.07 -4.952995,0.071003 -4.952995,-3.042c0,-1.412998 0.849998,-2.972 3.398994,-2.972l4.741005,0l0,2.122002l-4.389999,0c-0.422005,0 -0.708,0 -0.919998,0.140999c-0.282005,0.212002 -0.352005,0.428001 -0.352005,0.778999c0,0.353001 0.209999,0.568001 0.492004,0.709003c0.285995,0.070999 0.566994,0.140999 0.920998,0.140999l1.276001,0c1.342995,0 2.192001,0.281998 2.761002,0.779999c0.421997,0.492001 0.703995,1.131001 0.703995,2.121002c0.001999,2.122997 -1.340996,3.113998 -3.749001,3.113998z"/>
 </g>
</svg>