<svg width="512" height="512" xmlns="http://www.w3.org/2000/svg">

 <g>
  <title>background</title>
  <rect fill="none" id="canvas_background" height="402" width="582" y="-1" x="-1"/>
 </g>
 <g>
  <title>Layer 1</title>
  <path id="svg_3" d="m432.770996,228.354004c9.243011,-1.908997 14.283997,-8.097 14.283997,-17.722c0,-21.771011 -23.145996,-18.639008 -40.40799,-18.639008l-0.001007,62.639008l12.222992,0l0,-25.055008l1.681,0l16.958008,25.055008l14.972992,0l-19.709991,-26.278zm-10.313995,-7.333008l-3.588989,0l0,-19.019989l3.741974,0c7.715027,0 11.917023,3.206985 11.917023,9.242996c0,6.416 -4.201996,9.776993 -12.070007,9.776993z"/>
  <polygon id="svg_4" points="363.943,192.07 398.549,192.07 398.549,202.764 376.168,202.764 376.168,216.668 397.784,216.668     397.784,227.208 376.168,227.208 376.168,244.167 398.549,244.167 398.549,254.708 363.943,254.708   "/>
  <polygon id="svg_5" points="311.465,192.07 328.194,234.236 345.153,192.07 358.521,192.07 331.403,256.389 324.834,256.389 298.097,192.07       "/>
  <path id="svg_6" fill="#FF6F00" d="m268.764008,189.779007c18.868011,0 34.070007,15.277008 34.070007,34.069c0,18.867996 -15.278992,34.069992 -34.070007,34.069992c-18.867996,0 -34.069,-15.278992 -34.069,-34.069992c-0.001007,-18.868011 15.278992,-34.069 34.069,-34.069z"/>
  <path id="svg_7" d="m231.104004,194.438004l0,14.513992c-15.352997,-15.353989 -35.749008,-3.588989 -35.749008,14.514008c0,19.097992 21.005997,29.410995 35.749008,14.666992l0,14.514008c-22.686996,10.923004 -48.354004,-4.354004 -48.354004,-29.181c0,-23.834 25.285004,-40.486008 48.354004,-29.028z"/>
  <path id="svg_8" d="m156.854996,245.082993c8.708008,0 17.111008,-11.686996 -2.520996,-18.638c-11.457001,-4.201996 -15.429993,-8.708008 -15.429993,-17.339996c0,-17.723007 23.373993,-23.986008 37.964996,-10.922012l-6.417007,8.248001c-7.944,-8.860001 -19.020996,-4.735992 -19.020996,1.912003c0,3.360001 2.063004,5.268997 9.395996,7.865997c13.903,5.042007 18.028,9.550003 18.028,19.555008c0,22.535995 -29.638992,28.570999 -43.235992,8.632004l7.869003,-7.562012c2.824997,5.423019 7.560989,8.249008 13.366989,8.249008l0,0z"/>
  <rect id="svg_9" y="192.07" x="118.66" width="12.223" height="62.638"/>
  <path id="svg_12" d="m79.320999,192.070007l-17.875999,0l0,62.638l17.875,0c23.604004,0 33.687004,-17.110001 33.687004,-31.242004c0.000999,-18.410004 -13.749001,-31.395996 -33.686005,-31.395996zm14.282997,47.207993c-3.742996,3.361008 -8.861,4.889008 -16.728996,4.889008l-3.209,0l0,-41.403l3.209,0c7.867996,0 12.757004,1.298996 16.728996,5.040985c4.354004,3.821014 6.799004,9.625 6.799004,15.660004c0.000999,6.035004 -2.445,11.839996 -6.799004,15.813004z"/>
 </g>
</svg>