<svg width="512" height="512" xmlns="http://www.w3.org/2000/svg">

 <g>
  <title>background</title>
  <rect fill="none" id="canvas_background" height="402" width="582" y="-1" x="-1"/>
 </g>
 <g>
  <title>Layer 1</title>
  <path id="svg_2" fill-rule="evenodd" clip-rule="evenodd" fill="#005BAC" d="m211.993286,184.445007l-23.464996,144.208008l37.541992,0l23.468002,-144.208008l-37.544998,0zm-55.052002,0l-35.793999,99.184998l-4.234001,-21.358002l0.002998,0.007019l-0.932999,-4.787018c-4.332001,-9.335999 -14.364998,-27.080002 -33.309998,-42.222992c-5.601006,-4.475998 -11.247002,-8.296005 -16.705002,-11.559006l32.530998,124.943008l39.115997,0l59.733002,-144.208008l-40.406998,0zm146.520996,40.034988c0,-16.304001 36.562988,-14.209 52.628998,-5.356003l5.356995,-30.972c0,0 -16.533997,-6.287994 -33.767975,-6.287994c-18.632019,0 -62.875,8.147995 -62.875,47.738998c0,37.259979 51.927979,37.722992 51.927979,57.285004c0,19.561981 -46.574005,16.065979 -61.944,3.725983l-5.585999,32.373016c0,0 16.763,8.14798 42.382019,8.14798c25.615997,0 64.271973,-13.270996 64.271973,-49.369965c0,-37.493011 -52.394989,-40.985016 -52.394989,-57.285019zm153.200012,-40.034988l-30.184998,0c-13.937988,0 -17.332001,10.747009 -17.332001,10.747009l-55.988007,133.460999l39.131012,0l7.828003,-21.419006l47.727997,0l4.402985,21.419006l34.472015,0l-30.057007,-144.208008zm-45.72702,93.195984l19.727997,-53.966003l11.097992,53.966003l-30.825989,0z"/>
  <path id="svg_4" fill-rule="evenodd" clip-rule="evenodd" fill="#005bac" d="m104.132004,198.022003c0,0 -1.554001,-13.014999 -18.144005,-13.014999l-60.272999,0l-0.705999,2.445999c0,0 28.971998,5.905991 56.767,28.03299c26.561996,21.14801 35.226997,47.51001 35.226997,47.51001l-12.870995,-64.973999z"/>
 </g>
</svg>