<svg fill="none" height="24" viewBox="0 0 24 24" width="24" xmlns="http://www.w3.org/2000/svg"><g clip-rule="evenodd" fill="#fbfbfc" fill-rule="evenodd"><path d="m3.72793 2.03781c.43061-.12175.8897.05741 1.12402.43865l7.13915 11.61554 7.1575-11.61649c.2347-.38081.6937-.55949 1.124-.43755.4304.12194.7274.51483.7274.96213v18.00001c0 .5523-.4477 1-1 1s-1-.4477-1-1v-14.47073l-6.1586 9.99533c-.1822.2956-.5047.4756-.852.4754-.3472-.0002-.6695-.1805-.8514-.4764l-6.138-9.98681v14.46321c0 .5523-.44772 1-1 1s-1-.4477-1-1v-18.00001c0-.4475.29731-.84053.72793-.96228z"/><path d="m1 21c0-.5523.44772-1 1-1h4c.55228 0 1 .4477 1 1s-.44772 1-1 1h-4c-.55228 0-1-.4477-1-1z"/><path d="m17 21c0-.5523.4477-1 1-1h4c.5523 0 1 .4477 1 1s-.4477 1-1 1h-4c-.5523 0-1-.4477-1-1z"/><path d="m1 3c0-.55228.44772-1 1-1h5c.55228 0 1 .44772 1 1s-.44772 1-1 1h-5c-.55228 0-1-.44772-1-1z"/><path d="m16 3c0-.55228.4477-1 1-1h5c.5523 0 1 .44772 1 1s-.4477 1-1 1h-5c-.5523 0-1-.44772-1-1z"/></g></svg>