<svg width="512" height="512" viewBox="0 0 512 512" fill="none" xmlns="http://www.w3.org/2000/svg">
<path d="M326.008 499.256C320.301 499.265 314.732 497.508 310.064 494.224L256 456.4L201.92 494.232C198.389 496.682 194.342 498.288 190.091 498.923C185.841 499.558 181.501 499.207 177.408 497.896C173.325 496.556 169.606 494.293 166.539 491.282C163.473 488.271 161.142 484.594 159.728 480.536L138.224 418.136L72.256 416.936C67.963 416.843 63.7492 415.762 59.941 413.779C56.1328 411.795 52.8326 408.961 50.296 405.496C47.7794 402.013 46.0993 397.997 45.3861 393.76C44.673 389.523 44.946 385.179 46.184 381.064L65.392 317.928L12.752 278.16C5.84 272.944 1.72 264.656 1.72 255.992C1.72 247.328 5.848 239.04 12.76 233.824L65.392 194.048L46.184 130.912C43.664 122.632 45.2 113.496 50.296 106.488C55.392 99.48 63.6 95.2 72.264 95.048L138.232 93.84L159.744 31.456C161.155 27.3939 163.485 23.7127 166.553 20.7C169.622 17.6872 173.345 15.4243 177.432 14.088C181.523 12.7717 185.862 12.4175 190.113 13.053C194.363 13.6886 198.409 15.2966 201.936 17.752L256 55.592L310.072 17.752C313.605 15.2987 317.655 13.6927 321.909 13.0586C326.163 12.4246 330.506 12.7796 334.6 14.096C338.682 15.4358 342.4 17.6992 345.465 20.7101C348.53 23.721 350.86 27.3983 352.272 31.456L373.776 93.848L439.744 95.056C444.038 95.147 448.253 96.2255 452.062 98.208C455.872 100.191 459.174 103.024 461.712 106.488C464.231 109.971 465.912 113.988 466.624 118.228C467.336 122.467 467.059 126.813 465.816 130.928L446.624 194.048L499.24 233.816C506.152 239.032 510.288 247.32 510.288 255.984C510.288 264.648 506.16 272.936 499.24 278.152L446.616 317.928L465.816 381.064C467.058 385.177 467.333 389.521 466.62 393.758C465.907 397.994 464.224 402.009 461.704 405.488C459.17 408.954 455.872 411.79 452.065 413.776C448.258 415.761 444.045 416.843 439.752 416.936L373.776 418.136L352.272 480.528C350.857 484.586 348.526 488.264 345.46 491.276C342.393 494.288 338.675 496.553 334.592 497.896C331.808 498.8 328.928 499.256 326.008 499.256ZM185.984 36.736C185.199 36.7375 184.434 36.9831 183.794 37.439C183.155 37.8948 182.673 38.5382 182.416 39.28L158.168 109.6C156.528 114.368 152.08 117.6 147.04 117.688L72.68 119.048C72.0955 119.062 71.522 119.21 71.0042 119.481C70.4864 119.753 70.0382 120.14 69.6945 120.613C69.3509 121.086 69.1209 121.632 69.0227 122.208C68.9244 122.785 68.9604 123.376 69.128 123.936L90.776 195.088C91.4903 197.439 91.466 199.952 90.7063 202.288C89.9466 204.624 88.4882 206.671 86.528 208.152L27.208 252.984C26.7451 253.339 26.3701 253.795 26.112 254.318C25.8539 254.841 25.7197 255.417 25.7197 256C25.7197 256.583 25.8539 257.159 26.112 257.682C26.3701 258.205 26.7451 258.661 27.208 259.016L86.528 303.848C88.4882 305.329 89.9466 307.376 90.7063 309.712C91.466 312.048 91.4903 314.561 90.776 316.912L69.128 388.064C68.9601 388.624 68.924 389.216 69.0227 389.792C69.1214 390.369 69.3522 390.915 69.6969 391.387C70.0416 391.86 70.491 392.246 71.0099 392.516C71.5288 392.787 72.1032 392.933 72.688 392.944L147.04 394.304C152.08 394.4 156.528 397.632 158.168 402.392L182.408 472.712C182.597 473.267 182.912 473.771 183.33 474.183C183.747 474.594 184.255 474.903 184.813 475.084C185.37 475.265 185.963 475.313 186.542 475.225C187.122 475.137 187.673 474.915 188.152 474.576L249.12 431.92C251.137 430.51 253.539 429.754 256 429.754C258.461 429.754 260.863 430.51 262.88 431.92L323.84 474.568C324.326 474.896 324.879 475.112 325.459 475.199C326.039 475.287 326.631 475.243 327.192 475.072C327.748 474.887 328.254 474.577 328.67 474.165C329.086 473.753 329.402 473.25 329.592 472.696L353.832 402.384C354.635 400.058 356.133 398.035 358.123 396.588C360.113 395.142 362.5 394.342 364.96 394.296L439.32 392.936C439.903 392.923 440.476 392.776 440.993 392.506C441.51 392.236 441.958 391.85 442.301 391.379C442.645 390.907 442.875 390.363 442.974 389.788C443.073 389.213 443.038 388.623 442.872 388.064L421.224 316.904C420.505 314.554 420.527 312.041 421.285 309.704C422.044 307.367 423.502 305.32 425.464 303.84L484.784 259.008C485.251 258.657 485.63 258.202 485.891 257.679C486.152 257.157 486.288 256.58 486.288 255.996C486.288 255.412 486.152 254.835 485.891 254.313C485.63 253.79 485.251 253.335 484.784 252.984L484.776 252.976L425.464 208.144C423.504 206.663 422.045 204.616 421.286 202.28C420.526 199.944 420.502 197.431 421.216 195.08L442.856 123.928C443.027 123.368 443.066 122.777 442.969 122.2C442.873 121.623 442.644 121.076 442.3 120.602C441.957 120.128 441.508 119.741 440.99 119.47C440.471 119.199 439.897 119.052 439.312 119.04L364.952 117.68C362.491 117.637 360.104 116.837 358.113 115.39C356.122 113.943 354.625 111.919 353.824 109.592L329.584 39.272C329.391 38.7169 329.072 38.2141 328.652 37.8034C328.232 37.3926 327.722 37.0851 327.163 36.9051C326.604 36.7252 326.01 36.6776 325.429 36.7663C324.848 36.8549 324.296 37.0774 323.816 37.416L262.872 80.064C260.855 81.4741 258.453 82.2304 255.992 82.2304C253.531 82.2304 251.129 81.4741 249.112 80.064L188.152 37.408C187.514 36.9693 186.758 36.7349 185.984 36.736Z" fill="black"/>
<path d="M133.749 288.321L116.384 245.136L125.514 241.465L139.852 277.122L158.366 269.677L161.393 277.205L133.749 288.321ZM159.205 227.917L176.57 271.102L167.439 274.774L150.074 231.589L159.205 227.917ZM166.717 224.897L177.977 220.369L201.537 244.601L202.043 244.398L202.268 210.601L213.528 206.073L230.894 249.258L222.037 252.819L210.735 224.711L210.376 224.855L210.418 257.246L204.388 259.671L181.952 236.163L181.593 236.307L192.938 264.52L184.082 268.081L166.717 224.897ZM230.181 199.377L247.546 242.561L238.416 246.233L221.051 203.048L230.181 199.377ZM239.076 204.545L236.049 197.017L271.516 182.755L274.543 190.283L261.322 195.6L275.66 231.257L266.635 234.886L252.297 199.229L239.076 204.545ZM294.722 223.592L277.357 180.407L306.456 168.706L309.483 176.233L289.514 184.263L293.652 194.553L312.124 187.126L315.151 194.653L296.679 202.081L300.825 212.392L320.878 204.329L323.905 211.856L294.722 223.592ZM346.389 202.816L331.08 208.971L313.715 165.787L329.15 159.58C333.494 157.833 337.581 157.194 341.411 157.663C345.235 158.117 348.638 159.615 351.62 162.156C354.615 164.691 357.014 168.201 358.818 172.685C360.627 177.183 361.331 181.391 360.93 185.308C360.543 189.22 359.116 192.676 356.648 195.677C354.194 198.673 350.775 201.052 346.389 202.816ZM337.065 197.477L342.863 195.145C345.562 194.06 347.641 192.669 349.098 190.973C350.563 189.256 351.353 187.2 351.467 184.802C351.589 182.385 351.003 179.567 349.708 176.348C348.425 173.157 346.906 170.739 345.15 169.093C343.408 167.442 341.424 166.509 339.198 166.293C336.972 166.078 334.51 166.513 331.811 167.598L325.991 169.938L337.065 197.477ZM161.432 360.181L144.067 316.996L173.166 305.295L176.193 312.823L156.224 320.853L160.362 331.143L178.834 323.715L181.861 331.243L163.389 338.671L167.536 348.982L187.589 340.918L190.616 348.446L161.432 360.181ZM213.099 339.405L197.79 345.561L180.425 302.376L195.86 296.17C200.204 294.423 204.291 293.784 208.121 294.252C211.946 294.707 215.349 296.204 218.33 298.745C221.325 301.281 223.725 304.79 225.528 309.275C227.337 313.773 228.041 317.981 227.64 321.898C227.253 325.81 225.826 329.266 223.358 332.267C220.905 335.262 217.485 337.642 213.099 339.405ZM203.775 334.067L209.574 331.735C212.273 330.65 214.351 329.259 215.808 327.562C217.274 325.846 218.063 323.789 218.177 321.392C218.299 318.975 217.713 316.157 216.419 312.938C215.136 309.747 213.616 307.328 211.86 305.683C210.118 304.032 208.134 303.098 205.909 302.883C203.683 302.667 201.22 303.102 198.521 304.188L192.701 306.528L203.775 334.067ZM232.756 281.333L250.121 324.518L240.991 328.19L223.626 285.005L232.756 281.333ZM241.65 286.502L238.623 278.974L274.091 264.712L277.118 272.24L263.897 277.556L278.235 313.213L269.21 316.842L254.872 281.185L241.65 286.502ZM289.062 258.692L306.427 301.877L297.297 305.548L279.932 262.363L289.062 258.692ZM344.941 261.306C346.835 266.015 347.553 270.381 347.096 274.402C346.653 278.418 345.25 281.914 342.886 284.889C340.531 287.845 337.449 290.088 333.639 291.62C329.802 293.164 326.007 293.677 322.256 293.16C318.504 292.644 315.079 291.09 311.979 288.499C308.879 285.907 306.385 282.264 304.497 277.569C302.604 272.86 301.878 268.497 302.321 264.481C302.764 260.466 304.163 256.98 306.518 254.024C308.868 251.054 311.962 248.798 315.799 247.255C319.609 245.723 323.389 245.215 327.141 245.732C330.901 246.228 334.33 247.772 337.43 250.364C340.544 252.949 343.047 256.597 344.941 261.306ZM335.684 265.028C334.458 261.978 332.966 259.589 331.21 257.862C329.468 256.129 327.557 255.052 325.477 254.631C323.397 254.21 321.254 254.443 319.047 255.331C316.84 256.218 315.131 257.534 313.922 259.278C312.713 261.021 312.072 263.124 312.001 265.586C311.943 268.043 312.528 270.796 313.754 273.847C314.981 276.897 316.465 279.289 318.207 281.022C319.963 282.749 321.881 283.823 323.961 284.244C326.041 284.665 328.185 284.432 330.392 283.544C332.599 282.657 334.307 281.341 335.517 279.597C336.726 277.854 337.359 275.753 337.417 273.297C337.488 270.835 336.911 268.079 335.684 265.028ZM379.143 222.469L396.508 265.654L388.622 268.825L358.904 249.2L358.588 249.327L369.517 276.507L360.387 280.179L343.022 236.994L351.035 233.772L380.596 253.436L380.976 253.283L370.055 226.124L379.143 222.469Z" fill="black"/>
</svg>
