<?xml version="1.0" encoding="UTF-8" standalone="no"?>
<!DOCTYPE svg PUBLIC "-//W3C//DTD SVG 1.1//EN" "http://www.w3.org/Graphics/SVG/1.1/DTD/svg11.dtd">
<svg width="100%" height="100%" viewBox="0 0 512 512" version="1.1" xmlns="http://www.w3.org/2000/svg" xmlns:xlink="http://www.w3.org/1999/xlink" xml:space="preserve" xmlns:serif="http://www.serif.com/" style="fill-rule:evenodd;clip-rule:evenodd;stroke-linejoin:round;stroke-miterlimit:2;">
    <path d="M326.008,499.256C320.301,499.265 314.732,497.508 310.064,494.224L256,456.4L201.92,494.232C198.389,496.682 194.342,498.288 190.091,498.923C185.841,499.558 181.501,499.207 177.408,497.896C173.325,496.556 169.606,494.293 166.539,491.282C163.473,488.271 161.142,484.594 159.728,480.536L138.224,418.136L72.256,416.936C67.963,416.843 63.749,415.762 59.941,413.779C56.133,411.795 52.833,408.961 50.296,405.496C47.779,402.013 46.099,397.997 45.386,393.76C44.673,389.523 44.946,385.179 46.184,381.064L65.392,317.928L12.752,278.16C5.84,272.944 1.72,264.656 1.72,255.992C1.72,247.328 5.848,239.04 12.76,233.824L65.392,194.048L46.184,130.912C43.664,122.632 45.2,113.496 50.296,106.488C55.392,99.48 63.6,95.2 72.264,95.048L138.232,93.84L159.744,31.456C161.155,27.394 163.485,23.713 166.553,20.7C169.622,17.687 173.345,15.424 177.432,14.088C181.523,12.772 185.862,12.418 190.113,13.053C194.363,13.689 198.409,15.297 201.936,17.752L256,55.592L310.072,17.752C313.605,15.299 317.655,13.693 321.909,13.059C326.163,12.425 330.506,12.78 334.6,14.096C338.682,15.436 342.4,17.699 345.465,20.71C348.53,23.721 350.86,27.398 352.272,31.456L373.776,93.848L439.744,95.056C444.038,95.147 448.253,96.226 452.062,98.208C455.872,100.191 459.174,103.024 461.712,106.488C464.231,109.971 465.912,113.988 466.624,118.228C467.336,122.467 467.059,126.813 465.816,130.928L446.624,194.048L499.24,233.816C506.152,239.032 510.288,247.32 510.288,255.984C510.288,264.648 506.16,272.936 499.24,278.152L446.616,317.928L465.816,381.064C467.058,385.177 467.333,389.521 466.62,393.758C465.907,397.994 464.224,402.009 461.704,405.488C459.17,408.954 455.872,411.79 452.065,413.776C448.258,415.761 444.045,416.843 439.752,416.936L373.776,418.136L352.272,480.528C350.857,484.586 348.526,488.264 345.46,491.276C342.393,494.288 338.675,496.553 334.592,497.896C331.808,498.8 328.928,499.256 326.008,499.256ZM185.984,36.736C185.199,36.738 184.434,36.983 183.794,37.439C183.155,37.895 182.673,38.538 182.416,39.28L158.168,109.6C156.528,114.368 152.08,117.6 147.04,117.688L72.68,119.048C72.096,119.062 71.522,119.21 71.004,119.481C70.486,119.753 70.038,120.14 69.695,120.613C69.351,121.086 69.121,121.632 69.023,122.208C68.924,122.785 68.96,123.376 69.128,123.936L90.776,195.088C91.49,197.439 91.466,199.952 90.706,202.288C89.947,204.624 88.488,206.671 86.528,208.152L27.208,252.984C26.745,253.339 26.37,253.795 26.112,254.318C25.854,254.841 25.72,255.417 25.72,256C25.72,256.583 25.854,257.159 26.112,257.682C26.37,258.205 26.745,258.661 27.208,259.016L86.528,303.848C88.488,305.329 89.947,307.376 90.706,309.712C91.466,312.048 91.49,314.561 90.776,316.912L69.128,388.064C68.96,388.624 68.924,389.216 69.023,389.792C69.121,390.369 69.352,390.915 69.697,391.387C70.042,391.86 70.491,392.246 71.01,392.516C71.529,392.787 72.103,392.933 72.688,392.944L147.04,394.304C152.08,394.4 156.528,397.632 158.168,402.392L182.408,472.712C182.597,473.267 182.912,473.771 183.33,474.183C183.747,474.594 184.255,474.903 184.813,475.084C185.37,475.265 185.963,475.313 186.542,475.225C187.122,475.137 187.673,474.915 188.152,474.576L249.12,431.92C251.137,430.51 253.539,429.754 256,429.754C258.461,429.754 260.863,430.51 262.88,431.92L323.84,474.568C324.326,474.896 324.879,475.112 325.459,475.199C326.039,475.287 326.631,475.243 327.192,475.072C327.748,474.887 328.254,474.577 328.67,474.165C329.086,473.753 329.402,473.25 329.592,472.696L353.832,402.384C354.635,400.058 356.133,398.035 358.123,396.588C360.113,395.142 362.5,394.342 364.96,394.296L439.32,392.936C439.903,392.923 440.476,392.776 440.993,392.506C441.51,392.236 441.958,391.85 442.301,391.379C442.645,390.907 442.875,390.363 442.974,389.788C443.073,389.213 443.038,388.623 442.872,388.064L421.224,316.904C420.505,314.554 420.527,312.041 421.285,309.704C422.044,307.367 423.502,305.32 425.464,303.84L484.784,259.008C485.251,258.657 485.63,258.202 485.891,257.679C486.152,257.157 486.288,256.58 486.288,255.996C486.288,255.412 486.152,254.835 485.891,254.313C485.63,253.79 485.251,253.335 484.784,252.984L484.776,252.976L425.464,208.144C423.504,206.663 422.045,204.616 421.286,202.28C420.526,199.944 420.502,197.431 421.216,195.08L442.856,123.928C443.027,123.368 443.066,122.777 442.969,122.2C442.873,121.623 442.644,121.076 442.3,120.602C441.957,120.128 441.508,119.741 440.99,119.47C440.471,119.199 439.897,119.052 439.312,119.04L364.952,117.68C362.491,117.637 360.104,116.837 358.113,115.39C356.122,113.943 354.625,111.919 353.824,109.592L329.584,39.272C329.391,38.717 329.072,38.214 328.652,37.803C328.232,37.393 327.722,37.085 327.163,36.905C326.604,36.725 326.01,36.678 325.429,36.766C324.848,36.855 324.296,37.077 323.816,37.416L262.872,80.064C260.855,81.474 258.453,82.23 255.992,82.23C253.531,82.23 251.129,81.474 249.112,80.064L188.152,37.408C187.514,36.969 186.758,36.735 185.984,36.736Z" style="fill-rule:nonzero;"/>
    <g transform="matrix(3.16719,-0.848645,0.848645,3.16719,-853.988,-129.9)">
        <g>
            <text x="245.037px" y="199.494px" style="font-family:'Arial-BoldMT', 'Arial', sans-serif;font-weight:700;font-size:14.639px;">TEMPORARIL<tspan x="340.469px " y="199.494px ">Y</tspan></text>
            <g transform="matrix(14.639,0,0,14.639,352.803,214.612)">
            </g>
            <text x="242.467px" y="214.612px" style="font-family:'Arial-BoldMT', 'Arial', sans-serif;font-weight:700;font-size:14.639px;">OUT OF ST<tspan x="320.272px 331.659px " y="214.612px 214.612px ">OC</tspan>K</text>
        </g>
    </g>
</svg>
