<svg width="512" height="512" viewBox="0 0 512 512" fill="none" xmlns="http://www.w3.org/2000/svg">
<path d="M326.008 499.256C320.301 499.265 314.732 497.508 310.064 494.224L256 456.4L201.92 494.232C198.389 496.682 194.342 498.288 190.091 498.923C185.841 499.558 181.501 499.207 177.408 497.896C173.325 496.556 169.606 494.293 166.539 491.282C163.473 488.271 161.142 484.594 159.728 480.536L138.224 418.136L72.256 416.936C67.963 416.843 63.7492 415.762 59.941 413.779C56.1328 411.795 52.8326 408.961 50.296 405.496C47.7794 402.013 46.0993 397.997 45.3861 393.76C44.673 389.523 44.946 385.179 46.184 381.064L65.392 317.928L12.752 278.16C5.84 272.944 1.72 264.656 1.72 255.992C1.72 247.328 5.848 239.04 12.76 233.824L65.392 194.048L46.184 130.912C43.664 122.632 45.2 113.496 50.296 106.488C55.392 99.48 63.6 95.2 72.264 95.048L138.232 93.84L159.744 31.456C161.155 27.3939 163.485 23.7127 166.553 20.7C169.622 17.6872 173.345 15.4243 177.432 14.088C181.523 12.7717 185.862 12.4175 190.113 13.053C194.363 13.6886 198.409 15.2966 201.936 17.752L256 55.592L310.072 17.752C313.605 15.2987 317.655 13.6927 321.909 13.0586C326.163 12.4246 330.506 12.7796 334.6 14.096C338.682 15.4358 342.4 17.6992 345.465 20.7101C348.53 23.721 350.86 27.3983 352.272 31.456L373.776 93.848L439.744 95.056C444.038 95.147 448.253 96.2255 452.062 98.208C455.872 100.191 459.174 103.024 461.712 106.488C464.231 109.971 465.912 113.988 466.624 118.228C467.336 122.467 467.059 126.813 465.816 130.928L446.624 194.048L499.24 233.816C506.152 239.032 510.288 247.32 510.288 255.984C510.288 264.648 506.16 272.936 499.24 278.152L446.616 317.928L465.816 381.064C467.058 385.177 467.333 389.521 466.62 393.758C465.907 397.994 464.224 402.009 461.704 405.488C459.17 408.954 455.872 411.79 452.065 413.776C448.258 415.761 444.045 416.843 439.752 416.936L373.776 418.136L352.272 480.528C350.857 484.586 348.526 488.264 345.46 491.276C342.393 494.288 338.675 496.553 334.592 497.896C331.808 498.8 328.928 499.256 326.008 499.256ZM185.984 36.736C185.199 36.7375 184.434 36.9831 183.794 37.439C183.155 37.8948 182.673 38.5382 182.416 39.28L158.168 109.6C156.528 114.368 152.08 117.6 147.04 117.688L72.68 119.048C72.0955 119.062 71.522 119.21 71.0042 119.481C70.4864 119.753 70.0382 120.14 69.6945 120.613C69.3509 121.086 69.1209 121.632 69.0227 122.208C68.9244 122.785 68.9604 123.376 69.128 123.936L90.776 195.088C91.4903 197.439 91.466 199.952 90.7063 202.288C89.9466 204.624 88.4882 206.671 86.528 208.152L27.208 252.984C26.7451 253.339 26.3701 253.795 26.112 254.318C25.8539 254.841 25.7197 255.417 25.7197 256C25.7197 256.583 25.8539 257.159 26.112 257.682C26.3701 258.205 26.7451 258.661 27.208 259.016L86.528 303.848C88.4882 305.329 89.9466 307.376 90.7063 309.712C91.466 312.048 91.4903 314.561 90.776 316.912L69.128 388.064C68.9601 388.624 68.924 389.216 69.0227 389.792C69.1214 390.369 69.3522 390.915 69.6969 391.387C70.0416 391.86 70.491 392.246 71.0099 392.516C71.5288 392.787 72.1032 392.933 72.688 392.944L147.04 394.304C152.08 394.4 156.528 397.632 158.168 402.392L182.408 472.712C182.597 473.267 182.912 473.771 183.33 474.183C183.747 474.594 184.255 474.903 184.813 475.084C185.37 475.265 185.963 475.313 186.542 475.225C187.122 475.137 187.673 474.915 188.152 474.576L249.12 431.92C251.137 430.51 253.539 429.754 256 429.754C258.461 429.754 260.863 430.51 262.88 431.92L323.84 474.568C324.326 474.896 324.879 475.112 325.459 475.199C326.039 475.287 326.631 475.243 327.192 475.072C327.748 474.887 328.254 474.577 328.67 474.165C329.086 473.753 329.402 473.25 329.592 472.696L353.832 402.384C354.635 400.058 356.133 398.035 358.123 396.588C360.113 395.142 362.5 394.342 364.96 394.296L439.32 392.936C439.903 392.923 440.476 392.776 440.993 392.506C441.51 392.236 441.958 391.85 442.301 391.379C442.645 390.907 442.875 390.363 442.974 389.788C443.073 389.213 443.038 388.623 442.872 388.064L421.224 316.904C420.505 314.554 420.527 312.041 421.285 309.704C422.044 307.367 423.502 305.32 425.464 303.84L484.784 259.008C485.251 258.657 485.63 258.202 485.891 257.679C486.152 257.157 486.288 256.58 486.288 255.996C486.288 255.412 486.152 254.835 485.891 254.313C485.63 253.79 485.251 253.335 484.784 252.984L484.776 252.976L425.464 208.144C423.504 206.663 422.045 204.616 421.286 202.28C420.526 199.944 420.502 197.431 421.216 195.08L442.856 123.928C443.027 123.368 443.066 122.777 442.969 122.2C442.873 121.623 442.644 121.076 442.3 120.602C441.957 120.128 441.508 119.741 440.99 119.47C440.471 119.199 439.897 119.052 439.312 119.04L364.952 117.68C362.491 117.637 360.104 116.837 358.113 115.39C356.122 113.943 354.625 111.919 353.824 109.592L329.584 39.272C329.391 38.7169 329.072 38.2141 328.652 37.8034C328.232 37.3926 327.722 37.0851 327.163 36.9051C326.604 36.7252 326.01 36.6776 325.429 36.7663C324.848 36.8549 324.296 37.0774 323.816 37.416L262.872 80.064C260.855 81.4741 258.453 82.2304 255.992 82.2304C253.531 82.2304 251.129 81.4741 249.112 80.064L188.152 37.408C187.514 36.9693 186.758 36.7349 185.984 36.736Z" fill="black"/>
<path d="M150.245 326.098C147.062 327.27 144.164 327.826 141.55 327.765C138.996 327.682 136.698 326.721 134.657 324.881C132.615 323.041 130.832 320.049 129.306 315.905L128.145 312.752C130.006 312.067 131.838 311.392 133.64 310.729C135.442 310.065 137.243 309.402 139.045 308.739L140.538 312.792C141.356 315.015 142.167 316.66 142.969 317.728C143.75 318.737 144.559 319.36 145.396 319.597C146.212 319.774 147.07 319.697 147.971 319.365C149.352 318.856 150.256 317.978 150.683 316.729C151.148 315.399 150.85 313.292 149.788 310.409C148.97 308.187 148.001 306.668 146.883 305.853C145.802 304.955 144.389 304.452 142.644 304.344C140.878 304.176 138.635 304.013 135.917 303.855C133.483 303.728 131.343 303.288 129.498 302.535C127.652 301.783 126.045 300.567 124.677 298.889C123.308 297.21 122.116 294.99 121.098 292.227C119.816 288.744 119.227 285.755 119.331 283.261C119.496 280.745 120.483 278.609 122.291 276.852C124.137 275.012 126.922 273.407 130.646 272.036C135.45 270.267 139.501 269.969 142.797 271.142C146.132 272.233 148.562 274.851 150.088 278.995L152.443 285.391C150.701 286.032 148.96 286.674 147.218 287.315C145.536 287.934 143.795 288.575 141.993 289.239L140.799 285.996C139.803 283.293 138.777 281.523 137.718 280.685C136.719 279.825 135.409 279.694 133.788 280.291C132.226 280.866 131.292 281.756 130.985 282.96C130.678 284.164 130.923 285.847 131.719 288.009C132.449 289.991 133.414 291.409 134.615 292.262C135.854 293.034 137.215 293.488 138.697 293.624C140.157 293.7 141.708 293.743 143.348 293.753C146.366 293.801 148.916 294.056 150.995 294.517C153.053 294.919 154.815 295.907 156.281 297.481C157.725 298.996 159.078 301.464 160.338 304.888C161.753 308.731 162.221 312.038 161.74 314.806C161.297 317.493 160.051 319.759 158.003 321.604C156.014 323.428 153.428 324.926 150.245 326.098ZM171.69 317.485L152.086 264.244L176.589 255.221L179.309 262.608L165.706 267.617L170.947 281.851L182.479 277.605L185.497 285.803L173.966 290.049L179.937 306.264L193.54 301.255L196.194 308.462L171.69 317.485ZM198.715 307.534L188.66 250.777L203.614 245.27L232.587 295.061L220.876 299.374L215.639 290.151L207.891 293.004L209.976 303.388L198.715 307.534ZM206.148 287.713L213.625 284.96L199.283 257.402L206.148 287.713ZM250.801 289.071C247.618 290.243 244.72 290.799 242.106 290.738C239.552 290.656 237.254 289.694 235.213 287.854C233.171 286.015 231.387 283.023 229.862 278.879L228.7 275.726C230.562 275.04 232.394 274.366 234.196 273.702C235.998 273.039 237.799 272.375 239.601 271.712L241.094 275.766C241.912 277.988 242.722 279.633 243.525 280.702C244.306 281.71 245.115 282.333 245.952 282.57C246.768 282.747 247.626 282.67 248.527 282.338C249.908 281.83 250.812 280.951 251.239 279.703C251.704 278.372 251.406 276.265 250.344 273.383C249.526 271.16 248.557 269.641 247.439 268.826C246.358 267.928 244.945 267.425 243.2 267.317C241.433 267.15 239.191 266.986 236.473 266.828C234.039 266.701 231.899 266.261 230.054 265.509C228.208 264.756 226.601 263.541 225.232 261.862C223.864 260.183 222.671 257.963 221.654 255.2C220.371 251.717 219.782 248.728 219.887 246.234C220.052 243.718 221.039 241.582 222.847 239.825C224.693 237.986 227.478 236.381 231.201 235.009C236.006 233.24 240.057 232.942 243.353 234.115C246.687 235.207 249.118 237.824 250.644 241.968L252.999 248.364C251.257 249.006 249.515 249.647 247.774 250.288C246.092 250.907 244.35 251.549 242.549 252.212L241.354 248.969C240.359 246.266 239.332 244.496 238.274 243.658C237.275 242.799 235.965 242.667 234.343 243.264C232.782 243.839 231.848 244.729 231.541 245.933C231.234 247.137 231.479 248.82 232.275 250.982C233.005 252.964 233.97 254.382 235.171 255.236C236.41 256.007 237.77 256.461 239.253 256.597C240.713 256.673 242.263 256.716 243.904 256.726C246.922 256.774 249.471 257.029 251.551 257.491C253.609 257.892 255.371 258.88 256.837 260.455C258.281 261.969 259.633 264.438 260.894 267.861C262.309 271.705 262.776 275.011 262.296 277.78C261.853 280.466 260.607 282.732 258.558 284.578C256.57 286.401 253.984 287.899 250.801 289.071ZM286.788 276.331C283.845 277.415 281.13 278.006 278.642 278.103C276.177 278.261 273.915 277.491 271.858 275.793C269.839 274.013 268.033 270.961 266.441 266.637L256.157 238.71C254.985 235.527 254.679 232.844 255.239 230.66C255.859 228.453 257.158 226.611 259.137 225.132C261.154 223.571 263.634 222.249 266.577 221.165C269.459 220.104 272.145 219.524 274.632 219.427C277.18 219.307 279.405 219.886 281.307 221.163C283.27 222.418 284.826 224.607 285.976 227.73L296.226 255.567C297.841 259.951 298.396 263.498 297.893 266.206C297.428 268.833 296.176 270.897 294.137 272.398C292.18 273.937 289.731 275.248 286.788 276.331ZM284.532 270.206C285.433 269.874 286.158 269.436 286.708 268.893C287.319 268.327 287.671 267.617 287.766 266.764C287.899 265.828 287.722 264.7 287.236 263.379L275.36 231.128C274.874 229.806 274.288 228.863 273.602 228.297C272.954 227.649 272.214 227.307 271.383 227.273C270.612 227.215 269.776 227.353 268.875 227.685C267.974 228.016 267.249 228.454 266.699 228.997C266.149 229.541 265.807 230.281 265.674 231.216C265.579 232.069 265.775 233.157 266.261 234.478L278.137 266.729C278.623 268.05 279.191 269.035 279.838 269.683C280.524 270.249 281.253 270.561 282.024 270.618C282.795 270.675 283.631 270.537 284.532 270.206ZM308.404 267.144L288.799 213.903L297.898 210.553L320.854 238.724L308.979 206.472L318.168 203.089L337.772 256.33L328.673 259.681L306.513 233.672L317.593 263.761L308.404 267.144ZM342.203 254.699L332.147 197.941L347.102 192.435L376.075 242.226L364.364 246.539L359.127 237.316L351.379 240.169L353.464 250.552L342.203 254.699ZM349.635 234.878L357.113 232.124L342.771 204.567L349.635 234.878ZM380.544 240.581L360.939 187.34L371.299 183.525L388.25 229.559L400.322 225.114L402.975 232.321L380.544 240.581Z" fill="black"/>
</svg>
