<svg viewBox="0 0 40 40" xml:space="preserve" xmlns="http://www.w3.org/2000/svg"><path clip-rule="evenodd" d="M34 9.5H6c-1.1 0-2 .9-2 2v17c0 1.1.9 2 2 2h28c1.1 0 2-.9 2-2v-17c0-1.1-.9-2-2-2z" fill="#006fcf" fill-rule="evenodd" class="fill-3498d8"></path><path clip-rule="evenodd" d="M10.7 20.3h1.6l-.8-2-.8 2zM33 16.5h-4.1l-1 1.1-.9-1.1h-8.7l-.8 1.8-.8-1.8h-3.5v.8l-.4-.8h-3l-2.9 7h3.5l.4-1.1h1l.4 1.1h3.9v-.8l.3.8h2l.3-.9v.9h8l1-1.1.9 1.1h4.1L30.1 20l2.9-3.5zm-12.1 6h-1.1v-3.9l-1.7 3.9h-1l-1.7-3.9v3.9h-2.3l-.4-1.1h-2.4l-.4 1.1H8.6l2.1-5h1.7l1.9 4.7v-4.7h1.9l1.5 3.4 1.4-3.4H21v5zm9.9 0h-1.5L28 20.8l-1.5 1.7H22v-5h4.6l1.4 1.6 1.5-1.6h1.4L28.7 20l2.1 2.5zm-7.7-4v.9h2.5v1h-2.5v1h2.8l1.3-1.5-1.2-1.4h-2.9z" fill="#FFFFFF" fill-rule="evenodd" class="fill-ffffff"></path></svg>