<svg width="512" height="512" xmlns="http://www.w3.org/2000/svg">

 <g>
  <title>background</title>
  <rect fill="none" id="canvas_background" height="402" width="582" y="-1" x="-1"/>
 </g>
 <g>
  <title>Layer 1</title>
  <path id="svg_2" d="m249.731995,191.912994l-40.889008,0l0,108.929993l16.931,0l0,-37.215973l23.399002,0c21.404007,0 36.417007,-14.693008 36.417007,-35.937027c0,-21.241989 -14.773987,-35.776993 -35.858002,-35.776993zm-4.552002,57.5l-19.404999,0l0,-43.285004l19.485992,0c14.694,0 23.080017,7.826996 23.080017,21.643005c0,13.736008 -8.386017,21.641998 -23.161011,21.641998z"/>
  <path id="svg_3" d="m325.520996,220.742996c-17.967987,0 -31.225983,10.302002 -31.704987,24.35701l15.252991,0c1.279999,-6.708008 7.507996,-11.100006 15.973999,-11.100006c10.381012,0 16.130005,4.791 16.130005,13.735992l0,5.989014l-21.080994,1.276993c-19.645996,1.198013 -30.268005,9.263992 -30.268005,23.238998c0,14.136017 10.940002,23.480011 26.674988,23.480011c10.619995,0 20.44101,-5.35202 24.915009,-13.897003l0.320007,0l0,13.096985l15.651978,0l0,-54.304001l0.07901,0c0,-15.730988 -12.618988,-25.873993 -31.944,-25.873993zm15.651001,50.472c0,10.222015 -8.623993,17.489014 -20.123993,17.489014c-9.024017,0 -14.774017,-4.313019 -14.774017,-10.938995c0,-6.869019 5.512024,-10.782013 16.132019,-11.502014l18.766998,-1.196014l0,6.14801l-0.001007,0z"/>
  <path id="svg_4" d="m129.063004,210.839996c6.709,0.557999 13.416,-3.354004 17.649994,-8.304993c4.153,-5.112 6.869003,-11.979004 6.149002,-18.927002c-5.910004,0.238998 -13.257004,3.912003 -17.488998,9.024002c-3.833008,4.391998 -7.108002,11.5 -6.309998,18.207993z"/>
  <path id="svg_5" d="m177.459,270.337006c-0.160004,-0.161011 -15.653,-6.069 -15.813004,-23.957993c-0.160004,-14.934006 12.219009,-22.122009 12.777008,-22.520996c-7.027008,-10.382004 -17.887009,-11.5 -21.641998,-11.739014c-9.744003,-0.55899 -18.049011,5.511002 -22.681,5.511002c-4.712006,0 -11.739006,-5.271988 -19.405006,-5.112c-9.984001,0.161011 -19.327003,5.831009 -24.359001,14.854004c-10.461998,18.048004 -2.715996,44.722015 7.427002,59.416992c4.951996,7.266022 10.941002,15.252014 18.768997,14.934998c7.426003,-0.319 10.380005,-4.792999 19.324997,-4.792999c9.024002,0 11.580002,4.792999 19.406006,4.712006c8.145996,-0.160004 13.177002,-7.268005 18.207993,-14.533997c5.512009,-8.308014 7.828003,-16.294006 7.988007,-16.772003z"/>
  <path id="svg_6" d="m439.082001,221.781006l-17.167999,0l-19.888,64.367004l-0.319,0l-19.884003,-64.367004l-17.809998,0l28.669006,79.302002l-1.516998,4.791992c-2.556,8.145996 -6.787994,11.33902 -14.295013,11.33902c-1.356995,0 -3.914001,-0.160004 -4.950989,-0.238007l0,13.097992c0.958008,0.317017 5.188995,0.397003 6.468994,0.397003c16.531006,0 24.277985,-6.307983 31.06601,-25.395996l29.627991,-83.294006z"/>
  <path id="svg_7" fill="none" stroke="#000000" stroke-width="20" stroke-linecap="round" stroke-linejoin="round" stroke-miterlimit="10" d="m436.5,431l-361,0c-24.577,0 -44.5,-19.923004 -44.5,-44.5l0,-261c0,-24.577003 19.923,-44.5 44.5,-44.5l361,0c24.576996,0 44.5,19.922997 44.5,44.5l0,261c0,24.576996 -19.923004,44.5 -44.5,44.5z"/>
 </g>
</svg>