<?xml version="1.0"?>
<svg xmlns="http://www.w3.org/2000/svg" xmlns:xlink="http://www.w3.org/1999/xlink" xmlns:svgjs="http://svgjs.com/svgjs" version="1.1" width="512" height="512" x="0" y="0" viewBox="0 0 512 512" style="enable-background:new 0 0 512 512" xml:space="preserve" class=""><g><g xmlns="http://www.w3.org/2000/svg"><path d="m456.832 32.133h-41.232v-17.133c0-8.284-6.716-15-15-15s-15 6.716-15 15v17.133h-66.4v-17.133c0-8.284-6.716-15-15-15s-15 6.716-15 15v17.133h-66.4v-17.133c0-8.284-6.716-15-15-15s-15 6.716-15 15v17.133h-66.4v-17.133c0-8.284-6.716-15-15-15s-15 6.716-15 15v17.133h-41.234c-30.418 0-55.166 24.747-55.166 55.167v369.533c0 30.419 24.748 55.167 55.166 55.167h401.666c30.419 0 55.168-24.748 55.168-55.167v-369.533c0-30.42-24.749-55.167-55.168-55.167zm-401.666 30h41.234v17.134c0 8.284 6.716 15 15 15s15-6.716 15-15v-17.134h66.398v17.134c0 8.284 6.716 15 15 15s15-6.716 15-15v-17.134h66.4v17.134c0 8.284 6.716 15 15 15s15-6.716 15-15v-17.134h66.4v17.134c0 8.284 6.716 15 15 15s15-6.716 15-15v-17.134h41.232c13.879 0 25.17 11.29 25.17 25.167v41.233h-452v-41.233c0-13.877 11.29-25.167 25.166-25.167zm401.666 419.867h-401.666c-13.876 0-25.166-11.29-25.166-25.167v-298.3h452v298.3c0 13.877-11.291 25.167-25.168 25.167z" fill="#ffffff" data-original="#000000" class=""/><path d="m151.566 208.867h-64.267c-8.284 0-15 6.716-15 15v64.266c0 8.284 6.716 15 15 15h64.268c8.284 0 15-6.716 15-15v-64.266c-.001-8.284-6.716-15-15.001-15zm-15 64.266h-34.268v-34.266h34.268z" fill="#ffffff" data-original="#000000" class=""/><path d="m424.699 208.867h-64.266c-8.284 0-15 6.716-15 15v64.266c0 8.284 6.716 15 15 15h64.266c8.284 0 15-6.716 15-15v-64.266c0-8.284-6.716-15-15-15zm-15 64.266h-34.266v-34.266h34.266z" fill="#ffffff" data-original="#000000" class=""/><path d="m151.566 337.4h-64.267c-8.284 0-15 6.716-15 15v64.266c0 8.284 6.716 15 15 15h64.268c8.284 0 15-6.716 15-15v-64.266c-.001-8.284-6.716-15-15.001-15zm-15 64.266h-34.268v-34.266h34.268z" fill="#ffffff" data-original="#000000" class=""/><path d="m424.699 337.4h-64.266c-8.284 0-15 6.716-15 15v64.266c0 8.284 6.716 15 15 15h64.266c8.284 0 15-6.716 15-15v-64.266c0-8.284-6.716-15-15-15zm-15 64.266h-34.266v-34.266h34.266z" fill="#ffffff" data-original="#000000" class=""/><path d="m288.133 337.4h-64.268c-8.284 0-15 6.716-15 15v64.266c0 8.284 6.716 15 15 15h64.268c8.284 0 15-6.716 15-15v-64.266c0-8.284-6.716-15-15-15zm-15 64.266h-34.268v-34.266h34.268z" fill="#ffffff" data-original="#000000" class=""/><path d="m279.475 222.673-34.834 34.836-12.116-12.116c-5.857-5.858-15.355-5.858-21.213 0s-5.858 15.355 0 21.213l22.723 22.723c2.813 2.813 6.628 4.394 10.606 4.394 3.979 0 7.794-1.581 10.607-4.394l45.441-45.443c5.857-5.858 5.857-15.355 0-21.213-5.859-5.858-15.356-5.858-21.214 0z" fill="#ffffff" data-original="#000000" class=""/></g></g></svg>
