<svg width="2184" height="792" viewBox="0 0 2184 792" fill="none" xmlns="http://www.w3.org/2000/svg">
<rect width="2184" height="792" fill="#51039E"/>
<g id="Blob">
<circle id="Ellipse 2" cx="-662.047" cy="654.953" r="697.853" fill="url(#paint0_linear_0_1)" stroke="url(#paint1_linear_0_1)" stroke-width="0.2"/>
</g>
<g id="Button">
<g id="Rectangle 1" filter="url(#filter0_bd_0_1)">
<rect x="100" y="30" width="1984" height="592" rx="100" fill="white" fill-opacity="0.3" shape-rendering="crispEdges"/>
</g>
<path id="BOOK NOW" d="M525.078 267.219C525.078 251.281 516.828 240.219 500.328 234.031C491.703 230.844 481.578 229.25 469.953 229.25H382.484V236.844H404.984V390.406H382.484V398H473.609C498.734 398 516.922 390.406 528.172 375.219C533.984 367.344 536.891 358.625 536.891 349.062C536.891 330.312 527.422 317.469 508.484 310.531C503.422 308.656 497.891 307.25 491.891 306.312C507.641 301.062 517.953 292.062 522.828 279.312C524.328 275.188 525.078 271.156 525.078 267.219ZM457.016 236.844C478.203 237.219 488.891 248.094 489.078 269.469C489.078 284.844 483.547 294.969 472.484 299.844C468.359 301.719 463.672 302.656 458.422 302.656H439.578V236.844H457.016ZM464.891 310.531C480.641 310.531 491.141 317.562 496.391 331.625C498.266 336.5 499.203 341.938 499.203 347.938C499.203 367.25 492.828 380.188 480.078 386.75C475.016 389.188 469.203 390.406 462.641 390.406H439.578V310.531H464.891ZM645.734 226.438C621.547 226.438 601.016 234.125 584.141 249.5C566.328 265.812 557.422 286.906 557.422 312.781C557.422 342.594 568.016 365.75 589.203 382.25C605.141 394.625 623.703 400.812 644.891 400.812C668.891 400.812 689.234 393.031 705.922 377.469C723.547 360.969 732.359 339.781 732.359 313.906C732.359 283.156 721.484 259.719 699.734 243.594C684.359 232.156 666.359 226.438 645.734 226.438ZM645.734 392.656C622.484 392.656 607.578 380.375 601.016 355.812C598.016 344.375 596.516 330.406 596.516 313.906C596.516 263.844 610.859 237.5 639.547 234.875C641.422 234.688 643.203 234.594 644.891 234.594C670.016 234.594 685.297 249.875 690.734 280.438C692.422 289.812 693.266 300.594 693.266 312.781C693.266 358.906 681.641 385.062 658.391 391.25C654.453 392.188 650.234 392.656 645.734 392.656ZM843.734 226.438C819.547 226.438 799.016 234.125 782.141 249.5C764.328 265.812 755.422 286.906 755.422 312.781C755.422 342.594 766.016 365.75 787.203 382.25C803.141 394.625 821.703 400.812 842.891 400.812C866.891 400.812 887.234 393.031 903.922 377.469C921.547 360.969 930.359 339.781 930.359 313.906C930.359 283.156 919.484 259.719 897.734 243.594C882.359 232.156 864.359 226.438 843.734 226.438ZM843.734 392.656C820.484 392.656 805.578 380.375 799.016 355.812C796.016 344.375 794.516 330.406 794.516 313.906C794.516 263.844 808.859 237.5 837.547 234.875C839.422 234.688 841.203 234.594 842.891 234.594C868.016 234.594 883.297 249.875 888.734 280.438C890.422 289.812 891.266 300.594 891.266 312.781C891.266 358.906 879.641 385.062 856.391 391.25C852.453 392.188 848.234 392.656 843.734 392.656ZM1028.8 398C1027.67 393.312 1025.14 390.781 1021.2 390.406H1006.3V323.469L1017.27 313.625L1074.92 398.281L1124.14 398C1123.02 393.312 1120.48 390.781 1116.55 390.406H1112.33L1042.02 290.844L1087.3 249.5C1094.98 242.188 1100.8 238.156 1104.73 237.406C1106.23 237.031 1107.64 236.844 1108.95 236.844C1113.64 235.344 1116.17 232.812 1116.55 229.25H1064.8V236.844H1087.3L1006.3 310.531V236.844H1028.8V229.25H949.203V236.844H971.703V390.406H949.203V398H1028.8ZM1307.23 236.844H1330.3V351.031L1228.48 229.25H1183.77V236.844H1206.27V390.406H1183.77V398H1241.7C1240.58 393.312 1238.05 390.781 1234.11 390.406H1217.8V269.188L1326.92 399.406L1341.83 396.594V236.844H1364.33V229.25H1307.23V236.844ZM1466.14 226.438C1441.95 226.438 1421.42 234.125 1404.55 249.5C1386.73 265.812 1377.83 286.906 1377.83 312.781C1377.83 342.594 1388.42 365.75 1409.61 382.25C1425.55 394.625 1444.11 400.812 1465.3 400.812C1489.3 400.812 1509.64 393.031 1526.33 377.469C1543.95 360.969 1552.77 339.781 1552.77 313.906C1552.77 283.156 1541.89 259.719 1520.14 243.594C1504.77 232.156 1486.77 226.438 1466.14 226.438ZM1466.14 392.656C1442.89 392.656 1427.98 380.375 1421.42 355.812C1418.42 344.375 1416.92 330.406 1416.92 313.906C1416.92 263.844 1431.27 237.5 1459.95 234.875C1461.83 234.688 1463.61 234.594 1465.3 234.594C1490.42 234.594 1505.7 249.875 1511.14 280.438C1512.83 289.812 1513.67 300.594 1513.67 312.781C1513.67 358.906 1502.05 385.062 1478.8 391.25C1474.86 392.188 1470.64 392.656 1466.14 392.656ZM1741.48 398L1795.77 236.844H1809.83V229.25H1763.7V236.844H1786.2L1745.14 360.875L1700.98 236.562L1723.48 236.844V229.25H1663.86L1684.39 284.094L1656.27 362.562L1610.98 236.844H1633.48V229.25H1562.05V236.844H1576.95L1630.11 377.75C1634.23 389 1637.98 395.469 1641.36 397.156C1643.05 398.094 1645.2 398.562 1647.83 398.562H1652.33L1689.17 297.031L1719.55 377.75C1723.67 388.625 1727.14 394.906 1729.95 396.594C1731.45 397.531 1733.7 398 1736.7 398H1741.48Z" fill="white"/>
</g>
<defs>
<filter id="filter0_bd_0_1" x="0" y="-50" width="2184" height="842" filterUnits="userSpaceOnUse" color-interpolation-filters="sRGB">
<feFlood flood-opacity="0" result="BackgroundImageFix"/>
<feGaussianBlur in="BackgroundImage" stdDeviation="40"/>
<feComposite in2="SourceAlpha" operator="in" result="effect1_backgroundBlur_0_1"/>
<feColorMatrix in="SourceAlpha" type="matrix" values="0 0 0 0 0 0 0 0 0 0 0 0 0 0 0 0 0 0 127 0" result="hardAlpha"/>
<feOffset dy="70"/>
<feGaussianBlur stdDeviation="50"/>
<feComposite in2="hardAlpha" operator="out"/>
<feColorMatrix type="matrix" values="0 0 0 0 0 0 0 0 0 0 0 0 0 0 0 0 0 0 0.25 0"/>
<feBlend mode="normal" in2="effect1_backgroundBlur_0_1" result="effect2_dropShadow_0_1"/>
<feBlend mode="normal" in="SourceGraphic" in2="effect2_dropShadow_0_1" result="shape"/>
</filter>
<linearGradient id="paint0_linear_0_1" x1="-1057.11" y1="338.899" x2="-280.149" y2="997.344" gradientUnits="userSpaceOnUse">
<stop stop-color="#12CDD9"/>
<stop offset="1" stop-color="#744FC6"/>
</linearGradient>
<linearGradient id="paint1_linear_0_1" x1="-1215.14" y1="154.534" x2="-530.358" y2="786.642" gradientUnits="userSpaceOnUse">
<stop stop-color="white"/>
<stop offset="1" stop-color="white" stop-opacity="0"/>
</linearGradient>
</defs>
</svg>
