<svg width="2184" height="792" viewBox="0 0 2184 792" fill="none" xmlns="http://www.w3.org/2000/svg">
<g filter="url(#filter0_bd_3_31)">
<rect x="100" y="30" width="1984" height="592" rx="100" fill="white" fill-opacity="0.3" shape-rendering="crispEdges"/>
</g>
<g filter="url(#filter1_d_3_31)">
<path d="M526.312 267.5C526.312 253.25 519.562 242.656 506.062 235.719C497.25 231.406 486.656 229.25 474.281 229.25H395.25V236.562H417.75V390.688H395.25V398H475.125C499.312 398 517.031 390.312 528.281 374.938C534.094 366.875 537 358.062 537 348.5C537 333.5 530.344 321.875 517.031 313.625C510.844 310.062 503.719 307.531 495.656 306.031C509.156 300.969 518.438 292.438 523.5 280.438C525.375 275.938 526.312 271.625 526.312 267.5ZM467.531 236.562C486.844 236.562 497.812 245.094 500.438 262.156C500.812 264.594 501 267.125 501 269.75C501 281.938 496.219 291.125 486.656 297.312C481.031 300.875 474.469 302.656 466.969 302.656H441.938V236.562H467.531ZM472.312 310.25C489.375 310.25 500.812 317.469 506.625 331.906C508.875 337.156 510 342.875 510 349.062C510 363.5 505.312 374.75 495.938 382.812C489.75 388.062 482.344 390.688 473.719 390.688H441.938V310.25H472.312ZM649.5 226.438C627 226.438 607.688 233.844 591.562 248.656C573.938 264.969 565.125 286.25 565.125 312.5C565.125 342.875 575.531 366.312 596.344 382.812C611.531 394.812 628.969 400.812 648.656 400.812C670.781 400.812 689.812 393.312 705.75 378.312C723.562 361.625 732.469 340.062 732.469 313.625C732.469 282.688 721.688 259.156 700.125 243.031C685.5 231.969 668.625 226.438 649.5 226.438ZM649.5 392.938C622.312 392.938 604.875 378.406 597.188 349.344C594.562 339.031 593.25 327.125 593.25 313.625C593.25 269 606.75 243.125 633.75 236C638.438 234.875 643.406 234.312 648.656 234.312C685.594 234.688 704.156 260.75 704.344 312.5C704.344 353.375 693 378.781 670.312 388.719C663.938 391.531 657 392.938 649.5 392.938ZM847.781 226.438C825.281 226.438 805.969 233.844 789.844 248.656C772.219 264.969 763.406 286.25 763.406 312.5C763.406 342.875 773.812 366.312 794.625 382.812C809.812 394.812 827.25 400.812 846.938 400.812C869.062 400.812 888.094 393.312 904.031 378.312C921.844 361.625 930.75 340.062 930.75 313.625C930.75 282.688 919.969 259.156 898.406 243.031C883.781 231.969 866.906 226.438 847.781 226.438ZM847.781 392.938C820.594 392.938 803.156 378.406 795.469 349.344C792.844 339.031 791.531 327.125 791.531 313.625C791.531 269 805.031 243.125 832.031 236C836.719 234.875 841.688 234.312 846.938 234.312C883.875 234.688 902.438 260.75 902.625 312.5C902.625 353.375 891.281 378.781 868.594 388.719C862.219 391.531 855.281 392.938 847.781 392.938ZM1026.38 398C1026.38 393.875 1024.88 391.531 1021.88 390.969C1020.94 390.781 1020 390.688 1019.06 390.688H1004.16V325.156L1018.78 311.375L1085.44 398H1124.53C1124.53 393.875 1123.03 391.531 1120.03 390.969C1119.09 390.781 1118.16 390.688 1117.22 390.688H1109.62L1036.22 295.062L1086.28 248.375C1093.22 241.812 1098.47 238.062 1102.03 237.125C1103.72 236.75 1105.5 236.562 1107.38 236.562C1111.5 236.562 1113.84 235.062 1114.41 232.062C1114.59 231.125 1114.69 230.188 1114.69 229.25H1064.06V236.562H1086.56L1004.16 312.5V236.562H1026.38V229.25H957.469V236.562H979.969V390.688H957.469V398H1026.38ZM1307.06 236.562H1330.97V362.562L1224.09 229.25H1185V236.562H1207.5V390.688H1185V398H1242.66C1242.66 393.875 1241.16 391.531 1238.16 390.969C1237.22 390.781 1236.28 390.688 1235.34 390.688H1218.75V260.469L1329.28 399.406L1342.22 396.594V236.562H1364.72V229.25H1307.06V236.562ZM1467.38 226.438C1444.88 226.438 1425.56 233.844 1409.44 248.656C1391.81 264.969 1383 286.25 1383 312.5C1383 342.875 1393.41 366.312 1414.22 382.812C1429.41 394.812 1446.84 400.812 1466.53 400.812C1488.66 400.812 1507.69 393.312 1523.62 378.312C1541.44 361.625 1550.34 340.062 1550.34 313.625C1550.34 282.688 1539.56 259.156 1518 243.031C1503.38 231.969 1486.5 226.438 1467.38 226.438ZM1467.38 392.938C1440.19 392.938 1422.75 378.406 1415.06 349.344C1412.44 339.031 1411.12 327.125 1411.12 313.625C1411.12 269 1424.62 243.125 1451.62 236C1456.31 234.875 1461.28 234.312 1466.53 234.312C1503.47 234.688 1522.03 260.75 1522.22 312.5C1522.22 353.375 1510.88 378.781 1488.19 388.719C1481.81 391.531 1474.88 392.938 1467.38 392.938ZM1729.78 398L1785.47 236.562H1799.53V229.25H1753.97V236.562H1776.47L1732.31 369.312L1687.03 236.562H1709.81V229.25H1661.44L1680.56 283.25L1651.03 368.75L1603.5 236.562H1626.28V229.25H1564.41V236.562H1581L1632.75 381.125C1636.5 391.812 1639.88 397.719 1642.88 398.844C1644 399.219 1645.12 399.406 1646.25 399.406H1648.5L1685.06 296.188L1715.16 381.125C1718.53 390.688 1721.25 396.031 1723.31 397.156C1724.44 397.719 1725.84 398 1727.53 398H1729.78Z" fill="white"/>
</g>
<defs>
<filter id="filter0_bd_3_31" x="0" y="-50" width="2184" height="842" filterUnits="userSpaceOnUse" color-interpolation-filters="sRGB">
<feFlood flood-opacity="0" result="BackgroundImageFix"/>
<feGaussianBlur in="BackgroundImage" stdDeviation="40"/>
<feComposite in2="SourceAlpha" operator="in" result="effect1_backgroundBlur_3_31"/>
<feColorMatrix in="SourceAlpha" type="matrix" values="0 0 0 0 0 0 0 0 0 0 0 0 0 0 0 0 0 0 127 0" result="hardAlpha"/>
<feOffset dy="70"/>
<feGaussianBlur stdDeviation="50"/>
<feComposite in2="hardAlpha" operator="out"/>
<feColorMatrix type="matrix" values="0 0 0 0 0 0 0 0 0 0 0 0 0 0 0 0 0 0 0.25 0"/>
<feBlend mode="normal" in2="effect1_backgroundBlur_3_31" result="effect2_dropShadow_3_31"/>
<feBlend mode="normal" in="SourceGraphic" in2="effect2_dropShadow_3_31" result="shape"/>
</filter>
<filter id="filter1_d_3_31" x="391.25" y="226.438" width="1412.28" height="182.375" filterUnits="userSpaceOnUse" color-interpolation-filters="sRGB">
<feFlood flood-opacity="0" result="BackgroundImageFix"/>
<feColorMatrix in="SourceAlpha" type="matrix" values="0 0 0 0 0 0 0 0 0 0 0 0 0 0 0 0 0 0 127 0" result="hardAlpha"/>
<feOffset dy="4"/>
<feGaussianBlur stdDeviation="2"/>
<feComposite in2="hardAlpha" operator="out"/>
<feColorMatrix type="matrix" values="0 0 0 0 0 0 0 0 0 0 0 0 0 0 0 0 0 0 0.25 0"/>
<feBlend mode="normal" in2="BackgroundImageFix" result="effect1_dropShadow_3_31"/>
<feBlend mode="normal" in="SourceGraphic" in2="effect1_dropShadow_3_31" result="shape"/>
</filter>
</defs>
</svg>
