<svg width="2186" height="794" viewBox="0 0 2186 794" fill="none" xmlns="http://www.w3.org/2000/svg">
<g filter="url(#filter0_bd_1_3)">
<rect x="101" y="31" width="1984" height="592" rx="100" fill="#204068"/>
<rect x="100.5" y="30.5" width="1985" height="593" rx="100.5" stroke="#204068"/>
</g>
<path d="M527.078 269.219C527.078 253.281 518.828 242.219 502.328 236.031C493.703 232.844 483.578 231.25 471.953 231.25H384.484V238.844H406.984V392.406H384.484V400H475.609C500.734 400 518.922 392.406 530.172 377.219C535.984 369.344 538.891 360.625 538.891 351.062C538.891 332.312 529.422 319.469 510.484 312.531C505.422 310.656 499.891 309.25 493.891 308.312C509.641 303.062 519.953 294.062 524.828 281.312C526.328 277.188 527.078 273.156 527.078 269.219ZM459.016 238.844C480.203 239.219 490.891 250.094 491.078 271.469C491.078 286.844 485.547 296.969 474.484 301.844C470.359 303.719 465.672 304.656 460.422 304.656H441.578V238.844H459.016ZM466.891 312.531C482.641 312.531 493.141 319.562 498.391 333.625C500.266 338.5 501.203 343.938 501.203 349.938C501.203 369.25 494.828 382.188 482.078 388.75C477.016 391.188 471.203 392.406 464.641 392.406H441.578V312.531H466.891ZM647.734 228.438C623.547 228.438 603.016 236.125 586.141 251.5C568.328 267.812 559.422 288.906 559.422 314.781C559.422 344.594 570.016 367.75 591.203 384.25C607.141 396.625 625.703 402.812 646.891 402.812C670.891 402.812 691.234 395.031 707.922 379.469C725.547 362.969 734.359 341.781 734.359 315.906C734.359 285.156 723.484 261.719 701.734 245.594C686.359 234.156 668.359 228.438 647.734 228.438ZM647.734 394.656C624.484 394.656 609.578 382.375 603.016 357.812C600.016 346.375 598.516 332.406 598.516 315.906C598.516 265.844 612.859 239.5 641.547 236.875C643.422 236.688 645.203 236.594 646.891 236.594C672.016 236.594 687.297 251.875 692.734 282.438C694.422 291.812 695.266 302.594 695.266 314.781C695.266 360.906 683.641 387.062 660.391 393.25C656.453 394.188 652.234 394.656 647.734 394.656ZM845.734 228.438C821.547 228.438 801.016 236.125 784.141 251.5C766.328 267.812 757.422 288.906 757.422 314.781C757.422 344.594 768.016 367.75 789.203 384.25C805.141 396.625 823.703 402.812 844.891 402.812C868.891 402.812 889.234 395.031 905.922 379.469C923.547 362.969 932.359 341.781 932.359 315.906C932.359 285.156 921.484 261.719 899.734 245.594C884.359 234.156 866.359 228.438 845.734 228.438ZM845.734 394.656C822.484 394.656 807.578 382.375 801.016 357.812C798.016 346.375 796.516 332.406 796.516 315.906C796.516 265.844 810.859 239.5 839.547 236.875C841.422 236.688 843.203 236.594 844.891 236.594C870.016 236.594 885.297 251.875 890.734 282.438C892.422 291.812 893.266 302.594 893.266 314.781C893.266 360.906 881.641 387.062 858.391 393.25C854.453 394.188 850.234 394.656 845.734 394.656ZM1030.8 400C1029.67 395.312 1027.14 392.781 1023.2 392.406H1008.3V325.469L1019.27 315.625L1076.92 400.281L1126.14 400C1125.02 395.312 1122.48 392.781 1118.55 392.406H1114.33L1044.02 292.844L1089.3 251.5C1096.98 244.188 1102.8 240.156 1106.73 239.406C1108.23 239.031 1109.64 238.844 1110.95 238.844C1115.64 237.344 1118.17 234.812 1118.55 231.25H1066.8V238.844H1089.3L1008.3 312.531V238.844H1030.8V231.25H951.203V238.844H973.703V392.406H951.203V400H1030.8ZM1309.23 238.844H1332.3V353.031L1230.48 231.25H1185.77V238.844H1208.27V392.406H1185.77V400H1243.7C1242.58 395.312 1240.05 392.781 1236.11 392.406H1219.8V271.188L1328.92 401.406L1343.83 398.594V238.844H1366.33V231.25H1309.23V238.844ZM1468.14 228.438C1443.95 228.438 1423.42 236.125 1406.55 251.5C1388.73 267.812 1379.83 288.906 1379.83 314.781C1379.83 344.594 1390.42 367.75 1411.61 384.25C1427.55 396.625 1446.11 402.812 1467.3 402.812C1491.3 402.812 1511.64 395.031 1528.33 379.469C1545.95 362.969 1554.77 341.781 1554.77 315.906C1554.77 285.156 1543.89 261.719 1522.14 245.594C1506.77 234.156 1488.77 228.438 1468.14 228.438ZM1468.14 394.656C1444.89 394.656 1429.98 382.375 1423.42 357.812C1420.42 346.375 1418.92 332.406 1418.92 315.906C1418.92 265.844 1433.27 239.5 1461.95 236.875C1463.83 236.688 1465.61 236.594 1467.3 236.594C1492.42 236.594 1507.7 251.875 1513.14 282.438C1514.83 291.812 1515.67 302.594 1515.67 314.781C1515.67 360.906 1504.05 387.062 1480.8 393.25C1476.86 394.188 1472.64 394.656 1468.14 394.656ZM1743.48 400L1797.77 238.844H1811.83V231.25H1765.7V238.844H1788.2L1747.14 362.875L1702.98 238.562L1725.48 238.844V231.25H1665.86L1686.39 286.094L1658.27 364.562L1612.98 238.844H1635.48V231.25H1564.05V238.844H1578.95L1632.11 379.75C1636.23 391 1639.98 397.469 1643.36 399.156C1645.05 400.094 1647.2 400.562 1649.83 400.562H1654.33L1691.17 299.031L1721.55 379.75C1725.67 390.625 1729.14 396.906 1731.95 398.594C1733.45 399.531 1735.7 400 1738.7 400H1743.48Z" fill="white"/>
<defs>
<filter id="filter0_bd_1_3" x="0" y="-50" width="2186" height="844" filterUnits="userSpaceOnUse" color-interpolation-filters="sRGB">
<feFlood flood-opacity="0" result="BackgroundImageFix"/>
<feGaussianBlur in="BackgroundImage" stdDeviation="40"/>
<feComposite in2="SourceAlpha" operator="in" result="effect1_backgroundBlur_1_3"/>
<feColorMatrix in="SourceAlpha" type="matrix" values="0 0 0 0 0 0 0 0 0 0 0 0 0 0 0 0 0 0 127 0" result="hardAlpha"/>
<feOffset dy="70"/>
<feGaussianBlur stdDeviation="50"/>
<feComposite in2="hardAlpha" operator="out"/>
<feColorMatrix type="matrix" values="0 0 0 0 0.12549 0 0 0 0 0.25098 0 0 0 0 0.407843 0 0 0 0.75 0"/>
<feBlend mode="normal" in2="effect1_backgroundBlur_1_3" result="effect2_dropShadow_1_3"/>
<feBlend mode="normal" in="SourceGraphic" in2="effect2_dropShadow_1_3" result="shape"/>
</filter>
</defs>
</svg>
