<?xml version="1.0" ?><!DOCTYPE svg  PUBLIC '-//W3C//DTD SVG 1.1//EN'  'http://www.w3.org/Graphics/SVG/1.1/DTD/svg11.dtd'><svg enable-background="new 0 0 64 64" height="64px" id="Icon_23_" version="1.1" viewBox="0 0 64 64" width="64px" xml:space="preserve" xmlns="http://www.w3.org/2000/svg" xmlns:xlink="http://www.w3.org/1999/xlink"><path d="M57,17H7c-0.552,0-1,0.448-1,1v28c0,0.553,0.448,1,1,1h50c0.553,0,1-0.447,1-1V18C58,17.448,57.553,17,57,17z M56,45H8V19  h48V45z M10,44h44c0.553,0,1-0.447,1-1V21c0-0.552-0.447-1-1-1H10c-0.552,0-1,0.448-1,1v22C9,43.553,9.448,44,10,44z M53,42h-2.858  c0.364-1.399,1.459-2.494,2.858-2.858V42z M53,22v2.858c-1.399-0.364-2.494-1.459-2.858-2.858H53z M11,22h2.858  c-0.364,1.399-1.459,2.494-2.858,2.858V22z M11,26.91c2.507-0.423,4.486-2.402,4.91-4.91h32.18c0.424,2.507,2.403,4.486,4.91,4.91  v10.18c-2.507,0.424-4.486,2.403-4.91,4.91H15.91c-0.423-2.507-2.402-4.486-4.91-4.91V26.91z M11,39.142  c1.399,0.364,2.494,1.459,2.858,2.858H11V39.142z M29,35c0-0.552-0.448-1-1-1s-1,0.448-1,1c0,2.224,1.479,3.646,4,3.938V40  c0,0.553,0.448,1,1,1s1-0.447,1-1v-1.068c2.428-0.321,4-1.817,4-3.932c0-2.457-2.059-3.257-4-3.776v-4.156  c1.999,0.298,2,1.5,2,1.933c0,0.552,0.447,1,1,1s1-0.448,1-1c0-2.224-1.479-3.646-4-3.938V24c0-0.552-0.448-1-1-1s-1,0.448-1,1  v1.062c-2.521,0.292-4,1.714-4,3.938c0,2.457,2.059,3.257,4,3.776v4.156C29.001,36.635,29,35.433,29,35z M33,33.309  c1.347,0.407,2,0.827,2,1.691c0,1.281-1.091,1.739-2,1.904V33.309z M29,29c0-0.432,0.001-1.635,2-1.933v3.624  C29.653,30.284,29,29.864,29,29z"/></svg>