<svg width="100" height="100" xmlns="http://www.w3.org/2000/svg">
 <title/>

 <g>
  <title>background</title>
  <rect x="-1" y="-1" width="14.985527" height="14.985527" id="canvas_background" fill="none"/>
 </g>
 <g>
  <title>Layer 1</title>
  <path class="st0" d="m62.299999,16.9c0.200001,3.300001 0.299999,7.1 0.400002,10.700001c0,0.799999 0,1.5 0,2.299999c0.099998,0.200001 0.200001,0.4 0.299999,0.6c0.099998,0.299999 0.200001,0.6 0.299999,0.9c0.600002,1.300001 1.600002,2.300001 2.799999,3.1c0.400002,0.200001 0.800003,0.400002 1.200005,0.400002c0.199997,0 0.399994,0 0.599998,-0.100002c0.299995,-0.200001 0.5,-0.399998 0.599998,-0.700001c0.099998,-0.099998 0.199997,-0.299999 0.199997,-0.399998c-0.099998,-0.100002 -0.399994,-0.200001 -0.799995,-0.400002c-0.300003,-0.200001 -0.599998,-0.399998 -0.900002,-0.599998c-0.699997,-0.600002 -1.300003,-1.400002 -1.699997,-2.200001c-0.400002,-0.9 -0.600006,-1.9 -0.600006,-2.9c0,-0.200001 0,-0.300001 0,-0.5c0.100006,-1.700001 0.300003,-3.300001 0.5,-4.700001c0.200005,-1.299999 0.300003,-2.699999 0.300003,-4.1c0,-1.799999 -0.300003,-3.599999 -1,-5.199999c-0.5,-1.8 -1.400002,-3.400001 -2.5,-4.8c-0.299999,-0.3 -0.599998,-0.6 -0.900002,-0.9c0.200001,0.5 0.400002,1.1 0.5,1.7c0.400002,2.5 0.600002,5.2 0.700001,7.799999z" id="svg_2" fill="none"/>
  <path class="st0" d="m50.099998,36.200001c-0.199997,0 -0.299999,0.099998 -0.5,0.200001c0,0.099998 -0.099998,0.199997 -0.199997,0.199997c0,0.5 0,0.900002 0,1.300003c0,0.299999 0,0.599998 0,0.899998c0,6.700001 0.899998,13.400002 2.799999,19.900002c1.200001,-0.299999 2.399998,-0.5 3.700001,-0.5c0.699997,0 1.399998,0.099998 2.199997,0.200001c0.600002,-2.100002 1.100002,-4.300003 1.400002,-6.5c0.400002,-2.800003 0.5,-5.600002 0.5,-8.400002c0,-0.299999 0,-0.599998 0,-0.900002c0,-0.599998 0,-3.199997 0,-6.599998c-1.5,-0.400002 -3,-0.599998 -4.599998,-0.599998c-1.800003,0 -3.600002,0.299999 -5.300003,0.799999z" id="svg_3" fill="none"/>
  <path class="st0" d="m53.400002,61.900002c0.299999,0.599998 0.599998,1.299999 1,1.799999c0.099998,0.200001 0.299999,0.399998 0.5,0.600002l0.099998,0l0.099998,0c0.200001,-0.100006 0.300003,-0.200005 0.400002,-0.400002c0.400002,-0.5 0.799999,-1.100002 1.099998,-1.700001c0.200001,-0.299999 0.300003,-0.700001 0.5,-1c-0.399998,0 -0.699997,-0.100002 -1.099998,-0.100002c-0.900002,0 -1.799999,0.100002 -2.700001,0.300003c0,0.199997 0,0.299999 0.100002,0.5z" id="svg_4" fill="none"/>
  <path class="st0" d="m50.400002,18c-0.400002,7 -0.700001,11.799999 -0.800003,15.299999c1.900002,-0.5 3.800003,-0.799999 5.800003,-0.799999c1.5,0 3,0.200001 4.5,0.5c-0.100002,-5 -0.200001,-11.1 -0.5,-16c-0.100002,-2.5 -0.300003,-5 -0.600002,-7.5c-0.099998,-0.4 -0.200001,-0.8 -0.399998,-1.3c-0.300003,-0.9 -0.800003,-1.7 -1.5,-2.4c-0.100002,-0.2 -0.300003,-0.3 -0.5,-0.4c-0.100002,0 -0.100002,-0.1 -0.200001,-0.1l-0.100002,0c-0.299999,0 -0.599998,0.1 -0.799999,0.3c-0.299999,0.2 -0.599998,0.4 -0.799999,0.7c-0.900002,0.9 -1.5,1.9 -2,3c-0.5,1.2 -1,2.5 -1.299999,3.8c-0.400002,1.7 -0.700001,3.299999 -0.799999,4.9l0,0l0,0z" id="svg_5" fill="none"/>
  <path class="st0" d="m86.400002,37.299999c-4.700005,-6.199999 -10.800003,-12.599998 -17.200005,-16.799999c-0.299995,-0.200001 -0.599998,-0.4 -0.899994,-0.5c-0.100006,0.9 -0.200005,1.799999 -0.300003,2.6c-0.199997,1.5 -0.400002,2.9 -0.5,4.5c0,0.1 0,0.199999 0,0.299999c0,0.6 0.099998,1.200001 0.300003,1.700001c0.199997,0.5 0.599998,0.9 1,1.299999c0.199997,0.200001 0.5,0.300001 0.799995,0.5c0.5,0.300001 1,0.6 1.400002,1.1c0.400002,0.400002 0.599998,1 0.599998,1.599998c0,0.400002 -0.099998,0.700001 -0.199997,1.100002c-0.099998,0.399998 -0.300003,0.700001 -0.5,1c-0.400002,0.599998 -0.900002,1.200001 -1.599998,1.599998c-0.600006,0.400002 -1.300003,0.5 -2,0.5c-0.700005,0 -1.400002,-0.200001 -2,-0.5c-0.600006,-0.299999 -1.200005,-0.599998 -1.700005,-1.099998c-0.299999,-0.200001 -0.599998,-0.5 -0.799999,-0.700001c0,3.700001 0.100002,6.5 0.100002,7.099998c0,0.200001 0,0.5 0,0.900002c0,2.900002 -0.200001,5.900002 -0.5,8.799999c-0.400002,3.900002 -1.5,7.700001 -3.200001,11.200001c-0.299999,0.599998 -0.700001,1.199997 -1.100002,1.800003c-0.399998,0.599998 -0.899998,1.099998 -1.5,1.5c-0.099998,0 -0.199997,0.099998 -0.299999,0.099998c0,0.400002 0,0.900002 -0.099998,1.299988c0,0.400009 -0.200001,0.700012 -0.5,1c0,0.300011 -0.100002,0.600014 -0.200001,0.900009c-0.200001,0.400002 -0.5,0.599991 -0.900002,0.700005l0.100002,1.599998c0,0.099998 0,0.199997 0,0.299988c0,0.300011 0,0.600014 -0.100002,0.900009c-0.199997,0.400002 -0.5,0.800003 -0.899998,1c-0.299999,0.200005 -0.600002,0.300003 -1,0.300003c-0.299999,0 -0.600002,-0.099998 -0.900002,-0.200012c-0.200001,-0.099991 -0.399998,-0.199989 -0.5,-0.299988c-0.099998,0 -0.099998,-0.099998 -0.200001,-0.099998c0,0.099998 0,0.199997 0,0.399994c0,0.700005 -0.099998,1.5 -0.099998,2.200005c0,0.299995 0,0.5 -0.099998,0.799995c-0.100002,0.400002 -0.300003,0.800003 -0.5,1.100006c-0.300003,0.299995 -0.600002,0.599998 -1.100002,0.699997c-0.299999,0.099998 -0.700001,0.199997 -1.099998,0.199997c-0.700001,0 -1.400002,-0.199997 -2.100002,-0.599998c-0.399998,-0.299995 -0.799999,-0.599998 -1.099998,-1c-0.200001,-0.199997 -0.5,-0.400002 -0.700001,-0.599998c-0.099998,-0.099998 -0.299999,-0.099998 -0.399998,-0.199997c0,0 0,0.099998 0,0.099998c-0.100002,2.099998 -0.200001,4.199997 -0.300003,6.299995c0,0.300003 -0.099998,0.700005 -0.199997,1c-0.200001,0.5 -0.400002,0.800003 -0.800003,1.100006c-0.299999,0.199997 -0.699997,0.399994 -1.199997,0.399994l0,0c-0.5,0 -0.900002,-0.199997 -1.300003,-0.5c-0.199997,-0.199997 -0.399998,-0.399994 -0.599998,-0.599998c-0.799999,-1 -1.599998,-2 -2.400002,-3c0.100002,0.800003 0.400002,1.599998 0.800003,2.300003c0.299999,0.599998 0,1.400002 -0.5,1.799995c-0.700001,0.400002 -1.600002,0.200005 -2,-0.399994c-0.800003,-1.5 -1.200001,-3.100006 -1.200001,-4.800003c0,-0.199997 0,-0.400002 0,-0.699997c0,-0.300003 0.099998,-0.600006 0.200001,-0.900002c0.099998,-0.400002 0.399998,-0.800003 0.699997,-1c0.300003,-0.200012 0.600002,-0.400002 1,-0.400002c0.100002,0 0.200001,0 0.300003,0c0.5,0 1,0.199989 1.399998,0.5c0.200001,0.199989 0.5,0.400002 0.700001,0.699989l2.5,3.100014c0.099998,-1.600014 0.200001,-3.300003 0.200001,-4.900002c0,-0.300003 0,-0.599998 0.099998,-0.800003c0.100002,-0.400009 0.299999,-0.799995 0.600002,-1.099998c0.299999,-0.300011 0.599998,-0.5 1,-0.699997c0.299999,-0.100014 0.699997,-0.200005 1,-0.200005c0.799999,0 1.5,0.200005 2.099998,0.599991c0.400002,0.300011 0.799999,0.600014 1.099998,1c0.200001,0.200012 0.400002,0.400009 0.700001,0.600014c0.100002,0.099998 0.200001,0.099998 0.400002,0.099998c0,0 0,0 0,-0.099998c0,-0.700012 0.099998,-1.5 0.099998,-2.200012c0,-0.299988 0,-0.599991 0.100002,-0.799988c0.099998,-0.400002 0.199997,-0.800003 0.399998,-1.100014c0.200001,-0.399986 0.5,-0.699989 0.900002,-0.899986c0.399998,-0.200012 0.899998,-0.400002 1.299999,-0.400002c0.200001,0 0.400002,0 0.599998,0.099998c0.100002,0 0.100002,0 0.200001,0.099991c0,-0.699989 -0.099998,-1.299988 -0.099998,-2c0,-0.699989 0.399998,-1.299988 1.099998,-1.5c0.100002,-0.299988 0.299999,-0.5 0.600002,-0.699989c0,-0.200012 0,-0.400009 0,-0.599998c-0.200001,-0.100014 -0.400002,-0.300003 -0.600002,-0.400002c-0.5,-0.5 -1,-1.099998 -1.299999,-1.700012c-0.700001,-1.299988 -1.299999,-2.700001 -1.700001,-4.099998c-2.200001,-7 -3.200001,-14.299999 -3.200001,-21.600002c0,-0.299988 0,-0.599987 0,-1c0,-1.599987 0.100002,-3.599987 0.200001,-6.199999c-10.700001,8.199999 -21.799999,16.000002 -33.299999,23.199999c-1.6,0.900013 -2.9,2.100002 -4,3.600002c-0.7,1 -1.1,2.300011 -1.1,3.599998c0,1.299999 0.3,2.5 0.8,3.600014c0.6,1.5 1.400001,3 2.400001,4.399986c5.4,8.300003 11.799999,16 19.1,22.700012c1.199999,1.199989 2.899998,1.799988 4.599998,1.799988c2.200001,-0.099998 4.299999,-0.799988 6.200001,-2c2.099998,-1.199997 4,-2.599998 5.799999,-4.199997c6.900002,-5.5 13.400002,-11.5 20.200001,-17.400002c6.199997,-5.400002 12.199997,-11.400002 19,-16.5c1,-0.700001 2,-1.5 2.900002,-2.299999c0.799995,-0.700001 1.5,-1.600002 2,-2.5c0.299995,-0.600002 0.5,-1.300003 0.5,-2c0,-0.100002 0,-0.200001 0,-0.300003c-0.099998,-1.799999 -0.700005,-3.599987 -1.700005,-5.199997c-1.299995,-1.700001 -2.5,-3.39999 -3.799995,-5l0,0.000008zm-52.300003,43.000004l0,0l0,0l0,0l0,0zm-10.899998,-12.400002c-0.700001,0.400002 -1.6,0.199997 -2,-0.400002c-0.400002,-0.699997 -0.200001,-1.599998 0.4,-2c6.799999,-5 13.499998,-10.200001 19.999998,-15.5c0.600002,-0.5 1.5,-0.400002 2,0.200001c0.5,0.599998 0.400002,1.5 -0.199997,2c-6.600002,5.399998 -13.300001,10.599998 -20.100002,15.600002c0,0.099998 0,0.099998 -0.099998,0.099998zm5.599998,8.5c-0.599998,0.5 -1.5,0.299995 -2,-0.300003c-0.5,-0.599998 -0.299999,-1.5 0.300001,-2l16.9,-12.299999c0.599998,-0.5 1.5,-0.299999 2,0.299999c0.5,0.600002 0.299999,1.5 -0.299999,2l-16.900002,12.300003zm36.700001,-30l9,-7.200001c0.599998,-0.5 1.5,-0.400002 2,0.200001c0.5,0.599998 0.400002,1.5 -0.199997,2l-9,7.199997l0,0c-0.600006,0.5 -1.5,0.400002 -2,-0.199997c-0.5,-0.600002 -0.5,-1.5 0.199997,-2zm15.800003,1.599998l-14.300003,11.700001l0,0c0,0 0,0 0,0c-0.599998,0.5 -1.5,0.399998 -2,-0.200001c-0.5,-0.599998 -0.400002,-1.5 0.199997,-2l14.300003,-11.700001c0.599998,-0.5 1.5,-0.399998 2,0.200001c0.5,0.5 0.400002,1.400002 -0.199997,2z" id="svg_6" fill="none"/>
  <path fill="#ffffff" d="m92.123589,40.900002c-1.099998,-1.800003 -2.399994,-3.600002 -3.700005,-5.300003c-4.799995,-6.399998 -11.100006,-12.999998 -17.899994,-17.499998c-0.799995,-0.5 -1.600006,-0.9 -2.400002,-1.200001c-0.099998,-1.7 -0.5,-3.4 -1.099998,-5c-0.700012,-2 -1.700012,-3.9 -3,-5.5c-1.500004,-1.8 -3.500004,-3 -5.700001,-3.4c-0.200001,0 -0.400002,0 -0.600002,0c-0.5,-0.3 -1.099998,-0.5 -1.799999,-0.5c-0.900002,0 -1.700001,0.3 -2.400002,0.8c-0.5,0.3 -0.899998,0.6 -1.299999,1c-1.200001,1.2 -2.099998,2.5 -2.700001,4c-0.899998,2.099999 -1.5,4.2 -1.899998,6.4c-0.200001,1 -0.299999,2.099999 -0.400002,3.2c-0.200001,4 -0.399998,7.300001 -0.599998,10.1c-11.200001,8.799999 -22.900002,17 -35.000001,24.599998c-1.9,1.100002 -3.6,2.600002 -4.9,4.400002c-1.1,1.5 -1.6,3.299999 -1.6,5.200001c0,1.599998 0.4,3.200001 1,4.700001c0.7,1.699997 1.6,3.400002 2.6,4.900002c5.5,8.599998 12.099999,16.399994 19.599999,23.199997c1.799999,1.699997 4.1,2.599998 6.500002,2.599998c2.699997,-0.099998 5.299999,-0.900002 7.599998,-2.400002c2.200001,-1.299995 4.299999,-2.799995 6.200001,-4.399994c7,-5.600006 13.599998,-11.600006 20.299995,-17.5c6.299995,-5.5 12.200005,-11.400002 18.799995,-16.300003c1.5,-1 2.900009,-2.200001 4.099998,-3.5c0.700012,-0.700001 1.200012,-1.5 1.600006,-2.400002c0.5,-1 0.700005,-2 0.799995,-3.099998c0,-0.099998 0,-0.299999 0,-0.400002c-0.099991,-2.5 -0.799995,-4.699997 -2.099991,-6.699997zm-30.400002,-32.600001c1.100002,1.4 2,3 2.599991,4.7c0.700012,1.7 1,3.4 1,5.200001c0,1.4 -0.099983,2.699999 -0.299988,4.099998c-0.200012,1.400002 -0.400002,3 -0.5,4.700001c0,0.200001 0,0.299999 0,0.5c0,1 0.200005,2 0.599998,2.9c0.400002,0.9 1,1.6 1.699989,2.199999c0.300011,0.200001 0.600006,0.400002 0.900017,0.600002c0.299995,0.200001 0.599983,0.299999 0.799995,0.399998c-0.100006,0.100002 -0.100006,0.300003 -0.200012,0.400002c-0.199989,0.299999 -0.399994,0.5 -0.599983,0.700001c-0.200005,0.099998 -0.400017,0.099998 -0.600006,0.099998c-0.399994,0 -0.899994,-0.200001 -1.200005,-0.399998c-1.199989,-0.800003 -2.199997,-1.800003 -2.799995,-3.100002c-0.100002,-0.299999 -0.299999,-0.599998 -0.299999,-0.9c0,-0.199999 -0.100002,-0.4 -0.300003,-0.6c0,-0.699999 0,-1.5 0,-2.299999c-0.099998,-3.6 -0.199997,-7.4 -0.399998,-10.700001c-0.100002,-2.599999 -0.299999,-5.199999 -0.700001,-7.9c-0.099998,-0.599999 -0.299999,-1.099999 -0.5,-1.7c0.299999,0.4 0.599998,0.7 0.799999,1.1zm-2,34.299998c0,0.200001 0,0.5 0,0.900002c0,2.799999 -0.200001,5.599998 -0.5,8.400002c-0.299999,2.199997 -0.700001,4.399998 -1.399998,6.5c-0.700001,-0.100002 -1.400002,-0.200001 -2.200001,-0.200001c-1.200001,0 -2.5,0.200001 -3.700001,0.5c-1.900002,-6.5 -2.799999,-13.200001 -2.799999,-19.900002c0,-0.299999 0,-0.599998 0,-0.899998c0,-0.400002 0,-0.900002 0,-1.300003c0.099998,-0.099998 0.099998,-0.099998 0.200001,-0.199997c0.099998,-0.100002 0.299999,-0.100002 0.5,-0.200001c1.699997,-0.5 3.5,-0.799999 5.299999,-0.799999c1.5,0 3.099998,0.199997 4.599998,0.599998c0,3.5 0,6 0,6.599998zm-2.899998,18.600002c-0.200001,0.299999 -0.300003,0.700001 -0.5,1c-0.300003,0.599998 -0.700001,1.200001 -1.100002,1.700001c-0.099998,0.099998 -0.299999,0.299995 -0.399998,0.400002l-0.100002,0l-0.099998,0c-0.200001,-0.200005 -0.400002,-0.300003 -0.5,-0.600002c-0.400002,-0.600002 -0.700001,-1.200001 -1,-1.799999c-0.100002,-0.200001 -0.100002,-0.300003 -0.200001,-0.5c0.900002,-0.200001 1.799999,-0.300003 2.700001,-0.300003c0.399998,0 0.799999,0 1.200001,0.100002zm-5.900002,-48.000001c0.299999,-1.3 0.700001,-2.599999 1.299999,-3.8c0.5,-1.099999 1.200001,-2.099999 2,-3c0.299999,-0.3 0.5,-0.5 0.799999,-0.7c0.200001,-0.2 0.5,-0.3 0.800003,-0.3l0.099998,0c0.099998,0 0.200001,0 0.200001,0.1c0.200001,0.1 0.299999,0.3 0.5,0.4c0.599998,0.7 1.099998,1.5 1.5,2.4c0.200001,0.4 0.299999,0.8 0.399998,1.3c0.300003,2.5 0.600002,5 0.600002,7.5c0.200001,4.9 0.399998,11 0.5,15.999998c-1.5,-0.299999 -3,-0.5 -4.5,-0.5c-2,0 -3.900002,0.300003 -5.799999,0.800003c0.099998,-3.600002 0.399998,-8.400002 0.799999,-15.400002l0,0l0,0c0.099998,-1.6 0.399998,-3.2 0.799999,-4.8zm40.499996,34.599999c0,0.700001 -0.199989,1.400002 -0.5,2c-0.5,1 -1.199989,1.799999 -2,2.5c-0.899994,0.799999 -1.899994,1.600002 -2.899994,2.299999c-6.799995,5.100002 -12.700012,11.099998 -19,16.5c-6.700001,5.900002 -13.300003,11.900002 -20.200001,17.400002c-1.800003,1.5 -3.800003,2.900002 -5.800003,4.199997c-1.899998,1.200005 -4,1.900002 -6.199997,2c-1.700001,0 -3.300001,-0.699997 -4.600002,-1.799995c-7.299999,-6.700005 -13.699999,-14.300003 -19.099999,-22.700005c-0.9,-1.399994 -1.7,-2.899994 -2.4,-4.399994c-0.5,-1.200005 -0.8,-2.400002 -0.8,-3.600002c0,-1.299999 0.4,-2.5 1.099999,-3.600002c1.1,-1.5 2.500001,-2.699997 4,-3.599998c11.7,-7.200001 22.800002,-15 33.400001,-23.299999c-0.099998,2.599998 -0.200001,4.599998 -0.200001,6.200001c0,0.299999 0,0.699997 0,1c0,7.299999 1.100002,14.599998 3.200001,21.599998c0.400002,1.400002 1,2.799999 1.700001,4.099998c0.299999,0.599998 0.799999,1.200005 1.299999,1.700005c0.200001,0.199997 0.400002,0.299995 0.599998,0.399994c0,0.200005 0,0.400002 0,0.600006c-0.299999,0.099998 -0.5,0.399994 -0.599998,0.699997c-0.700001,0.199997 -1.099998,0.800003 -1.099998,1.5c0,0.699997 0.099998,1.300003 0.099998,2c-0.099998,0 -0.099998,0 -0.200001,-0.099998c-0.200001,0 -0.399998,-0.099991 -0.599998,-0.099991c-0.5,0 -0.900002,0.099991 -1.299999,0.399986c-0.400002,0.200005 -0.700001,0.5 -0.900002,0.900002c-0.200001,0.300003 -0.400002,0.700012 -0.400002,1.099998c0,0.300003 -0.099998,0.600014 -0.099998,0.800003c0,0.699997 -0.099998,1.5 -0.099998,2.199997c0,0 0,0 0,0.100014c-0.100002,0 -0.300003,-0.100014 -0.400002,-0.100014c-0.200001,-0.199997 -0.5,-0.399986 -0.700001,-0.599998c-0.299999,-0.400002 -0.700001,-0.699997 -1.099998,-1c-0.600002,-0.400002 -1.400002,-0.599998 -2.100002,-0.599998c-0.399998,0 -0.699997,0.099998 -1,0.199997c-0.399998,0.100014 -0.699997,0.400002 -1,0.700012c-0.299999,0.299988 -0.5,0.699989 -0.599998,1.099991c-0.099998,0.300011 -0.099998,0.599998 -0.099998,0.800011c-0.100002,1.599991 -0.200001,3.299988 -0.200001,4.899986l-2.5,-3.099998c-0.200001,-0.199989 -0.400002,-0.5 -0.700001,-0.699989c-0.400002,-0.300011 -0.900002,-0.5 -1.400002,-0.5c-0.099998,0 -0.199997,0 -0.299999,0c-0.399998,0.099991 -0.700001,0.199989 -1,0.400002c-0.299999,0.299988 -0.599998,0.599998 -0.700001,1c-0.099998,0.299988 -0.199997,0.599998 -0.199997,0.899986c0,0.200012 0,0.5 0,0.700012c0,1.699989 0.399998,3.299988 1.199997,4.799988c0.400002,0.700012 1.300003,0.900002 2,0.400002c0.600002,-0.400002 0.800003,-1.099991 0.5,-1.799988c-0.399998,-0.700012 -0.699997,-1.5 -0.799999,-2.300003c0.799999,1 1.600002,2 2.400002,3c0.200001,0.199989 0.399998,0.400002 0.599998,0.599991c0.400002,0.300011 0.799999,0.5 1.299999,0.5l0,0c0.400002,0 0.800003,-0.099991 1.200001,-0.400002c0.400002,-0.299988 0.700001,-0.699997 0.799999,-1.099998c0.100002,-0.299988 0.200001,-0.599991 0.200001,-1c0.100002,-2.099991 0.200001,-4.199989 0.299999,-6.299988c0,0 0,-0.100014 0,-0.100014c0.100002,0 0.300003,0.100014 0.400002,0.200012c0.299999,0.199989 0.5,0.400002 0.700001,0.599998c0.299999,0.400002 0.700001,0.699989 1.099998,1c0.600002,0.400002 1.299999,0.599991 2.100002,0.599991c0.399998,0 0.699997,-0.099991 1.099998,-0.199989c0.400002,-0.200012 0.799999,-0.400009 1.099998,-0.700012c0.300003,-0.299988 0.400002,-0.699997 0.5,-1.099998c0.100002,-0.299988 0.100002,-0.5 0.100002,-0.799988c0,-0.700012 0.099998,-1.5 0.099998,-2.200012c0,-0.099991 0,-0.299988 0,-0.400002c0.100002,0 0.100002,0.100014 0.200001,0.100014c0.200001,0.099998 0.299999,0.199989 0.5,0.299988c0.299999,0.099998 0.599998,0.200012 0.900002,0.200012c0.299999,0 0.699997,-0.100014 1,-0.300011c0.399998,-0.199989 0.699997,-0.599991 0.899998,-1c0.100002,-0.300003 0.200001,-0.599991 0.100002,-0.900002c0,-0.099998 0,-0.199989 0,-0.299988l-0.100002,-1.600014c0.400002,-0.099998 0.700001,-0.399986 0.900002,-0.699997c0.099998,-0.300003 0.200001,-0.599991 0.200001,-0.900002c0.299999,-0.299988 0.5,-0.599998 0.5,-1c0,-0.400002 0,-0.900002 0.099998,-1.299988c0.099998,0 0.200001,-0.100014 0.299999,-0.100014c0.600002,-0.399986 1.100002,-0.899986 1.5,-1.5c0.400002,-0.599998 0.799999,-1.099998 1.100002,-1.799988c1.699997,-3.5 2.799999,-7.300011 3.199997,-11.200001c0.400002,-2.900009 0.5,-5.900009 0.5,-8.799999c0,-0.400009 0,-0.700008 0,-0.900009c0,-0.599991 0,-3.400002 -0.099998,-7.099991c0.299999,0.299992 0.5,0.5 0.799999,0.699989c0.5,0.400002 1.099991,0.800011 1.699997,1.100002c0.600006,0.299999 1.299995,0.399998 2,0.5c0.700005,0 1.399994,-0.200001 2,-0.5c0.700005,-0.400002 1.200005,-0.900002 1.600006,-1.600002c0.199989,-0.299999 0.399994,-0.699989 0.5,-1c0.099998,-0.299999 0.199989,-0.699989 0.199989,-1.099998c0,-0.599991 -0.199989,-1.099991 -0.599991,-1.6c-0.400009,-0.4 -0.900009,-0.79999 -1.400009,-1.1c-0.299995,-0.099989 -0.5,-0.29999 -0.799995,-0.5c-0.399994,-0.29999 -0.799995,-0.79999 -1,-1.29999c-0.200005,-0.5 -0.299995,-1.1 -0.299995,-1.70001c0,-0.099989 0,-0.199989 0,-0.29999c0.099991,-1.6 0.299995,-3 0.5,-4.5c0.099991,-0.9 0.199989,-1.70001 0.299995,-2.6c0.299995,0.200001 0.600006,0.300001 0.899994,0.5c6.400017,4.1 12.5,10.6 17.200012,16.799999c1.299988,1.600002 2.399994,3.300003 3.5,5c1,1.600002 1.599998,3.300003 1.699989,5.200001c0.200005,0.199989 0.200005,0.299999 0.200005,0.400002l0,-0.000011z" id="svg_7" transform="rotate(38.6432 49.6736 50.05)"/>
  <path fill="#ffffff" d="m34.488167,36.28418c-0.5,-0.599998 -1.399998,-0.700001 -2,-0.200001c-6.5,5.299999 -13.199999,10.5 -19.999999,15.5c-0.7,0.400002 -0.900001,1.300011 -0.400001,2c0.400001,0.700001 1.3,0.900002 2,0.400002c0,0 0.1,-0.099991 0.1,-0.099991c6.799999,-5.000011 13.6,-10.200008 20.099998,-15.60001c0.600002,-0.5 0.700001,-1.400002 0.200001,-2z" id="svg_8" transform="rotate(37.5525 23.3094 45.013)"/>
  <path fill="#ffffff" d="m36.788166,48.184181c-0.5,-0.600002 -1.399998,-0.800003 -2,-0.300003l-16.799999,12.300003c-0.599998,0.5 -0.799999,1.399998 -0.299999,2c0.5,0.599998 1.4,0.799999 2,0.299999l16.900002,-12.299999c0.599998,-0.5 0.699997,-1.400002 0.199997,-2z" id="svg_9" transform="rotate(34.6659 27.2565 55.1842)"/>
  <polyline class="st1" points="34.1,80.3 34.1,80.3 34.1,80.3  " id="svg_10" fill="none" stroke="#000000" stroke-width="0" stroke-linecap="round" stroke-linejoin="round"/>
  <path fill="#ffffff" d="m66.144699,63.494709l0,0l9,-7.200001c0.600006,-0.5 0.699989,-1.399998 0.199989,-2c-0.5,-0.599998 -1.399994,-0.699997 -2,-0.199997l-9,7.199997c-0.599991,0.5 -0.699989,1.400002 -0.199989,2c0.399994,0.600002 1.399994,0.700001 2,0.200001z" id="svg_11" transform="rotate(38.1031 69.7447 58.7947)"/>
  <path fill="#ffffff" d="m78.621109,60.494709l-14.299995,11.700001c-0.600014,0.5 -0.700012,1.400002 -0.200005,2c0.5,0.599998 1.400002,0.699997 2,0.199997c0,0 0,0 0,0l0,0l14.300003,-11.599998c0.599998,-0.5 0.699997,-1.399998 0.199997,-2c-0.5,-0.699997 -1.400002,-0.699997 -2,-0.299999z" id="svg_12" transform="rotate(37.7488 72.3711 67.4697)"/>
 </g>
</svg>