<?xml version="1.0" ?><!DOCTYPE svg  PUBLIC '-//W3C//DTD SVG 1.1//EN'  'http://www.w3.org/Graphics/SVG/1.1/DTD/svg11.dtd'><svg enable-background="new -0.759 -0.958 128 127" height="127px" version="1.1" viewBox="-0.759 -0.958 128 127" width="128px" xml:space="preserve" xmlns="http://www.w3.org/2000/svg" xmlns:xlink="http://www.w3.org/1999/xlink"><defs/><rect fill="none" height="126" width="127"/><rect fill="#292929" height="3" width="12.667" x="25.882" y="48.373"/><path d="M111.588,89.043h-96.25v-51h96.25V89.043z M18.338,86.043h90.25v-45h-90.25V86.043z" fill="#292929"/><path d="M76.19,82.334c-1.249,0-1.784-1.522-2.35-3.133c-0.064-0.183-0.14-0.399-0.218-0.61  c-2.611,2.895-5.803,2.123-5.949,2.086l0.496-1.938l-0.248,0.969l0.24-0.971c0.106,0.025,2.632,0.585,4.524-2.187  c0.435-0.637,1.009-0.638,1.233-0.607c0.94,0.124,1.285,1.106,1.808,2.594c0.06,0.169,0.134,0.38,0.215,0.601  c3.102-8.51,3.708-8.777,4.119-8.957c0.414-0.182,0.854-0.145,1.211,0.1c0.838,0.573,0.819,1.916,0.696,4.897  c-0.035,0.861-0.086,2.101-0.051,2.99c0.644-0.651,1.482-1.619,2.017-2.236c1.363-1.573,1.841-2.099,2.296-2.303  c1.184-0.531,2.262,0.37,3.407,1.325c1.183,0.986,2.523,2.104,4.125,2.118c0.51-0.004,1.104-0.096,1.783-0.213  c1.84-0.316,4.362-0.749,8.057,0.53l-0.654,1.89c-3.209-1.109-5.257-0.758-7.064-0.448c-0.742,0.127-1.421,0.251-2.139,0.242  c-2.316-0.02-4.092-1.5-5.389-2.582c-0.455-0.379-1.063-0.886-1.354-0.995c-0.242,0.229-0.996,1.098-1.557,1.746  c-2.428,2.804-3.266,3.62-4.165,3.546c-0.375-0.026-0.706-0.223-0.909-0.538c-0.549-0.855-0.51-2.516-0.402-5.153  c0.011-0.279,0.024-0.591,0.035-0.91c-0.814,1.958-1.899,4.818-2.85,7.483l-0.227,0.636l-0.675,0.027  C76.232,82.334,76.211,82.334,76.19,82.334z" fill="#292929"/><rect fill="#292929" height="2" width="9.241" x="25.588" y="76.623"/><rect fill="#292929" height="2" width="9.24" x="38.255" y="76.623"/><rect fill="#292929" height="2" width="9.241" x="50.922" y="76.623"/><rect fill="#292929" height="2" width="64.434" x="25.882" y="64.373"/><path d="M95.887,67.038V65.16c-1.22-0.039-2.44-0.387-3.137-0.833l0.523-1.84c0.774,0.465,1.839,0.852,3.021,0.852  c1.239,0,2.072-0.6,2.072-1.51c0-0.891-0.678-1.433-2.13-1.956c-2.014-0.736-3.35-1.685-3.35-3.466c0-1.665,1.162-2.962,3.118-3.311  v-1.878h1.587V53c1.22,0.039,2.053,0.348,2.672,0.658l-0.523,1.781c-0.464-0.232-1.316-0.678-2.633-0.678  c-1.355,0-1.839,0.697-1.839,1.355c0,0.794,0.697,1.259,2.362,1.898c2.168,0.813,3.117,1.859,3.117,3.602  c0,1.646-1.142,3.079-3.253,3.427v1.994H95.887z" fill="#292929"/></svg>