<svg version="1.0" viewBox="0 0 16787 7869" xml:space="preserve" xmlns="http://www.w3.org/2000/svg" shape-rendering="geometricPrecision" text-rendering="geometricPrecision" image-rendering="optimizeQuality" fill-rule="evenodd" clip-rule="evenodd"><path d="M262 0h16524v7869H0V0h262zm8394 5020v704c0 145-118 262-262 262-145 0-262-118-262-262v-692c-29-6-58-14-86-22-290-86-534-293-603-641-28-142 64-280 206-308s280 64 308 206c25 128 123 207 238 241 56 17 119 24 181 24h18l29-2c76-7 149-26 208-55 73-37 126-92 126-156 0-54-11-90-27-112-21-28-60-47-100-59l-4-1c-70-20-150-19-228-18h-6c-119 2-240 3-387-42-119-36-241-100-335-208-98-111-163-261-163-463 0-288 172-501 415-624 65-33 136-59 210-78v-569c0-145 118-262 262-262 145 0 262 118 262 262v556c29 6 59 14 88 22l9 3c285 89 524 295 593 638 28 142-64 280-206 308s-280-64-308-206c-24-124-116-201-227-238l-13-4c-55-16-116-24-176-24h-21l-29 2c-76 7-149 26-208 55-73 37-126 92-126 156 0 59 13 96 32 117h-1l1 1c22 25 57 42 94 53 72 22 153 20 233 19h1c116-2 234-4 376 37l16 5c132 41 268 115 367 248l1 1c79 107 130 245 130 422 0 288-172 501-415 624-65 33-136 59-210 78zm5329 2324c-11-87-17-174-17-262 0-561 228-1070 595-1437s876-595 1437-595c88 0 176 6 262 17V2804c-86 11-174 17-262 17-561 0-1070-228-1437-595s-595-876-595-1437c0-88 6-176 17-262H2804c11 86 17 174 17 262 0 561-228 1070-595 1437s-876 595-1437 595c-88 0-176-6-262-17v2263c86-11 174-17 262-17 561 0 1070 228 1437 595s595 876 595 1437c0 88-6 176-17 262h11182zm2278-1748-35-6c-73-11-149-16-227-16-416 0-794 169-1066 442-273 273-442 650-442 1066 0 78 6 154 16 227l6 36h1748V5597zM8394 1048c797 0 1518 323 2040 845s845 1244 845 2040c0 797-323 1518-845 2040s-1244 845-2040 845c-797 0-1518-323-2040-845s-845-1244-845-2040c0-797 323-1518 845-2040s1244-845 2040-845zm1669 1216c-427-427-1017-691-1669-691s-1242 265-1669 691c-427 427-691 1017-691 1669s265 1242 691 1669c427 427 1017 691 1669 691s1242-265 1669-691c427-427 691-1017 691-1669s-265-1242-691-1669zm4452-1740-6 35c-11 73-16 149-16 227 0 416 169 794 442 1066 273 273 650 442 1066 442 78 0 154-6 227-16l35-6V524h-1748zM2273 7344l6-36c11-72 16-148 16-227 0-416-169-794-442-1066-273-273-650-442-1066-442-78 0-155 6-227 16l-35 6v1748h1748zM525 2272l35 6c72 11 149 16 227 16 416 0 794-169 1066-442 273-273 442-650 442-1066 0-78-6-154-16-227l-6-35H525v1748z" fill="#08a610" fill-rule="nonzero" class="fill-27afb7"></path></svg>