<?xml version="1.0"?>
<svg xmlns="http://www.w3.org/2000/svg" xmlns:xlink="http://www.w3.org/1999/xlink" xmlns:svgjs="http://svgjs.com/svgjs" version="1.1" width="512" height="512" x="0" y="0" viewBox="0 0 512 512" style="enable-background:new 0 0 512 512" xml:space="preserve" class=""><g><linearGradient xmlns="http://www.w3.org/2000/svg" id="SVGID_1_" gradientUnits="userSpaceOnUse" x1="256" x2="256" y1="451" y2="61"><stop stop-opacity="1" stop-color="#5558ff" offset="0"/><stop stop-opacity="1" stop-color="#ffffff" offset="0"/></linearGradient><g xmlns="http://www.w3.org/2000/svg"><g><g><path d="m255.045 160.733c-4.814-12.839-23.2-13.024-28.09 0l-45 120c-2.909 7.756 1.021 16.403 8.778 19.312 7.756 2.91 16.403-1.022 19.312-8.778l7.6-20.267h46.71l7.6 20.267c2.909 7.758 11.556 11.687 19.312 8.778 7.757-2.909 11.688-11.555 8.778-19.312zm-26.15 80.267 12.105-32.28 12.105 32.28zm-63.895-60c8.284 0 15-6.716 15-15s-6.716-15-15-15h-75c-8.284 0-15 6.716-15 15v120c0 8.284 6.716 15 15 15s15-6.716 15-15v-45h60c8.284 0 15-6.716 15-15s-6.716-15-15-15h-60v-30zm262.667 90.454c5.286-8.934 8.333-19.343 8.333-30.454v-30c0-33.084-26.916-60-60-60s-60 26.916-60 60v30c0 33.084 26.916 60 60 60 11.111 0 21.52-3.047 30.454-8.333l3.94 3.94c5.857 5.857 15.355 5.858 21.213 0s5.858-15.355 0-21.213zm-21.667-30.454c0 2.685-.36 5.285-1.024 7.763l-18.369-18.369c-5.857-5.858-15.355-5.858-21.213 0s-5.858 15.355 0 21.213l18.369 18.369c-2.478.664-5.079 1.024-7.763 1.024-16.542 0-30-13.458-30-30v-30c0-16.542 13.458-30 30-30s30 13.458 30 30zm31-180h-362c-41.355 0-75 33.645-75 75v180c0 41.355 33.645 75 75 75h141.729l25.854 51.708c2.542 5.082 7.735 8.292 13.417 8.292s10.875-3.21 13.417-8.292l25.854-51.708h141.729c41.355 0 75-33.645 75-75v-180c0-41.355-33.645-75-75-75zm45 255c0 24.813-20.187 45-45 45h-151c-5.682 0-10.875 3.21-13.417 8.292l-16.583 33.167-16.583-33.167c-2.542-5.082-7.735-8.292-13.417-8.292h-151c-24.813 0-45-20.187-45-45v-180c0-24.813 20.187-45 45-45h362c24.813 0 45 20.187 45 45z" fill="url(#SVGID_1_)" data-original="url(#SVGID_1_)"/></g></g></g></g></svg>
