<svg width="435.97" height="173.13" xmlns="http://www.w3.org/2000/svg" class="main-header__logo-image">

 <g>
  <title>background</title>
  <rect fill="none" id="canvas_background" height="402" width="582" y="-1" x="-1"/>
 </g>
 <g>
  <title>Layer 1</title>
  <path id="svg_1" fill="#ffffff" d="m206.372696,84.580002l0,50.75l-16.099991,0l0,-125.330002l42.699997,0a38.610001,38.610001 0 0 1 27.650009,10.85a34.880001,34.880001 0 0 1 11.549988,26.449999a34.720001,34.720001 0 0 1 -11.549988,26.600002q-11.200012,10.68 -27.650009,10.669998l-26.600006,0l0,0.010002zm0,-59.160002l0,43.76l27,0a21.280001,21.280001 0 0 0 15.930008,-6.48a21.360001,21.360001 0 0 0 0,-30.630001a21,21 0 0 0 -15.930008,-6.65l-27,0z"/>
  <path id="svg_2" fill="#ffffff" d="m309.100006,46.779999q17.850006,0 28.179993,9.540001t10.320007,26.160004l0,52.849998l-15.399994,0l0,-11.900002l-0.700012,0q-10,14.700005 -26.599976,14.700005q-14.170013,0 -23.710022,-8.400009a26.82,26.82 0 0 1 -9.539978,-20.999992q0,-13.310005 10.059998,-21.170006t26.859985,-7.879997q14.339996,0 23.619995,5.25l0,-3.68a18.33,18.33 0 0 0 -6.649994,-14.25a22.799999,22.799999 0 0 0 -15.540009,-5.869999q-13.48999,0 -21.350006,11.380001l-14.179993,-8.93q11.700012,-16.800003 34.630005,-16.800003zm-20.829987,62.300003a12.86,12.86 0 0 0 5.339996,10.5a19.639999,19.639999 0 0 0 12.509979,4.199997a25.67,25.67 0 0 0 18.110016,-7.519997q8,-7.529999 8,-17.670006q-7.529999,-6 -21,-6q-9.809998,0 -16.360016,4.730003c-4.410004,3.199997 -6.600006,7.090004 -6.600006,11.760002l0.000031,0z"/>
  <path id="svg_3" fill="#ffffff" d="m436,49.580002l-53.76001,123.550003l-16.619995,0l19.950012,-43.229996l-35.350006,-80.320007l17.5,0l25.549988,61.599998l0.350006,0l24.850006,-61.599998l17.529999,0z"/>
  <path id="svg_4" fill="#4285f4" d="m141.139999,73.639999a85.790001,85.790001 0 0 0 -1.240005,-14.639999l-67.899994,0l0,27.730003l38.889999,0a33.330002,33.330002 0 0 1 -14.379997,21.879997l0,18l23.209999,0c13.589996,-12.529999 21.419998,-31.059998 21.419998,-52.970001z"/>
  <path id="svg_5" fill="#34a853" d="m72,144c19.43,0 35.790001,-6.380005 47.720001,-17.379997l-23.209999,-18c-6.459999,4.379997 -14.779999,6.879997 -24.510002,6.879997c-18.779999,0 -34.720001,-12.660004 -40.42,-29.720001l-23.91,0l0,18.550003a72,72 0 0 0 64.33,39.669998z"/>
  <path id="svg_6" fill="#fbbc04" d="m31.58,85.779999a43.139999,43.139999 0 0 1 0,-27.559998l0,-18.550003l-23.91,0a72,72 0 0 0 0,64.660004l23.91,-18.550003z"/>
  <path id="svg_7" fill="#ea4335" d="m72,28.5a39.09,39.09 0 0 1 27.620003,10.799999l0,0l20.549995,-20.549999a69.18,69.18 0 0 0 -48.169998,-18.75a72,72 0 0 0 -64.33,39.669998l23.91,18.550003c5.699999,-17.060001 21.640001,-29.720001 40.42,-29.720001z"/>
 </g>
</svg>