<svg width="522" height="522" xmlns="http://www.w3.org/2000/svg" class="main-header__logo-image">

 <g>
  <title>background</title>
  <rect fill="none" id="canvas_background" height="524" width="524" y="-1" x="-1"/>
 </g>
 <g>
  <title>Layer 1</title>
  <path id="svg_1" fill="#000000" d="m247.200821,254.583435l0,50.75l-16.099991,0l0,-125.330002l42.700012,0a38.610001,38.610001 0 0 1 27.650024,10.850006a34.880001,34.880001 0 0 1 11.549988,26.449997a34.720001,34.720001 0 0 1 -11.549988,26.600006q-11.200043,10.679993 -27.650024,10.669983l-26.600021,0l0,0.01001zm0,-59.160004l0,43.76001l26.999985,0a21.280001,21.280001 0 0 0 15.930023,-6.480011a21.360001,21.360001 0 0 0 0,-30.62999a21,21 0 0 0 -15.930023,-6.650009l-26.999985,0z"/>
  <path id="svg_2" fill="#000000" d="m349.1008,216.783432q17.850037,0 28.180023,9.540009t10.320007,26.160004l0,52.849991l-15.400024,0l0,-11.899994l-0.700012,0q-10,14.700012 -26.599976,14.700012q-14.169983,0 -23.710022,-8.400024a26.82,26.82 0 0 1 -9.539978,-21q0,-13.309998 10.059998,-21.170013t26.860016,-7.879974q14.339996,0 23.619965,5.25l0,-3.680008a18.33,18.33 0 0 0 -6.649963,-14.25a22.799999,22.799999 0 0 0 -15.540009,-5.869995q-13.490021,0 -21.350006,11.37999l-14.179993,-8.929993q11.700012,-16.800003 34.629974,-16.800003zm-20.829987,62.300003a12.86,12.86 0 0 0 5.340027,10.5a19.639999,19.639999 0 0 0 12.509949,4.200012a25.67,25.67 0 0 0 18.110046,-7.52002q8,-7.529999 8,-17.669983q-7.530029,-6 -21,-6q-9.809998,0 -16.360046,4.72998c-4.409973,3.200012 -6.599976,7.090027 -6.599976,11.76001l0,0z"/>
  <path id="svg_3" fill="#000000" d="m476.000824,219.583435l-53.76004,123.550018l-16.619995,0l19.950043,-43.230011l-35.350037,-80.320007l17.500031,0l25.549988,61.600006l0.349976,0l24.850037,-61.600006l17.529999,0z"/>
  <path id="svg_4" fill="#4285f4" d="m182.140823,243.643433a85.790001,85.790001 0 0 0 -1.240005,-14.639999l-67.899986,0l0,27.729996l38.890007,0a33.330002,33.330002 0 0 1 -14.380005,21.880005l0,18l23.209991,0c13.589996,-12.529999 21.419998,-31.059998 21.419998,-52.970001z"/>
  <path id="svg_5" fill="#34a853" d="m113.000832,314.003418c19.43,0 35.790001,-6.379974 47.719994,-17.379974l-23.209991,-18c-6.459991,4.379974 -14.779999,6.879974 -24.510002,6.879974c-18.780006,0 -34.720009,-12.659973 -40.420006,-29.719986l-23.909996,0l0,18.550003a72,72 0 0 0 64.330002,39.669983z"/>
  <path id="svg_6" fill="#fbbc04" d="m72.580826,255.783432a43.139999,43.139999 0 0 1 0,-27.559998l0,-18.550003l-23.909996,0a72,72 0 0 0 0,64.660004l23.909996,-18.550003z"/>
  <path id="svg_7" fill="#ea4335" d="m113.000832,198.503433a39.09,39.09 0 0 1 27.620003,10.800003l0,0l20.550003,-20.550003a69.18,69.18 0 0 0 -48.170006,-18.75a72,72 0 0 0 -64.330002,39.669998l23.909996,18.550003c5.699997,-17.059998 21.639999,-29.720001 40.420006,-29.720001z"/>
 </g>
</svg>