<svg width="1969" height="1969" viewBox="0 0 1969 1969" fill="none" xmlns="http://www.w3.org/2000/svg">
<path d="M1648.43 277C1520.84 276.997 1426.95 409.887 1426.95 409.887C1426.95 409.887 1341.94 277 1205.48 277C1076.98 277 984.004 365.593 984 498.477C984.004 631.359 1028.3 719.955 1161.18 852.841C1249.78 941.432 1426.95 1074.32 1426.95 1074.32C1426.95 1074.32 1604.14 941.432 1692.73 852.841C1825.62 719.955 1869.91 631.364 1869.91 498.478C1869.91 365.593 1776.92 277.003 1648.43 277Z" fill="#12CDD9" stroke="url(#paint0_linear_5_73)" stroke-width="2" stroke-linecap="round" stroke-linejoin="round"/>
<mask id="mask0_5_73" style="mask-type:alpha" maskUnits="userSpaceOnUse" x="984" y="275" width="886" height="798">
<path d="M1648.43 275C1520.84 274.997 1426.95 407.887 1426.95 407.887C1426.95 407.887 1341.94 275 1205.48 275C1076.98 275 984.004 363.593 984 496.477C984.004 629.359 1028.3 717.955 1161.18 850.841C1249.78 939.432 1426.95 1072.32 1426.95 1072.32C1426.95 1072.32 1604.14 939.432 1692.73 850.841C1825.62 717.955 1869.91 629.364 1869.91 496.478C1869.91 363.593 1776.92 275.003 1648.43 275Z" fill="#744FC6"/>
</mask>
<g mask="url(#mask0_5_73)">
<g filter="url(#filter0_f_5_73)">
<path d="M1648.43 348.826C1520.84 348.823 1426.95 481.712 1426.95 481.712C1426.95 481.712 1341.94 348.826 1205.48 348.826C1076.98 348.826 984.004 437.419 984 570.302C984.004 703.185 1028.3 791.781 1161.18 924.667C1249.78 1013.26 1426.95 1146.14 1426.95 1146.14C1426.95 1146.14 1604.14 1013.26 1692.73 924.667C1825.62 791.781 1869.91 703.19 1869.91 570.303C1869.91 437.419 1776.92 348.829 1648.43 348.826Z" fill="url(#paint1_linear_5_73)"/>
</g>
<path d="M1050.86 413.858C1069.71 377.021 1102.42 356.079 1123.93 367.083C1145.44 378.086 1118.39 401.926 1099.55 438.763C1080.7 475.599 1077.2 511.484 1055.69 500.48C1034.18 489.477 1032.02 450.695 1050.86 413.858Z" fill="white" fill-opacity="0.2"/>
</g>
<g filter="url(#filter1_b_5_73)">
<path d="M438 796.971C438 839.124 460.117 878.186 496.262 899.873L987.228 1194.45C1050.56 1232.45 1129.69 1232.45 1193.03 1194.45L1683.99 899.873C1720.14 878.186 1742.26 839.124 1742.26 796.971V796.971C1742.26 757.812 1723.15 721.116 1691.07 698.66L1204.82 358.286C1135.96 310.081 1044.3 310.081 975.435 358.286L489.186 698.66C457.106 721.116 438 757.812 438 796.971V796.971Z" fill="white" fill-opacity="0.3"/>
<path d="M438 796.971C438 839.124 460.117 878.186 496.262 899.873L987.228 1194.45C1050.56 1232.45 1129.69 1232.45 1193.03 1194.45L1683.99 899.873C1720.14 878.186 1742.26 839.124 1742.26 796.971V796.971C1742.26 757.812 1723.15 721.116 1691.07 698.66L1204.82 358.286C1135.96 310.081 1044.3 310.081 975.435 358.286L489.186 698.66C457.106 721.116 438 757.812 438 796.971V796.971Z" stroke="url(#paint2_linear_5_73)" stroke-width="5" stroke-miterlimit="10" stroke-linecap="round"/>
</g>
<g clip-path="url(#clip0_5_73)">
<g filter="url(#filter2_d_5_73)">
<path d="M1021.2 1029.41C1095.8 1142 1083.5 1295.21 984.293 1394.41C871.041 1507.67 687.422 1507.67 574.171 1394.41C460.919 1281.16 460.919 1097.54 574.171 984.293C658.259 900.204 781.139 878.551 885.207 919.329L1230.37 574.171H1394.41V820.244H1230.37V984.293H1066.32L1021.2 1029.41Z" fill="url(#paint3_linear_5_73)"/>
<path d="M1021.2 1029.41C1095.8 1142 1083.5 1295.21 984.293 1394.41C871.041 1507.67 687.422 1507.67 574.171 1394.41C460.919 1281.16 460.919 1097.54 574.171 984.293C658.259 900.204 781.139 878.551 885.207 919.329L1230.37 574.171H1394.41V820.244H1230.37V984.293H1066.32L1021.2 1029.41Z" stroke="url(#paint4_linear_5_73)" stroke-width="5" stroke-linecap="round" stroke-linejoin="round"/>
</g>
<path d="M779.232 1189.35C801.882 1212 801.882 1248.73 779.232 1271.38C756.581 1294.03 719.858 1294.03 697.207 1271.38C674.557 1248.73 674.557 1212 697.208 1189.35C719.858 1166.7 756.581 1166.7 779.232 1189.35Z" stroke="#221B38" stroke-width="5" stroke-linejoin="round"/>
</g>
<g filter="url(#filter3_b_5_73)">
<path d="M1742.26 808.915L1090.13 1200.19L438 808.915V1395.83C438 1467.56 496.691 1526.26 568.426 1526.26H1611.83C1683.56 1526.26 1742.26 1467.56 1742.26 1395.83V808.915Z" fill="url(#paint5_linear_5_73)" fill-opacity="0.7"/>
<path d="M1742.26 808.915L1090.13 1200.19L438 808.915V1395.83C438 1467.56 496.691 1526.26 568.426 1526.26H1611.83C1683.56 1526.26 1742.26 1467.56 1742.26 1395.83V808.915Z" stroke="url(#paint6_linear_5_73)" stroke-width="5" stroke-miterlimit="10" stroke-linecap="round"/>
</g>
<path d="M1680.08 1460.3C1651.1 1489.83 1613.62 1500.04 1596.38 1483.12C1579.14 1466.19 1612.08 1451.52 1641.06 1421.99C1670.05 1392.47 1684.11 1359.27 1701.35 1376.19C1718.59 1393.12 1709.07 1430.77 1680.08 1460.3Z" fill="white" fill-opacity="0.2"/>
<path d="M1789.86 366.28C1816.53 397.915 1823.18 436.184 1804.7 451.758C1786.23 467.331 1774.72 433.162 1748.05 401.527C1721.38 369.892 1689.65 352.771 1708.12 337.198C1726.6 321.625 1763.19 334.645 1789.86 366.28Z" fill="white" fill-opacity="0.2"/>
<defs>
<filter id="filter0_f_5_73" x="854" y="218.826" width="1145.91" height="1057.32" filterUnits="userSpaceOnUse" color-interpolation-filters="sRGB">
<feFlood flood-opacity="0" result="BackgroundImageFix"/>
<feBlend mode="normal" in="SourceGraphic" in2="BackgroundImageFix" result="shape"/>
<feGaussianBlur stdDeviation="65" result="effect1_foregroundBlur_5_73"/>
</filter>
<filter id="filter1_b_5_73" x="335.5" y="219.632" width="1509.25" height="1105.82" filterUnits="userSpaceOnUse" color-interpolation-filters="sRGB">
<feFlood flood-opacity="0" result="BackgroundImageFix"/>
<feGaussianBlur in="BackgroundImage" stdDeviation="50"/>
<feComposite in2="SourceAlpha" operator="in" result="effect1_backgroundBlur_5_73"/>
<feBlend mode="normal" in="SourceGraphic" in2="effect1_backgroundBlur_5_73" result="shape"/>
</filter>
<filter id="filter2_d_5_73" x="476.732" y="525.671" width="1010.18" height="1010.18" filterUnits="userSpaceOnUse" color-interpolation-filters="sRGB">
<feFlood flood-opacity="0" result="BackgroundImageFix"/>
<feColorMatrix in="SourceAlpha" type="matrix" values="0 0 0 0 0 0 0 0 0 0 0 0 0 0 0 0 0 0 127 0" result="hardAlpha"/>
<feOffset dx="40" dy="4"/>
<feGaussianBlur stdDeviation="25"/>
<feComposite in2="hardAlpha" operator="out"/>
<feColorMatrix type="matrix" values="0 0 0 0 0 0 0 0 0 0 0 0 0 0 0 0 0 0 0.5 0"/>
<feBlend mode="normal" in2="BackgroundImageFix" result="effect1_dropShadow_5_73"/>
<feBlend mode="normal" in="SourceGraphic" in2="effect1_dropShadow_5_73" result="shape"/>
</filter>
<filter id="filter3_b_5_73" x="335.5" y="704.499" width="1509.25" height="924.256" filterUnits="userSpaceOnUse" color-interpolation-filters="sRGB">
<feFlood flood-opacity="0" result="BackgroundImageFix"/>
<feGaussianBlur in="BackgroundImage" stdDeviation="50"/>
<feComposite in2="SourceAlpha" operator="in" result="effect1_backgroundBlur_5_73"/>
<feBlend mode="normal" in="SourceGraphic" in2="effect1_backgroundBlur_5_73" result="shape"/>
</filter>
<linearGradient id="paint0_linear_5_73" x1="1098.74" y1="289.159" x2="1758.74" y2="973.159" gradientUnits="userSpaceOnUse">
<stop stop-color="white"/>
<stop offset="1"/>
</linearGradient>
<linearGradient id="paint1_linear_5_73" x1="1098.74" y1="423.159" x2="1498.74" y2="1007.16" gradientUnits="userSpaceOnUse">
<stop stop-color="#12CDD9"/>
<stop offset="1" stop-color="#744FC6"/>
</linearGradient>
<linearGradient id="paint2_linear_5_73" x1="720.999" y1="752.947" x2="1090.13" y2="1256.19" gradientUnits="userSpaceOnUse">
<stop stop-color="white" stop-opacity="0.6"/>
<stop offset="1"/>
</linearGradient>
<linearGradient id="paint3_linear_5_73" x1="815" y1="800" x2="1135" y2="1196" gradientUnits="userSpaceOnUse">
<stop stop-color="#12CDD9"/>
<stop offset="1" stop-color="#744FC6"/>
</linearGradient>
<linearGradient id="paint4_linear_5_73" x1="935" y1="900" x2="1123" y2="1092" gradientUnits="userSpaceOnUse">
<stop stop-color="white"/>
<stop offset="1"/>
</linearGradient>
<linearGradient id="paint5_linear_5_73" x1="661" y1="1168" x2="225" y2="587" gradientUnits="userSpaceOnUse">
<stop stop-color="#744FC6"/>
<stop offset="1" stop-color="white"/>
</linearGradient>
<linearGradient id="paint6_linear_5_73" x1="438" y1="695" x2="1061" y2="1379" gradientUnits="userSpaceOnUse">
<stop stop-color="white" stop-opacity="0.6"/>
<stop offset="1"/>
</linearGradient>
<clipPath id="clip0_5_73">
<rect width="1392" height="1392" fill="white" transform="matrix(0.707107 0.707107 0.707107 -0.707107 0 984.293)"/>
</clipPath>
</defs>
</svg>
