<svg width="512" height="512" xmlns="http://www.w3.org/2000/svg">

 <g>
  <title>background</title>
  <rect fill="none" id="canvas_background" height="402" width="582" y="-1" x="-1"/>
 </g>
 <g>
  <title>Layer 1</title>
  <path stroke="#b2b2b2" id="svg_1" fill="#FFFFFF" d="m434.5,426l-357,0c-25.681,0 -46.5,-20.818 -46.5,-46.5l0,-247c0,-25.681 20.819,-46.5 46.5,-46.5l357,0c25.682,0 46.5,20.819 46.5,46.5l0,247c0,25.682 -20.818,46.5 -46.5,46.5z"/>
  <path id="svg_4" fill="#F79F1A" d="m331,161c52.46,0 95,42.53 95,95c0,52.47 -42.54,95 -95,95c-30.49,0 -57.631,-14.36 -75,-36.69c12.54,-16.1 20,-36.329 20,-58.31c0,-21.98 -7.46,-42.21 -20,-58.31c17.369,-22.33 44.51,-36.69 75,-36.69z"/>
  <path id="svg_6" fill="#FF5F01" d="m256,197.69c12.54,16.1 20,36.33 20,58.31c0,21.98 -7.46,42.21 -20,58.31c-12.54,-16.1 -20,-36.329 -20,-58.31c0,-21.98 7.46,-42.21 20,-58.31z"/>
  <path id="svg_8" fill="#EA001B" d="m181,161c30.49,0 57.63,14.36 75,36.69c-12.54,16.1 -20,36.33 -20,58.31c0,21.98 7.46,42.21 20,58.31c-17.37,22.33 -44.51,36.69 -75,36.69c-52.47,0 -95,-42.53 -95,-95c0,-52.47 42.53,-95 95,-95z"/>
 </g>
</svg>