<svg width="512" height="512" xmlns="http://www.w3.org/2000/svg">

 <g>
  <title>background</title>
  <rect fill="none" id="canvas_background" height="402" width="582" y="-1" x="-1"/>
 </g>
 <g>
  <title>Layer 1</title>
  <path id="svg_3" fill="#005098" d="m482.722,103.198c13.854,0 25.126,11.271 25.126,25.126l0,257.9c0,13.854 -11.271,25.126 -25.126,25.126l-451.732,0c-13.854,0 -25.126,-11.271 -25.126,-25.126l0,-257.9c0,-13.854 11.271,-25.126 25.126,-25.126l451.732,0m0,-5l-451.732,0c-16.638,0 -30.126,13.488 -30.126,30.126l0,257.9c0,16.639 13.488,30.126 30.126,30.126l451.732,0c16.639,0 30.126,-13.487 30.126,-30.126l0,-257.9c0,-16.638 -13.488,-30.126 -30.126,-30.126l0,0z"/>
  <polygon id="svg_5" points="190.88,321.104 212.529,194.022 247.182,194.022 225.494,321.104 190.88,321.104   " fill="#005098"/>
  <path id="svg_6" fill="#005098" d="m351.141,197.152c-6.86,-2.577 -17.617,-5.339 -31.049,-5.339c-34.226,0 -58.336,17.234 -58.549,41.94c-0.193,18.256 17.21,28.451 30.351,34.527c13.489,6.231 18.023,10.204 17.966,15.767c-0.097,8.518 -10.775,12.403 -20.737,12.403c-13.857,0 -21.222,-1.918 -32.599,-6.667l-4.458,-2.016l-4.864,28.452c8.082,3.546 23.043,6.618 38.587,6.772c36.417,0 60.042,-17.035 60.313,-43.423c0.136,-14.447 -9.089,-25.446 -29.071,-34.522c-12.113,-5.882 -19.535,-9.802 -19.458,-15.757c0,-5.281 6.279,-10.93 19.846,-10.93c11.318,-0.179 19.536,2.292 25.912,4.869l3.121,1.468l4.689,-27.544l0,0z"/>
  <path id="svg_7" fill="#005098" d="m439.964,194.144l-26.766,0c-8.295,0 -14.496,2.262 -18.14,10.538l-51.438,116.47l36.378,0c0,0 5.931,-15.66 7.287,-19.1c3.974,0 39.305,0.059 44.363,0.059c1.027,4.447 4.206,19.041 4.206,19.041l32.152,0l-28.042,-127.008l0,0zm-42.716,81.918c2.868,-7.326 13.8,-35.53 13.8,-35.53c-0.194,0.339 2.849,-7.36 4.593,-12.132l2.346,10.959c0,0 6.628,30.336 8.022,36.703l-28.761,0l0,0z"/>
  <path id="svg_8" fill="#005098" d="m161.828,194.114l-33.917,86.667l-3.624,-17.607c-6.299,-20.312 -25.971,-42.309 -47.968,-53.317l31.009,111.149l36.649,-0.048l54.538,-126.844l-36.687,0l0,0z"/>
  <path id="svg_9" fill="#005098" d="m96.456,194.037l-55.875,0l-0.426,2.641c43.452,10.523 72.213,35.946 84.133,66.496l-12.133,-58.41c-2.093,-8.048 -8.179,-10.446 -15.699,-10.727l0,0z"/>
 </g>
</svg>